<svg width="267" height="211" viewBox="0 0 267 211" fill="none" xmlns="http://www.w3.org/2000/svg">
<g clip-path="url(#clip0_515_27285)">
<path d="M2.68533 175.163C0.759486 171.9 0 168.066 0 164.273C0 161.785 0.325494 159.256 1.39691 157.013C2.46833 154.77 4.36704 152.839 6.74044 152.146C10.348 151.085 14.2675 153.07 16.7358 155.925C19.2041 158.78 20.5604 162.383 22.1607 165.795C23.7475 169.208 25.7411 172.647 28.9554 174.619C32.3731 176.712 36.6181 176.808 40.3884 178.154C42.4498 178.888 44.7012 180.913 43.7654 182.898C43.1008 184.285 41.2971 184.584 39.7645 184.679C32.3867 185.101 24.941 184.625 17.6716 183.265C11.6907 182.151 5.99451 180.75 2.68533 175.163Z" fill="#F1F3F6"/>
<path d="M223.153 151.792C233.271 143.798 248.542 141.541 259.12 148.91C264.274 152.499 268.112 158.848 266.729 164.993C265.806 169.072 262.836 172.321 259.961 175.353C257.696 177.759 255.391 180.193 252.583 181.933C248.718 184.312 244.148 185.223 239.658 185.862C232.728 186.841 225.716 187.29 218.718 187.195C213.66 187.127 204.817 188.812 205.522 181.77C206.58 170.88 214.799 158.386 223.153 151.792Z" fill="#F1F3F6"/>
<path d="M26.6227 160.657C18.4989 149.128 13.847 135.424 11.5143 121.502C8.7883 105.228 9.24942 87.8942 16.3832 73.0345C23.5169 58.1747 38.2591 46.3196 54.7101 45.9117C68.8419 45.5718 81.8075 53.2532 95.5731 56.4209C114.804 60.8394 135.962 55.8907 151.246 43.383C167.928 29.7332 178.71 7.35528 199.406 1.38691C212.995 -2.52855 228.144 2.16185 238.845 11.4203C249.545 20.6923 256.15 33.9886 259.581 47.7471C262.931 61.1385 263.433 75.5496 258.903 88.5875C252.068 108.274 234.966 122.304 218.501 135.029C214.134 138.401 209.699 141.827 206.539 146.368C203.393 150.895 201.684 156.782 203.42 162.03C204.803 166.217 208.248 169.738 208.547 174.143C208.818 178.399 205.929 182.368 202.281 184.557C198.633 186.746 194.32 187.507 190.116 188.16C166.626 191.776 142.81 193.163 119.063 192.32C97.2684 191.545 72.6258 190.852 52.4045 182.124C41.9751 177.651 33.119 169.874 26.6227 160.657Z" fill="#F1F3F6"/>
<path d="M159.858 181.267H106.315C100.551 181.267 95.8851 176.59 95.8851 170.812V28.3191C95.8851 22.5411 100.551 17.8643 106.315 17.8643H159.858C165.622 17.8643 170.288 22.5411 170.288 28.3191V170.826C170.288 176.59 165.622 181.267 159.858 181.267Z" fill="#10141B"/>
<path d="M98.6925 163.104V36.0277C98.6925 32.0306 101.92 28.7949 105.908 28.7949H160.252C164.239 28.7949 167.467 32.0306 167.467 36.0277V163.104C167.467 167.101 164.239 170.336 160.252 170.336H105.908C101.92 170.336 98.6925 167.101 98.6925 163.104Z" fill="white"/>
<path d="M142.878 24.0365H123.294C122.901 24.0365 122.589 23.7238 122.589 23.3295C122.589 22.9353 122.901 22.6226 123.294 22.6226H142.878C143.272 22.6226 143.584 22.9353 143.584 23.3295C143.584 23.7238 143.272 24.0365 142.878 24.0365Z" fill="#B3B3B3"/>
<path d="M149.28 24.3629C149.849 24.3629 150.31 23.9003 150.31 23.3296C150.31 22.759 149.849 22.2964 149.28 22.2964C148.71 22.2964 148.249 22.759 148.249 23.3296C148.249 23.9003 148.71 24.3629 149.28 24.3629Z" fill="#B3B3B3"/>
<path d="M112.065 49.7588C114.059 49.7588 115.591 50.1259 116.649 50.86C117.707 51.5942 118.236 52.7226 118.236 54.2317C118.236 56.1214 117.314 57.3858 115.455 58.052C115.713 58.3647 115.998 58.7317 116.31 59.1804C116.635 59.6154 116.961 60.1049 117.286 60.6079C117.625 61.1245 117.937 61.6547 118.249 62.1849C118.561 62.7288 118.832 63.259 119.063 63.7756H116.242C115.984 63.2998 115.713 62.8103 115.428 62.3209C115.13 61.8315 114.832 61.3556 114.533 60.8934C114.235 60.4311 113.937 59.9961 113.638 59.5882C113.34 59.1804 113.069 58.8133 112.824 58.5006C112.635 58.5142 112.472 58.5142 112.35 58.5142C112.214 58.5142 112.092 58.5142 111.97 58.5142H110.749V63.762H108.227V50.0987C108.837 49.9627 109.488 49.8811 110.18 49.8268C110.899 49.7724 111.522 49.7588 112.065 49.7588ZM112.255 51.934C111.726 51.934 111.224 51.9476 110.777 51.9884V56.4749H111.875C112.485 56.4749 113.028 56.4477 113.489 56.3797C113.95 56.3118 114.343 56.1894 114.655 56.0127C114.967 55.8359 115.211 55.6048 115.361 55.3057C115.523 55.0066 115.605 54.6395 115.605 54.1773C115.605 53.7558 115.523 53.3888 115.361 53.0897C115.198 52.7906 114.967 52.5594 114.669 52.3827C114.371 52.206 114.018 52.0836 113.597 52.0156C113.177 51.9476 112.743 51.934 112.255 51.934Z" fill="#10141B"/>
<path d="M120.351 58.5826C120.351 57.6581 120.487 56.8559 120.758 56.1626C121.03 55.4692 121.396 54.8846 121.843 54.436C122.291 53.9737 122.82 53.6338 123.403 53.3891C123.986 53.158 124.583 53.0356 125.207 53.0356C126.644 53.0356 127.77 53.4843 128.57 54.3816C129.37 55.2789 129.777 56.6112 129.777 58.3922C129.777 58.5282 129.777 58.6777 129.764 58.8409C129.75 59.004 129.75 59.1536 129.737 59.2895H122.847C122.915 60.1324 123.213 60.785 123.742 61.2472C124.271 61.7095 125.03 61.9406 126.034 61.9406C126.617 61.9406 127.16 61.8862 127.648 61.7775C128.136 61.6687 128.516 61.5599 128.801 61.4376L129.126 63.4225C128.991 63.4905 128.814 63.5585 128.57 63.6264C128.34 63.6944 128.068 63.7624 127.77 63.8304C127.472 63.8847 127.146 63.9391 126.807 63.9799C126.454 64.0207 126.102 64.0343 125.749 64.0343C124.827 64.0343 124.027 63.8983 123.349 63.6264C122.671 63.3545 122.115 62.9739 121.667 62.4844C121.219 61.995 120.894 61.424 120.69 60.7578C120.446 60.1052 120.351 59.3711 120.351 58.5826ZM127.363 57.5085C127.363 57.1686 127.322 56.8559 127.227 56.5568C127.133 56.2577 126.997 55.9994 126.821 55.7819C126.644 55.5644 126.414 55.3876 126.156 55.2653C125.898 55.1429 125.586 55.0749 125.234 55.0749C124.868 55.0749 124.529 55.1429 124.257 55.2789C123.973 55.4148 123.742 55.6052 123.552 55.8363C123.362 56.0674 123.213 56.3257 123.105 56.6248C122.996 56.9239 122.928 57.223 122.888 57.5221H127.363V57.5085Z" fill="#10141B"/>
<path d="M136.599 48.2363C137.155 48.2363 137.657 48.2907 138.077 48.3859C138.498 48.481 138.823 48.5762 139.04 48.6578L138.579 50.6563C138.349 50.5475 138.091 50.466 137.792 50.398C137.494 50.33 137.169 50.3028 136.83 50.3028C136.436 50.3028 136.111 50.3572 135.853 50.4796C135.582 50.5883 135.378 50.7515 135.216 50.9554C135.053 51.1593 134.944 51.4041 134.877 51.6896C134.809 51.9751 134.782 52.2877 134.782 52.6276V53.3346H138.579V55.3603H134.782V63.8166H132.368V52.6004C132.368 51.2545 132.72 50.1941 133.425 49.4191C134.104 48.617 135.161 48.2363 136.599 48.2363Z" fill="#10141B"/>
<path d="M139.556 58.5826C139.556 57.6581 139.691 56.8559 139.962 56.1626C140.234 55.4692 140.6 54.8846 141.047 54.436C141.495 53.9737 142.024 53.6338 142.607 53.3891C143.19 53.158 143.787 53.0356 144.411 53.0356C145.848 53.0356 146.974 53.4843 147.774 54.3816C148.574 55.2789 148.981 56.6112 148.981 58.3922C148.981 58.5282 148.981 58.6777 148.968 58.8409C148.954 59.004 148.954 59.1536 148.941 59.2895H142.051C142.119 60.1324 142.417 60.785 142.946 61.2472C143.475 61.7095 144.235 61.9406 145.238 61.9406C145.821 61.9406 146.364 61.8862 146.852 61.7775C147.34 61.6687 147.72 61.5599 148.005 61.4376L148.33 63.4225C148.195 63.4905 148.018 63.5585 147.774 63.6264C147.53 63.6944 147.272 63.7624 146.974 63.8304C146.676 63.8847 146.35 63.9391 146.011 63.9799C145.659 64.0207 145.306 64.0343 144.953 64.0343C144.031 64.0343 143.231 63.8983 142.553 63.6264C141.875 63.3545 141.319 62.9739 140.871 62.4844C140.424 61.995 140.098 61.424 139.895 60.7578C139.65 60.1052 139.556 59.3711 139.556 58.5826ZM146.567 57.5085C146.567 57.1686 146.527 56.8559 146.432 56.5568C146.337 56.2577 146.201 55.9994 146.025 55.7819C145.848 55.5644 145.618 55.3876 145.36 55.2653C145.103 55.1429 144.791 55.0749 144.438 55.0749C144.072 55.0749 143.733 55.1429 143.461 55.2789C143.177 55.4148 142.946 55.6052 142.756 55.8363C142.566 56.0674 142.417 56.3257 142.309 56.6248C142.2 56.9239 142.132 57.223 142.092 57.5221H146.567V57.5085Z" fill="#10141B"/>
<path d="M157.499 55.4825C157.295 55.4145 157.024 55.3465 156.671 55.265C156.319 55.197 155.912 55.1562 155.437 55.1562C155.166 55.1562 154.881 55.1834 154.583 55.2378C154.284 55.2921 154.067 55.3329 153.959 55.3737V63.7621H151.545V53.7831C152.006 53.6063 152.589 53.4432 153.294 53.2936C153.999 53.1441 154.772 53.0625 155.627 53.0625C155.79 53.0625 155.98 53.0761 156.183 53.0897C156.4 53.1033 156.603 53.1305 156.82 53.1713C157.037 53.1985 157.241 53.2392 157.444 53.2936C157.648 53.3344 157.81 53.3888 157.919 53.4296L157.499 55.4825Z" fill="#10141B"/>
<path d="M120.446 77.1401C121.192 77.1401 121.816 77.2353 122.332 77.4256C122.847 77.616 123.254 77.8879 123.566 78.2414C123.878 78.5948 124.108 79.0163 124.23 79.5057C124.366 79.9952 124.434 80.5254 124.434 81.1236V87.6357C124.271 87.6629 124.054 87.7037 123.769 87.7445C123.484 87.7853 123.159 87.8397 122.806 87.8805C122.44 87.9213 122.06 87.962 121.64 87.9892C121.219 88.0164 120.799 88.0436 120.392 88.0436C119.809 88.0436 119.266 87.9892 118.778 87.8669C118.29 87.7445 117.856 87.5542 117.503 87.2959C117.137 87.0376 116.866 86.6977 116.663 86.2626C116.459 85.8412 116.364 85.3245 116.364 84.7263C116.364 84.1553 116.486 83.6523 116.717 83.2444C116.947 82.8366 117.273 82.4967 117.666 82.2384C118.073 81.9801 118.534 81.8033 119.063 81.681C119.592 81.5586 120.162 81.5042 120.745 81.5042C120.935 81.5042 121.124 81.5178 121.328 81.5314C121.531 81.545 121.721 81.5722 121.898 81.613C122.074 81.6402 122.237 81.681 122.372 81.7082C122.508 81.7354 122.603 81.749 122.657 81.7626V81.2459C122.657 80.9332 122.616 80.6341 122.562 80.335C122.494 80.0359 122.372 79.764 122.196 79.5329C122.02 79.3018 121.789 79.1115 121.491 78.9755C121.192 78.8396 120.799 78.7716 120.324 78.7716C119.714 78.7716 119.172 78.8124 118.71 78.9075C118.249 78.9891 117.91 79.0843 117.68 79.1794L117.463 77.6296C117.707 77.5208 118.1 77.4256 118.656 77.3169C119.185 77.1945 119.795 77.1401 120.446 77.1401ZM120.609 86.4801C121.043 86.4801 121.436 86.4666 121.775 86.453C122.115 86.4394 122.399 86.3986 122.63 86.3442V83.2444C122.494 83.1765 122.277 83.1221 121.979 83.0677C121.681 83.0269 121.314 82.9997 120.894 82.9997C120.609 82.9997 120.311 83.0133 119.999 83.0541C119.687 83.0949 119.402 83.1765 119.144 83.2988C118.887 83.4212 118.67 83.5979 118.493 83.8155C118.317 84.033 118.236 84.3321 118.236 84.6856C118.236 85.3517 118.453 85.814 118.873 86.0723C119.294 86.3442 119.877 86.4801 120.609 86.4801Z" fill="#10141B"/>
<path d="M127.526 77.6973C127.946 77.5885 128.516 77.4798 129.221 77.3574C129.926 77.235 130.74 77.1807 131.662 77.1807C132.49 77.1807 133.168 77.303 133.724 77.5341C134.266 77.7653 134.7 78.0916 135.039 78.513C135.365 78.9345 135.595 79.4375 135.731 80.0221C135.867 80.6067 135.934 81.2593 135.934 81.9662V87.8122H134.076V82.3605C134.076 81.7215 134.036 81.1777 133.941 80.7155C133.859 80.2668 133.71 79.8997 133.507 79.6142C133.303 79.3287 133.046 79.1248 132.707 79.0024C132.368 78.8801 131.961 78.8121 131.472 78.8121C131.269 78.8121 131.066 78.8257 130.849 78.8257C130.632 78.8393 130.428 78.8529 130.238 78.8801C130.048 78.8937 129.872 78.9209 129.723 78.9481C129.574 78.9753 129.465 78.9888 129.397 79.0024V87.8258H127.539V77.6973H127.526Z" fill="#10141B"/>
<path d="M145.713 72.5992L147.571 72.2729V87.5134C147.137 87.6357 146.594 87.7581 145.93 87.8804C145.265 88.0028 144.492 88.0572 143.638 88.0572C142.838 88.0572 142.119 87.9348 141.481 87.6765C140.844 87.4182 140.302 87.0647 139.84 86.5889C139.393 86.1266 139.04 85.5556 138.796 84.8758C138.552 84.1961 138.43 83.4483 138.43 82.6054C138.43 81.8033 138.538 81.0692 138.742 80.403C138.945 79.7368 139.257 79.1658 139.651 78.6764C140.057 78.2005 140.546 77.8199 141.115 77.548C141.698 77.276 142.363 77.1537 143.109 77.1537C143.706 77.1537 144.235 77.2353 144.696 77.3984C145.157 77.5615 145.496 77.7111 145.726 77.8606V72.5992H145.713ZM145.713 79.6009C145.482 79.4105 145.157 79.2338 144.736 79.057C144.302 78.8803 143.841 78.7987 143.339 78.7987C142.811 78.7987 142.349 78.8939 141.97 79.0842C141.59 79.2746 141.278 79.5465 141.034 79.8864C140.79 80.2262 140.627 80.6341 140.519 81.0963C140.41 81.5586 140.356 82.0616 140.356 82.6054C140.356 83.8154 140.654 84.7535 141.251 85.4197C141.848 86.0858 142.648 86.4121 143.651 86.4121C144.153 86.4121 144.587 86.3849 144.926 86.3441C145.265 86.3034 145.523 86.249 145.713 86.1946V79.6009Z" fill="#10141B"/>
<path d="M112.919 111.863V97.9819H121.816V100.13H115.442V103.556H121.111V105.663H115.428V109.715H122.291V111.863H112.919Z" fill="#10141B"/>
<path d="M127.987 101.123C128.787 101.123 129.465 101.218 130.008 101.422C130.55 101.626 130.984 101.897 131.323 102.265C131.662 102.632 131.879 103.067 132.029 103.583C132.178 104.1 132.232 104.657 132.232 105.269V111.618C131.866 111.7 131.296 111.795 130.55 111.904C129.791 112.012 128.95 112.08 128.001 112.08C127.377 112.08 126.807 112.026 126.278 111.904C125.763 111.781 125.315 111.591 124.949 111.319C124.583 111.047 124.298 110.707 124.095 110.272C123.891 109.851 123.783 109.321 123.783 108.695C123.783 108.097 123.905 107.58 124.135 107.172C124.366 106.765 124.678 106.425 125.085 106.166C125.492 105.908 125.953 105.718 126.468 105.609C126.997 105.5 127.539 105.432 128.123 105.432C128.394 105.432 128.665 105.446 128.963 105.487C129.262 105.514 129.574 105.582 129.899 105.65V105.256C129.899 104.97 129.859 104.712 129.804 104.453C129.737 104.195 129.628 103.978 129.452 103.787C129.289 103.597 129.058 103.447 128.787 103.339C128.516 103.23 128.177 103.175 127.756 103.175C127.2 103.175 126.685 103.216 126.224 103.298C125.763 103.379 125.383 103.475 125.085 103.583L124.786 101.626C125.098 101.517 125.546 101.408 126.129 101.299C126.699 101.177 127.322 101.123 127.987 101.123ZM128.19 110.163C128.936 110.163 129.506 110.123 129.886 110.041V107.349C129.75 107.308 129.56 107.268 129.303 107.227C129.045 107.186 128.774 107.172 128.462 107.172C128.19 107.172 127.919 107.2 127.648 107.227C127.377 107.268 127.133 107.336 126.902 107.444C126.685 107.553 126.509 107.703 126.373 107.893C126.237 108.083 126.17 108.328 126.17 108.627C126.17 109.198 126.346 109.592 126.712 109.824C127.092 110.055 127.58 110.163 128.19 110.163Z" fill="#10141B"/>
<path d="M141.142 103.569C140.939 103.501 140.668 103.433 140.315 103.352C139.962 103.284 139.556 103.243 139.081 103.243C138.81 103.243 138.525 103.27 138.226 103.325C137.928 103.379 137.711 103.42 137.603 103.461V111.849H135.188V101.87C135.65 101.693 136.233 101.53 136.938 101.381C137.643 101.231 138.416 101.149 139.271 101.149C139.433 101.149 139.623 101.163 139.827 101.177C140.044 101.19 140.247 101.217 140.464 101.258C140.681 101.285 140.885 101.326 141.088 101.381C141.291 101.421 141.454 101.476 141.563 101.516L141.142 103.569Z" fill="#10141B"/>
<path d="M143.245 101.721C143.706 101.585 144.316 101.462 145.062 101.34C145.808 101.217 146.635 101.163 147.544 101.163C148.398 101.163 149.103 101.285 149.687 101.517C150.256 101.748 150.717 102.074 151.056 102.495C151.395 102.917 151.64 103.42 151.775 104.018C151.911 104.616 151.979 105.269 151.979 105.976V111.863H149.565V106.357C149.565 105.799 149.524 105.323 149.456 104.929C149.375 104.535 149.266 104.208 149.09 103.964C148.927 103.719 148.697 103.542 148.412 103.42C148.127 103.311 147.774 103.243 147.367 103.243C147.056 103.243 146.744 103.257 146.405 103.298C146.065 103.338 145.821 103.366 145.659 103.393V111.849H143.245V101.721Z" fill="#10141B"/>
<path d="M153.864 139.298H112.295C108.512 139.298 105.433 136.212 105.433 132.419C105.433 128.626 108.512 125.54 112.295 125.54H153.864C157.648 125.54 160.726 128.626 160.726 132.419C160.74 136.212 157.661 139.298 153.864 139.298Z" fill="#10141B"/>
<path d="M126.956 132.419C126.956 131.875 127.038 131.399 127.2 130.978C127.363 130.57 127.58 130.216 127.851 129.945C128.123 129.673 128.448 129.455 128.814 129.319C129.181 129.183 129.574 129.115 129.981 129.115C130.388 129.115 130.767 129.183 131.133 129.319C131.5 129.455 131.812 129.673 132.083 129.945C132.354 130.216 132.571 130.57 132.734 130.978C132.897 131.386 132.978 131.875 132.978 132.419C132.978 132.963 132.897 133.439 132.734 133.86C132.571 134.268 132.354 134.621 132.083 134.893C131.812 135.165 131.486 135.383 131.133 135.519C130.767 135.655 130.388 135.723 129.981 135.723C129.56 135.723 129.181 135.655 128.814 135.519C128.448 135.383 128.123 135.165 127.851 134.893C127.58 134.621 127.35 134.268 127.2 133.86C127.038 133.439 126.956 132.963 126.956 132.419ZM127.892 132.419C127.892 132.8 127.946 133.153 128.041 133.466C128.136 133.778 128.272 134.05 128.462 134.268C128.638 134.485 128.855 134.662 129.113 134.771C129.37 134.893 129.655 134.948 129.981 134.948C130.306 134.948 130.591 134.893 130.849 134.771C131.106 134.649 131.323 134.485 131.5 134.268C131.676 134.05 131.812 133.778 131.92 133.466C132.015 133.153 132.069 132.8 132.069 132.419C132.069 132.038 132.015 131.685 131.92 131.372C131.825 131.059 131.69 130.787 131.5 130.57C131.323 130.352 131.106 130.176 130.849 130.067C130.591 129.945 130.306 129.89 129.981 129.89C129.655 129.89 129.37 129.945 129.113 130.067C128.855 130.189 128.638 130.352 128.462 130.57C128.285 130.787 128.15 131.059 128.041 131.372C127.933 131.685 127.892 132.038 127.892 132.419Z" fill="white"/>
<path d="M139 129.251C138.81 129.455 138.593 129.686 138.362 129.944C138.132 130.203 137.874 130.461 137.616 130.719C137.359 130.978 137.101 131.249 136.843 131.494C136.585 131.753 136.341 131.984 136.124 132.215C136.382 132.392 136.667 132.623 136.952 132.895C137.25 133.166 137.535 133.452 137.806 133.751C138.091 134.05 138.349 134.363 138.593 134.689C138.837 135.002 139.04 135.315 139.203 135.6H138.159C137.982 135.315 137.765 135.029 137.535 134.73C137.291 134.444 137.047 134.159 136.775 133.901C136.518 133.629 136.246 133.384 135.975 133.166C135.704 132.935 135.446 132.745 135.189 132.595V135.6H134.307V129.265H135.189V132.065C135.406 131.861 135.636 131.63 135.894 131.385C136.151 131.127 136.396 130.882 136.653 130.624C136.897 130.366 137.142 130.121 137.359 129.89C137.576 129.659 137.765 129.455 137.915 129.278H139V129.251Z" fill="white"/>
<path d="M96.6718 156.768C98.5968 156.768 100.157 155.204 100.157 153.274C100.157 151.345 98.5968 149.78 96.6718 149.78C94.7468 149.78 93.1863 151.345 93.1863 153.274C93.1863 155.204 94.7468 156.768 96.6718 156.768Z" fill="#FF2718"/>
<path d="M100.157 156.768C102.082 156.768 103.643 155.204 103.643 153.274C103.643 151.345 102.082 149.78 100.157 149.78C98.2323 149.78 96.6718 151.345 96.6718 153.274C96.6718 155.204 98.2323 156.768 100.157 156.768Z" fill="#FF2718"/>
<path d="M96.2241 153.274L97.3905 150.827C98.0415 149.481 103.982 138.904 110.139 138.143C111.427 137.979 113.34 138.238 115.103 140.372C116.378 141.909 115.713 142.711 115.415 143.649C113.706 148.992 100.401 152.159 98.8416 152.581L96.2241 153.274ZM110.695 139.298C110.573 139.298 110.451 139.312 110.342 139.325C107.332 139.692 103.48 144.913 100.998 149.332C106.233 147.646 112.675 144.804 113.489 142.248C113.597 141.895 113.652 141.392 113.068 140.671C112.133 139.529 111.305 139.298 110.695 139.298Z" fill="#FF2718"/>
<path d="M113.068 140.671C112.133 139.529 111.305 139.298 110.681 139.298C110.559 139.298 110.437 139.312 110.342 139.326C108.023 139.611 105.189 142.792 102.883 146.259C105.094 143.105 107.671 140.359 109.813 140.1C109.922 140.087 110.03 140.073 110.166 140.073C110.776 140.073 111.604 140.304 112.553 141.446C113.136 142.167 113.082 142.656 112.973 143.023C112.946 143.119 112.906 143.227 112.851 143.323C113.163 142.955 113.394 142.602 113.502 142.235C113.611 141.881 113.665 141.378 113.068 140.671Z" fill="#B63025"/>
<path d="M100.822 153.274L98.2042 152.581C96.6446 152.159 82.8653 148.353 81.1701 143.01C80.8717 142.058 80.7767 140.617 82.0516 139.067C83.8147 136.933 85.727 136.674 87.0154 136.837C93.1862 137.599 99.018 149.481 99.6554 150.841L100.822 153.274ZM86.3508 139.298C85.7405 139.298 84.8997 139.529 83.9639 140.671C83.3671 141.392 83.4349 141.881 83.5434 142.248C84.3572 144.818 90.7992 147.646 96.0343 149.332C93.7965 145.375 89.9448 139.733 86.7034 139.325C86.5949 139.312 86.4729 139.298 86.3508 139.298Z" fill="#FF2718"/>
<path d="M95.6139 148.611C90.8806 146.898 85.9304 144.478 85.2116 142.249C85.1031 141.895 85.0353 141.392 85.6321 140.672C86.2152 139.965 86.7577 139.611 87.2324 139.448C87.0425 139.394 86.8662 139.353 86.6899 139.339C86.5814 139.326 86.4729 139.312 86.3509 139.312C85.727 139.312 84.8997 139.543 83.9639 140.685C83.3807 141.406 83.435 141.895 83.5435 142.262C84.3572 144.832 90.7993 147.66 96.0343 149.345C95.8987 149.087 95.7631 148.856 95.6139 148.611Z" fill="#B63025"/>
<path d="M117.87 152.146H91.6266V181.267H117.87V152.146Z" fill="#D19304"/>
<path d="M91.6402 152.146H76.3148V181.267H91.6402V152.146Z" fill="#D19304"/>
<path d="M91.6402 152.146H76.3148V181.267H91.6402V152.146Z" fill="#FFC628"/>
<path d="M106.694 152.146H102.802V181.267H106.694V152.146Z" fill="#FF2718"/>
<path d="M85.3608 152.146H82.5941V181.267H85.3608V152.146Z" fill="#FF2718"/>
<path d="M126.373 159.841C126.278 159.787 126.169 159.691 126.088 159.583C126.007 159.46 125.939 159.324 125.912 159.202C125.898 159.148 125.898 159.052 125.898 159.052V159.039V159.025V158.971V158.849L125.885 158.617V158.155C125.885 157.856 125.885 157.543 125.898 157.244C125.925 156.632 125.966 156.021 126.047 155.409C126.21 154.185 126.468 152.962 126.983 151.752C127.254 151.154 127.593 150.555 128.068 150.025C128.529 149.495 129.153 149.019 129.858 148.761C130.564 148.489 131.323 148.421 132.015 148.489C132.191 148.502 132.354 148.543 132.53 148.57C132.612 148.584 132.706 148.598 132.788 148.611L133.032 148.679C133.195 148.72 133.357 148.761 133.52 148.815C133.683 148.87 133.832 148.924 133.995 148.992C134.307 149.114 134.632 149.277 134.958 149.495C135.27 149.712 135.595 149.998 135.853 150.406C136.111 150.814 136.219 151.344 136.192 151.793C136.165 152.255 136.029 152.649 135.866 152.989C135.704 153.329 135.514 153.614 135.31 153.886C135.107 154.158 134.89 154.403 134.673 154.634C134.239 155.096 133.778 155.518 133.303 155.912C132.367 156.687 131.377 157.38 130.374 158.033C129.872 158.359 129.37 158.672 128.855 158.971C128.597 159.12 128.339 159.27 128.082 159.42L127.688 159.637L127.485 159.746L127.39 159.8L127.336 159.827L127.295 159.855C127.214 159.895 127.119 159.923 126.997 159.95C126.766 159.977 126.522 159.923 126.373 159.841ZM127.295 158.223C127.159 158.128 126.942 158.074 126.739 158.101C126.644 158.114 126.549 158.142 126.468 158.182C126.414 158.21 126.441 158.196 126.441 158.196L126.481 158.169L126.576 158.114L126.766 158.019L127.146 157.815C127.39 157.679 127.648 157.53 127.892 157.394C128.38 157.108 128.868 156.796 129.357 156.497C130.319 155.871 131.242 155.219 132.096 154.512C132.517 154.158 132.923 153.777 133.29 153.397C133.642 153.016 133.954 152.595 134.13 152.214C134.212 152.024 134.266 151.847 134.266 151.725C134.266 151.602 134.253 151.534 134.185 151.439C134.076 151.262 133.71 150.99 133.249 150.827C133.14 150.773 133.018 150.746 132.896 150.705L132.53 150.61L132.354 150.555C132.3 150.542 132.232 150.542 132.178 150.528C132.055 150.515 131.947 150.487 131.825 150.474C131.364 150.433 130.93 150.474 130.55 150.623C130.17 150.773 129.818 151.018 129.519 151.358C129.221 151.697 128.963 152.119 128.746 152.595C128.326 153.533 128.095 154.62 127.946 155.708C127.865 156.252 127.824 156.809 127.797 157.367C127.783 157.652 127.77 157.924 127.77 158.21V158.631V158.835V158.93V158.985V158.998C127.77 158.998 127.77 158.903 127.756 158.862C127.729 158.74 127.675 158.617 127.593 158.509C127.499 158.346 127.39 158.264 127.295 158.223Z" fill="#E3A610"/>
<path d="M126.237 158.006C125.993 158.114 125.722 158.454 125.668 158.767C125.613 159.161 125.654 158.876 125.641 158.957V158.944V158.916V158.848V158.726L125.627 158.468L125.6 157.938C125.573 157.584 125.559 157.231 125.532 156.891C125.478 156.197 125.41 155.49 125.315 154.811C125.274 154.471 125.207 154.131 125.152 153.791C125.098 153.451 125.03 153.125 124.949 152.785C124.786 152.132 124.61 151.493 124.366 150.895C124.122 150.311 123.837 149.753 123.498 149.277C123.172 148.802 122.779 148.38 122.277 148.081C121.775 147.782 121.151 147.632 120.487 147.646C119.836 147.659 119.144 147.836 118.534 148.108C118.385 148.176 118.236 148.258 118.1 148.339C117.964 148.421 117.829 148.516 117.72 148.611C117.49 148.802 117.313 149.033 117.246 149.237C117.164 149.44 117.191 149.631 117.259 149.821C117.313 150.011 117.449 150.229 117.612 150.447C117.937 150.882 118.385 151.33 118.859 151.779C119.334 152.228 119.849 152.676 120.392 153.111C121.477 153.968 122.63 154.783 123.81 155.599L124.691 156.197L125.586 156.796L126.481 157.394L126.929 157.693L127.146 157.842L127.254 157.91L127.309 157.951C127.295 157.951 127.336 157.965 127.268 157.938C127.173 157.897 127.065 157.856 126.929 157.842C126.685 157.815 126.4 157.897 126.237 158.006ZM127.39 160.058C127.2 160.154 126.902 160.235 126.631 160.194C126.495 160.181 126.373 160.126 126.264 160.086C126.197 160.045 126.224 160.072 126.21 160.058H126.197L126.129 160.031L125.993 159.977L125.736 159.868C125.559 159.787 125.396 159.705 125.22 159.623C124.881 159.46 124.542 159.297 124.217 159.12C123.877 158.944 123.552 158.767 123.226 158.577C122.901 158.386 122.576 158.209 122.25 158.006C120.962 157.217 119.727 156.347 118.548 155.327C117.964 154.811 117.381 154.28 116.866 153.655C116.35 153.03 115.876 152.309 115.564 151.425C115.415 150.977 115.306 150.487 115.333 149.944C115.36 149.4 115.55 148.842 115.876 148.421C116.188 147.999 116.567 147.714 116.947 147.51C117.327 147.292 117.693 147.129 118.073 146.993C118.819 146.721 119.565 146.517 120.365 146.382C121.165 146.259 122.033 146.232 122.901 146.45C123.769 146.667 124.596 147.156 125.22 147.782C125.858 148.407 126.319 149.141 126.671 149.889C127.024 150.637 127.295 151.398 127.485 152.173C127.688 152.948 127.824 153.709 127.919 154.484C128.014 155.259 128.068 156.021 128.082 156.796C128.082 157.176 128.082 157.557 128.068 157.951C128.055 158.142 128.055 158.332 128.041 158.522L128.014 158.808L128 158.957L127.987 159.039V159.08V159.093L127.96 159.297C127.905 159.596 127.634 159.936 127.39 160.058Z" fill="#E3A610"/>
<path d="M127.616 159.647C128.654 159.216 129.147 158.023 128.717 156.982C128.287 155.942 127.097 155.448 126.059 155.879C125.021 156.31 124.528 157.503 124.958 158.543C125.388 159.584 126.578 160.078 127.616 159.647Z" fill="#E3A610"/>
<path d="M139.515 159.814H114.14V181.267H139.515V159.814Z" fill="#3B8DEF"/>
<path d="M141.861 158.563H111.807V165.32H141.861V158.563Z" fill="#3B8DEF"/>
<path d="M128.868 165.32H124.8V181.267H128.868V165.32Z" fill="#E3A610"/>
<path d="M128.868 158.577H124.8V165.32H128.868V158.577Z" fill="#E3A610"/>
<path opacity="0.4" d="M139.515 165.32H114.14V167.74H139.515V165.32Z" fill="#5C5858"/>
<path d="M64.1088 172.036C64.0003 173.994 64.5563 176.251 63.824 176.917L65.7498 178.44L68.9912 178.004C68.9912 178.004 67.4587 175.911 67.1332 172.335L64.1088 172.036Z" fill="#EEB69E"/>
<path d="M68.8691 176.794C68.8691 176.794 66.5906 179.01 63.9324 176.794L59.4298 178.317C58.6703 178.575 58.2092 179.5 58.399 180.397C58.5075 180.914 58.9008 181.267 59.3484 181.267H68.6928C69.2624 181.267 69.7506 180.791 69.8456 180.139C69.9947 179.16 69.1946 178.004 68.8691 176.794Z" fill="#1F212F"/>
<path d="M49.9498 172.077C49.8413 174.034 50.0854 176.25 49.3666 176.917L51.2924 178.439L54.5338 178.004C54.5338 178.004 53.598 176.033 53.2589 172.457L49.9498 172.077Z" fill="#EEB69E"/>
<path d="M54.3983 176.794C54.3983 176.794 52.1198 179.01 49.4616 176.794L44.9589 178.317C44.1994 178.575 43.7383 179.5 43.9282 180.397C44.0367 180.914 44.43 181.267 44.8776 181.267H54.2219C54.7916 181.267 55.2798 180.791 55.3747 180.139C55.5239 179.16 54.7237 178.004 54.3983 176.794Z" fill="#1F212F"/>
<path d="M48.797 116.499L48.9597 145.566L49.3666 175.245H54.0998L56.2698 146.178L59.3891 116.825L48.797 116.499Z" fill="#1F212F"/>
<path d="M52.1333 114.473L53.0962 125.186L56.5953 147.578L63.607 174.728L68.2995 174.66L64.7462 147.782L64.597 127.81C64.9496 123.745 63.9053 119.789 62.088 116.105L52.1333 114.473Z" fill="#2B2E3F"/>
<path d="M64.1766 118.715C64.0274 119.15 63.6477 119.504 63.1594 119.64C59.0229 120.782 52.1062 119.993 49.0547 119.544C48.8106 119.504 48.6071 119.409 48.4444 119.259C48.1324 118.987 47.9968 118.566 48.1189 118.144C48.8512 115.629 48.5122 110.463 48.1731 107.078C47.9833 105.174 47.7934 103.842 47.7934 103.842C45.9625 102.36 44.7419 100.402 44.4435 98.2813C44.3486 97.6152 44.3486 96.9354 44.4435 96.2556L44.8097 89.757L46.0981 89.0773L55.7137 87.3643L60.4063 89.5123C60.5283 91.6604 60.6911 93.8085 60.8674 95.9157C60.9352 96.6635 61.003 97.3976 61.0708 98.1318C61.8303 106.153 62.9289 113.467 64.1901 117.831C64.2851 118.158 64.2715 118.457 64.1766 118.715Z" fill="#3B8DEF"/>
<path d="M58.277 86.9426C56.5817 83.5846 55.5103 80.1721 54.9135 76.4062C54.7643 75.4817 54.6423 74.5029 54.0862 73.7415C53.4352 72.8442 52.3231 72.4092 51.2517 72.1781C50.0854 71.9334 48.8376 71.8654 47.6984 72.246C46.8304 72.5315 45.5284 73.6328 45.5284 73.6328C45.5284 73.6328 44.0637 74.1494 43.6975 74.7068C42.9516 75.8488 42.9245 77.2899 43.2771 78.6087C44.3621 82.7417 43.5348 85.4607 42.9109 86.7523C42.6668 87.2553 42.9381 87.8535 43.467 88.0167C45.6776 88.6692 47.4543 88.3158 50.0311 88.139C52.5401 87.9623 55.0763 87.6904 57.5582 87.9759C58.1278 88.0438 58.5346 87.4457 58.277 86.9426ZM54.0998 79.5196C54.0862 79.3428 54.0727 79.1797 54.0455 79.0029C54.0727 79.1661 54.0862 79.3428 54.0998 79.5196ZM53.9506 78.9078C53.72 78.7038 53.4488 78.5407 53.164 78.4047C53.0826 78.364 53.0012 78.3368 52.9199 78.3096C53.0012 78.3368 53.0826 78.3776 53.164 78.4047C53.4352 78.5407 53.7065 78.7038 53.9506 78.9078ZM50.994 77.725C51.1703 77.7794 51.3602 77.8337 51.5365 77.8881C51.3467 77.8337 51.1703 77.7794 50.994 77.725C50.8177 77.6706 50.6279 77.589 50.4651 77.5074C50.5465 77.5482 50.6414 77.589 50.7364 77.6162C50.8042 77.657 50.8991 77.6842 50.994 77.725ZM52.8521 78.2824C52.7978 78.2552 52.73 78.2416 52.6622 78.2144C52.73 78.2416 52.7978 78.2688 52.8521 78.2824ZM52.6079 78.2008C52.5266 78.1736 52.4588 78.1464 52.3774 78.1328C52.4452 78.1464 52.5266 78.1736 52.6079 78.2008ZM52.3503 78.1192C52.2689 78.092 52.2011 78.0785 52.1197 78.0513C52.1875 78.0649 52.2689 78.092 52.3503 78.1192ZM51.9976 78.0105C51.957 77.9969 51.9027 77.9833 51.862 77.9697C51.9027 77.9969 51.957 77.9969 51.9976 78.0105ZM51.5636 85.787C51.5365 85.8142 51.5094 85.8278 51.4687 85.8414C51.5094 85.8278 51.5365 85.8006 51.5636 85.787ZM51.3467 85.923C51.306 85.9502 51.2788 85.9638 51.2382 85.9774C51.2788 85.9638 51.3195 85.9366 51.3467 85.923ZM51.1297 86.0453C51.089 86.0589 51.0618 86.0861 51.0212 86.0997C51.0618 86.0861 51.089 86.0725 51.1297 86.0453ZM50.8991 86.1677C50.8584 86.1813 50.8177 86.2085 50.777 86.2221C50.8177 86.1949 50.8584 86.1813 50.8991 86.1677ZM50.4109 86.3444C50.3837 86.358 50.343 86.358 50.3159 86.3716C50.343 86.3716 50.3702 86.358 50.4109 86.3444ZM50.1939 77.3715C50.2752 77.4123 50.3566 77.4667 50.4515 77.5074C50.3702 77.4667 50.2752 77.4259 50.1939 77.3715ZM49.4751 76.8141C49.4479 76.7869 49.4208 76.7597 49.3937 76.7189C49.4208 76.7461 49.4479 76.7869 49.4751 76.8141ZM49.9769 77.2355C49.9226 77.1948 49.8548 77.154 49.8006 77.1132C49.8548 77.154 49.9091 77.1948 49.9769 77.2355ZM49.6107 76.95C49.57 76.9093 49.5429 76.8821 49.5022 76.8413C49.5429 76.8821 49.5836 76.9228 49.6107 76.95ZM46.2472 78.2688C47.2915 78.0513 48.1731 77.3851 49.1903 76.4198C48.9597 77.4531 47.9561 78.1736 46.9118 78.3911C46.2337 78.5271 45.5284 78.4999 44.8368 78.4047C45.4606 78.4727 45.5691 78.4047 46.2472 78.2688ZM48.4443 86.4124C48.4172 86.4124 48.3901 86.3988 48.363 86.3988C48.3901 86.3988 48.4172 86.3988 48.4443 86.4124ZM48.2273 86.3444C48.1866 86.3308 48.1595 86.3308 48.1188 86.3172C48.1595 86.3308 48.2002 86.3444 48.2273 86.3444ZM47.7933 86.1949C47.7527 86.1813 47.712 86.1541 47.6713 86.1405C47.712 86.1541 47.7527 86.1677 47.7933 86.1949ZM47.5763 86.0861C47.5357 86.0589 47.495 86.0453 47.4543 86.0181C47.495 86.0453 47.5357 86.0725 47.5763 86.0861ZM47.3594 85.9638C47.3187 85.9366 47.278 85.923 47.2373 85.8958C47.278 85.923 47.3187 85.9502 47.3594 85.9638ZM44.4977 80.1993C44.4977 79.8866 44.5113 79.5739 44.552 79.2748C44.5791 78.9757 44.6333 78.6766 44.7011 78.3911C44.5791 78.9621 44.4977 79.5739 44.4977 80.1993C44.4977 80.2809 44.4977 80.3761 44.4977 80.4576C44.4977 80.4304 44.4977 80.4033 44.4977 80.3761C44.4977 80.3217 44.4977 80.2673 44.4977 80.1993ZM44.5113 80.58C44.5113 80.648 44.5248 80.716 44.5248 80.7703C44.5248 80.7431 44.5248 80.7024 44.5113 80.6752C44.5113 80.648 44.5113 80.6072 44.5113 80.58ZM44.5655 81.2598C44.5791 81.3277 44.5791 81.3957 44.5926 81.4637C44.5926 81.4229 44.5791 81.3821 44.5791 81.3549C44.5791 81.3142 44.5791 81.287 44.5655 81.2598ZM44.5384 80.9199C44.5384 80.9743 44.552 81.0287 44.552 81.083C44.5384 81.0287 44.5384 80.9743 44.5384 80.9199ZM44.674 81.9123C44.6605 81.8716 44.6605 81.8308 44.6469 81.79C44.6469 81.7628 44.6333 81.7356 44.6333 81.6948C44.6333 81.6676 44.6198 81.6268 44.6198 81.5997C44.6198 81.5589 44.6062 81.5317 44.6062 81.4909C44.6333 81.6812 44.674 81.8852 44.7147 82.0755C44.7147 82.0619 44.7147 82.0619 44.7147 82.0483C44.7012 81.9939 44.6876 81.9531 44.674 81.9123ZM44.7418 82.1843C44.7283 82.1571 44.7283 82.1299 44.7283 82.1027C44.7554 82.1843 44.769 82.2794 44.7961 82.361C44.7961 82.3474 44.7825 82.3338 44.7825 82.3066C44.769 82.2658 44.7554 82.225 44.7418 82.1843ZM44.7961 82.3882C44.8232 82.4698 44.8503 82.5649 44.8775 82.6465C44.8775 82.6329 44.8775 82.6329 44.8639 82.6193C44.8503 82.5377 44.8232 82.4698 44.7961 82.3882ZM44.891 82.7009C44.891 82.6873 44.8775 82.6737 44.8775 82.6601C44.9046 82.7417 44.9317 82.8232 44.9588 82.9184C44.9588 82.9048 44.9453 82.8912 44.9453 82.8776C44.9317 82.8232 44.9181 82.7689 44.891 82.7009ZM45.0538 83.1359C45.0402 83.0951 45.0266 83.0544 45.0131 83.0136C44.9995 83 44.9995 82.9728 44.986 82.9592C45.0131 83.0408 45.0538 83.1223 45.0809 83.2039C45.0809 83.1903 45.0673 83.1767 45.0673 83.1631C45.0538 83.1495 45.0538 83.1359 45.0538 83.1359ZM45.108 83.2719C45.108 83.2583 45.0945 83.2447 45.0945 83.2311C45.1216 83.2991 45.1623 83.3806 45.1894 83.4486C45.1894 83.435 45.1758 83.435 45.1758 83.4214C45.1487 83.367 45.1351 83.3127 45.108 83.2719ZM45.2301 83.5302C45.2301 83.5166 45.2165 83.503 45.2165 83.4894C45.2436 83.5574 45.2843 83.6254 45.3115 83.6933C45.3115 83.6797 45.2979 83.6661 45.2843 83.6525C45.2708 83.6118 45.2436 83.571 45.2301 83.5302ZM45.3521 83.7749C45.3521 83.7613 45.3386 83.7613 45.3386 83.7477C45.3793 83.8157 45.4064 83.8837 45.4471 83.9516C45.4335 83.9381 45.4335 83.9245 45.4199 83.9109C45.4064 83.8701 45.3793 83.8293 45.3521 83.7749ZM45.5556 84.1284C45.5284 84.0876 45.5149 84.0604 45.4878 84.0196C45.4878 84.0196 45.4878 84.0196 45.4878 84.006C45.4878 83.9924 45.4742 83.9924 45.4742 83.9788C45.5149 84.0468 45.5556 84.1148 45.5963 84.1828C45.5827 84.1692 45.5827 84.1556 45.5691 84.142C45.5556 84.142 45.5556 84.142 45.5556 84.1284ZM45.6234 84.2371C45.6641 84.3051 45.7048 84.3731 45.7454 84.4275C45.7048 84.3731 45.6641 84.3187 45.6234 84.2371C45.6234 84.2507 45.6234 84.2507 45.6234 84.2371ZM45.759 84.4547C45.7726 84.4819 45.7861 84.4955 45.7997 84.5227C45.7861 84.5091 45.7861 84.4955 45.7726 84.4819C45.7726 84.4683 45.759 84.4547 45.759 84.4547ZM45.976 84.7538C45.9624 84.7402 45.9624 84.7266 45.9489 84.7266C46.0302 84.8353 46.1252 84.9441 46.2201 85.0393C46.2066 85.0257 46.193 85.0121 46.1794 84.9985C46.1116 84.9169 46.0438 84.8354 45.976 84.7538ZM46.3151 85.148C46.3015 85.1344 46.2879 85.1209 46.2879 85.1073C46.3286 85.148 46.3693 85.1888 46.41 85.2432C46.3964 85.2432 46.3964 85.2296 46.3829 85.2296C46.3693 85.1888 46.3422 85.1616 46.3151 85.148ZM46.6812 85.4879C46.7219 85.5287 46.7626 85.5559 46.8033 85.5967C46.7897 85.5831 46.7762 85.5695 46.7626 85.5559C46.7355 85.5287 46.7084 85.5015 46.6812 85.4879ZM46.8304 85.6103C46.8575 85.6239 46.8711 85.6511 46.8982 85.6647C46.8847 85.6511 46.8575 85.6375 46.8304 85.6103ZM49.0953 86.5076C49.1767 86.5076 49.2445 86.5212 49.3259 86.5212C49.3937 86.5212 49.4751 86.5212 49.5429 86.5076C49.4751 86.5076 49.3937 86.5212 49.3259 86.5212C49.2445 86.5076 49.1631 86.5076 49.0953 86.5076ZM48.8648 86.4804C48.919 86.494 48.9868 86.494 49.0411 86.494C48.9733 86.494 48.919 86.494 48.8648 86.4804ZM49.5836 86.5076C49.6242 86.5076 49.6649 86.494 49.7056 86.494C49.6785 86.494 49.6378 86.5076 49.6107 86.5076C49.6107 86.5076 49.5971 86.5076 49.5836 86.5076ZM49.8277 86.4804C49.8684 86.4804 49.9091 86.4668 49.9633 86.4532C49.9091 86.4668 49.8684 86.4668 49.8277 86.4804ZM50.0718 86.4396C50.0854 86.4396 50.0989 86.4396 50.0989 86.426C50.0854 86.426 50.0854 86.4396 50.0718 86.4396ZM51.9298 85.5015C51.9434 85.4879 51.957 85.4743 51.9841 85.4607L51.9705 85.4743C51.957 85.4743 51.9434 85.4879 51.9298 85.5015ZM51.6993 85.6783C51.7264 85.6647 51.74 85.6375 51.7671 85.6239C51.7535 85.6511 51.7264 85.6647 51.6993 85.6783ZM52.1739 85.284C52.1333 85.3248 52.079 85.3792 52.0383 85.4199C52.079 85.3656 52.1197 85.3248 52.1739 85.284ZM52.2146 85.2432C52.2553 85.2024 52.3096 85.148 52.3503 85.1073C52.3367 85.1209 52.3231 85.1344 52.3231 85.1344C52.2824 85.1752 52.2553 85.2024 52.2146 85.2432ZM52.4316 85.0121C52.4181 85.0257 52.4181 85.0393 52.4045 85.0393C52.4588 84.9849 52.4994 84.9305 52.5537 84.8761C52.5537 84.8761 52.5537 84.8761 52.5537 84.8897C52.4994 84.9305 52.4588 84.9713 52.4316 85.0121ZM52.7436 84.6314C52.7842 84.5906 52.8249 84.5227 52.8521 84.4683C52.8521 84.4819 52.8385 84.4819 52.8385 84.4955C52.8114 84.5363 52.7707 84.5906 52.7436 84.6314ZM52.9334 84.3595C52.9199 84.3867 52.9063 84.4003 52.8927 84.4275C52.9199 84.3867 52.947 84.3459 52.9741 84.3051C52.9606 84.3187 52.947 84.3323 52.9334 84.3595ZM53.0962 84.1012C53.0826 84.1148 53.0826 84.1284 53.0691 84.142C53.0962 84.1012 53.1233 84.0468 53.1504 84.006C53.1369 84.0196 53.1369 84.0332 53.1233 84.0468C53.1233 84.074 53.1097 84.0876 53.0962 84.1012ZM53.1776 83.9516C53.2182 83.8837 53.2589 83.8157 53.2861 83.7477C53.2861 83.7477 53.2861 83.7477 53.2861 83.7613C53.2589 83.8293 53.2182 83.8973 53.1776 83.9516ZM53.3946 83.5574C53.381 83.5846 53.3674 83.6254 53.3403 83.6525C53.3267 83.6661 53.3267 83.6797 53.3132 83.6933C53.3539 83.6254 53.381 83.5574 53.4081 83.4894C53.4081 83.503 53.3946 83.5166 53.3946 83.5166C53.3946 83.5438 53.3946 83.5438 53.3946 83.5574ZM53.5709 83.1495C53.5709 83.1631 53.5709 83.1631 53.5573 83.1631C53.5844 83.0951 53.6115 83.0136 53.6387 82.932C53.6251 83.0136 53.598 83.0815 53.5709 83.1495ZM53.7065 82.796C53.6929 82.8368 53.6794 82.8776 53.6658 82.9184C53.6929 82.8504 53.72 82.7689 53.7472 82.7009C53.72 82.7281 53.72 82.7553 53.7065 82.796ZM53.7607 82.6329C53.7879 82.5513 53.815 82.4698 53.8285 82.4018V82.4154C53.8014 82.4969 53.7743 82.5649 53.7607 82.6329ZM53.9642 81.8444C53.9506 81.9123 53.937 81.9667 53.9235 82.0347V82.0483C53.937 81.9667 53.9642 81.8716 53.9777 81.79C53.9642 81.8036 53.9642 81.8172 53.9642 81.8444ZM53.8557 82.3202C53.8692 82.2522 53.8964 82.1843 53.9099 82.1163C53.8828 82.1843 53.8692 82.2522 53.8557 82.3202ZM54.0049 81.654C54.0049 81.6812 53.9913 81.722 53.9913 81.7492C54.0049 81.6676 54.0184 81.5861 54.032 81.5045C54.0184 81.5453 54.0184 81.5997 54.0049 81.6404C54.0049 81.6404 54.0049 81.6404 54.0049 81.654ZM54.0591 81.2734C54.0591 81.3277 54.0455 81.3821 54.032 81.4365V81.4501V81.4637C54.0455 81.3685 54.0591 81.287 54.0727 81.1918C54.0727 81.2054 54.0727 81.219 54.0727 81.219C54.0591 81.2326 54.0591 81.2462 54.0591 81.2734ZM54.0727 81.1238C54.0862 81.0558 54.0862 80.9879 54.0998 80.9063C54.0998 80.9607 54.0862 81.015 54.0862 81.0694C54.0862 81.083 54.0727 81.0966 54.0727 81.1238ZM54.0998 80.8247C54.0998 80.8383 54.0998 80.8383 54.0998 80.8247C54.0998 80.7431 54.1133 80.6616 54.1133 80.58C54.1133 80.6072 54.1133 80.6208 54.1133 80.648C54.1133 80.7024 54.1133 80.7703 54.0998 80.8247ZM54.1269 80.3761C54.1269 80.4169 54.1269 80.444 54.1269 80.4848C54.1269 80.3897 54.1269 80.2945 54.1269 80.1993C54.1269 80.077 54.1269 79.9546 54.1133 79.8323C54.1133 79.9546 54.1269 80.077 54.1269 80.1993C54.1269 80.2537 54.1269 80.3217 54.1269 80.3761Z" fill="#021927"/>
<path d="M50.7228 77.0723C50.8178 77.1131 50.8991 77.1402 50.9941 77.1674C51.1704 77.2218 51.3603 77.2762 51.5366 77.3306C51.3467 77.2762 51.1704 77.2218 50.9941 77.1674C50.8991 77.1402 50.8042 77.0995 50.7228 77.0723ZM44.552 78.7173C44.5927 78.4182 44.6334 78.1191 44.7012 77.8336C44.6334 78.1191 44.5927 78.4046 44.552 78.7173Z" fill="#021927"/>
<path d="M47.9426 88.3837C48.0646 88.0846 48.1596 87.8263 48.2409 87.5816C48.4173 87.0106 48.4579 86.5483 48.3901 85.8414C48.3223 85.2432 48.1731 84.4546 47.9561 83.2583C47.9561 83.2447 47.9561 83.2447 47.9561 83.2311L52.9064 80.9062C52.9064 80.9062 52.9335 81.0966 52.9877 81.4093C53.0555 81.8307 53.164 82.4833 53.3132 83.2039C53.4217 83.7613 53.5438 84.3595 53.6794 84.9305C53.9642 86.1269 54.3033 87.2145 54.6288 87.5408C55.4696 88.3837 47.278 89.988 47.9426 88.3837Z" fill="#EF907C"/>
<path opacity="0.3" d="M48.2408 87.5817C48.4171 87.0107 48.4578 86.5485 48.39 85.8415C47.4 85.5832 46.532 84.9442 45.8539 84.0333L47.9425 83.2584L52.9741 81.4094L53.069 81.3687L53.503 82.769C53.4352 82.9185 53.3674 83.0681 53.2996 83.204C53.4081 83.7614 53.5301 84.3596 53.6657 84.9306C52.3909 86.0591 49.6106 87.1059 48.2408 87.5817Z" fill="#666666"/>
<path d="M53.5573 79.642C53.5573 79.6963 53.5573 79.7643 53.5573 79.8187C53.5573 79.8595 53.5573 79.9003 53.5573 79.9411C53.5573 79.9954 53.5573 80.0498 53.5573 80.0906C53.5573 80.1586 53.5573 80.213 53.5437 80.2809C53.5437 80.3625 53.5302 80.4441 53.5302 80.5121C53.5302 80.5665 53.5166 80.6208 53.5166 80.6616C53.5166 80.6752 53.5166 80.6888 53.5166 80.716C53.5166 80.7704 53.503 80.8248 53.503 80.8791V80.8927C53.4895 80.9471 53.4895 81.0151 53.4759 81.0695C53.4759 81.0831 53.4759 81.0831 53.4759 81.0967C53.4624 81.1646 53.4488 81.219 53.4488 81.287C53.4488 81.287 53.4488 81.287 53.4488 81.3006C53.4352 81.3686 53.4217 81.423 53.4081 81.4909C53.381 81.6133 53.3539 81.7492 53.3267 81.8716C53.2996 81.994 53.2589 82.1163 53.2182 82.2387C53.2182 82.2387 53.2182 82.2387 53.2182 82.2523C53.1775 82.3746 53.1369 82.4834 53.1097 82.6058C53.0826 82.6601 53.0691 82.7281 53.0419 82.7825C53.0148 82.8505 52.9877 82.9185 52.9606 82.9864C52.9606 83 52.947 83 52.947 83.0136C52.9334 83.0408 52.9199 83.0816 52.9063 83.1088C52.8927 83.1496 52.8792 83.1768 52.8521 83.2175C52.8114 83.3127 52.7571 83.4215 52.7029 83.5166C52.6893 83.5302 52.6893 83.5438 52.6757 83.5574C52.6351 83.639 52.5808 83.7342 52.5266 83.8157C52.4994 83.8565 52.4723 83.9109 52.4452 83.9517C52.4181 83.9925 52.3909 84.0469 52.3638 84.0877C52.3096 84.1828 52.2418 84.2644 52.1875 84.346C52.1604 84.3868 52.1197 84.4275 52.0926 84.4683C52.0654 84.5091 52.0248 84.5499 51.9976 84.5907C51.9705 84.6315 51.9298 84.6722 51.9027 84.713C51.8349 84.7946 51.7671 84.8626 51.6993 84.9306C51.211 85.42 50.6414 85.7599 50.0311 85.8958C49.8955 85.923 49.7734 85.9502 49.6378 85.9638C49.5429 85.9774 49.4615 85.9774 49.3666 85.9774C49.1496 85.9774 48.9461 85.9502 48.7427 85.9094C48.6749 85.8958 48.6071 85.8822 48.5393 85.855C48.051 85.7191 47.5899 85.4472 47.183 85.0801C47.1559 85.0529 47.1423 85.0393 47.1152 85.0121C47.0067 84.9034 46.8982 84.7946 46.7897 84.6722C46.7626 84.6451 46.749 84.6179 46.7219 84.6043C46.6812 84.5499 46.6405 84.5091 46.5999 84.4547C46.5456 84.3732 46.4778 84.2916 46.4235 84.21C46.3829 84.1556 46.3422 84.1012 46.315 84.0469C46.2879 84.0061 46.2744 83.9789 46.2472 83.9381C46.2066 83.8701 46.1523 83.7886 46.1116 83.7206C46.0981 83.6798 46.0709 83.6526 46.0574 83.6118C46.0574 83.6118 46.0574 83.5982 46.0438 83.5982C46.0302 83.5574 46.0031 83.5302 45.9896 83.4895C45.9896 83.4895 45.9896 83.4895 45.9896 83.4759C45.976 83.4487 45.9624 83.4079 45.9353 83.3807C45.9082 83.3399 45.8946 83.2855 45.8675 83.2311C45.8539 83.1904 45.8268 83.1496 45.8132 83.1088C45.7997 83.068 45.7726 83.0272 45.759 82.9864C45.7454 82.9456 45.7319 82.9184 45.7183 82.8777C45.6912 82.8233 45.6776 82.7689 45.6641 82.7281C45.6505 82.6873 45.6369 82.6601 45.6234 82.6194C45.6234 82.6058 45.6234 82.6058 45.6098 82.5922C45.5962 82.5514 45.5827 82.5106 45.5691 82.4698C45.5556 82.429 45.542 82.3746 45.5284 82.3338C45.5149 82.2795 45.4878 82.2115 45.4742 82.1571C45.4606 82.1299 45.4606 82.1027 45.4471 82.0755C45.4199 81.9668 45.3928 81.8716 45.3657 81.7628C45.3521 81.7221 45.3521 81.6813 45.3386 81.6405C45.325 81.5861 45.3114 81.5453 45.3114 81.4909C45.2979 81.4502 45.2979 81.4094 45.2843 81.355C45.2708 81.3142 45.2708 81.2734 45.2572 81.2326C45.2572 81.2054 45.2436 81.1782 45.2436 81.1375C45.2436 81.1103 45.2301 81.0695 45.2301 81.0423C45.2301 81.0015 45.2165 80.9607 45.2165 80.9199C45.2165 80.8791 45.2029 80.8384 45.2029 80.7976C45.1758 80.58 45.1623 80.3489 45.1487 80.1314C45.1487 80.0362 45.1351 79.9411 45.1351 79.8459C45.1351 79.7779 45.1351 79.7235 45.1351 79.6692C45.1351 79.3565 45.1487 79.0438 45.1758 78.7447C45.2029 78.4456 45.2436 78.1465 45.3114 77.861C45.9624 77.9697 46.0302 77.8882 46.6677 77.7386C47.5899 77.5211 48.3629 76.8549 49.2716 75.8896C49.3666 76.0936 49.5022 76.2839 49.6514 76.4471C49.6785 76.4742 49.7192 76.515 49.7463 76.5422C49.7599 76.5558 49.7734 76.5694 49.8005 76.583C49.909 76.6918 50.0447 76.7733 50.1667 76.8549C50.3159 76.9501 50.4651 77.0317 50.6278 77.0996C50.7092 77.1404 50.7906 77.1676 50.872 77.1948C51.0347 77.2628 51.1975 77.3036 51.3602 77.3579C51.8484 77.5075 52.3367 77.6435 52.7978 77.8882C53.0826 78.0377 53.3539 78.2281 53.5709 78.4728C53.598 78.6631 53.6115 78.867 53.6251 79.0574C53.5573 79.2341 53.5573 79.438 53.5573 79.642Z" fill="#EF907C"/>
<path d="M9.03247 79.2749C9.03247 82.1299 9.60209 85.0257 10.7142 86.127H12.7485C12.8977 85.9774 13.0333 85.8007 13.1554 85.5968C13.9963 84.2644 14.4302 81.7629 14.4302 79.2749C14.4302 76.8006 13.9963 74.299 13.1554 72.9531C13.0333 72.7491 12.8977 72.5724 12.7485 72.4229H10.7142C9.60209 73.5377 9.03247 76.4199 9.03247 79.2749ZM9.96827 79.2749C9.96827 75.3866 11.0126 72.8987 11.7314 72.8987C11.7856 72.8987 11.8399 72.9123 11.8941 72.9395C12.4908 73.225 13.2096 74.9652 13.4266 77.6435C13.4673 78.1465 13.4945 78.6903 13.4945 79.2749C13.4945 79.8459 13.4673 80.3897 13.4266 80.9064C13.2096 83.5982 12.4908 85.3384 11.8941 85.6104C11.8399 85.6375 11.7856 85.6511 11.7314 85.6511C11.0126 85.6511 9.96827 83.1768 9.96827 79.2749Z" fill="#E3A610"/>
<path d="M9.96826 79.2747C9.96826 83.1629 11.0126 85.6509 11.7314 85.6509C11.7856 85.6509 11.8399 85.6373 11.8941 85.6101C12.4908 85.3246 13.2096 83.5844 13.4266 80.9061C13.4673 80.4031 13.4944 79.8593 13.4944 79.2747C13.4944 78.7037 13.4673 78.1598 13.4266 77.6432C13.2096 74.9513 12.4908 73.2111 11.8941 72.9392C11.8399 72.912 11.7856 72.8984 11.7314 72.8984C11.0126 72.8984 9.96826 75.3864 9.96826 79.2747Z" fill="#C2C2C2"/>
<path d="M9.96826 79.2749C9.96826 83.1632 11.0126 85.6511 11.7314 85.6511C11.7856 85.6511 11.8399 85.6375 11.8941 85.6103C12.3417 85.3928 12.8706 84.346 13.1961 82.6601C12.8841 83.6798 12.5044 84.3188 12.1653 84.4819C12.1111 84.5091 12.0568 84.5227 12.0026 84.5227C11.2838 84.5227 10.2395 82.0347 10.2395 78.1465C10.2395 76.8413 10.3616 75.6993 10.5379 74.7612C10.1988 75.8625 9.96826 77.4123 9.96826 79.2749Z" fill="#373333"/>
<path d="M22.2243 84.6265H26.51V82.3288H22.2243V84.6265Z" fill="#3F3D3E"/>
<path d="M27.2872 82.1159H26.7448V76.5146H27.2872C28.8333 76.5146 30.0811 77.7654 30.0811 79.3153C30.0811 80.8652 28.8333 82.1159 27.2872 82.1159Z" fill="#BA0025"/>
<path d="M23.6526 90.1647C24.1273 90.1647 24.5884 89.9472 24.9003 89.5257L26.0531 87.7583C26.4193 87.1873 26.6228 86.5211 26.6228 85.8414V81.2461C26.6228 80.4032 25.9582 79.6691 25.1173 79.6555C24.2629 79.6419 23.5577 80.3352 23.5577 81.1917V85.7326C23.5577 86.0181 23.4627 86.29 23.3 86.5211L22.4456 87.7039C21.9709 88.3565 22.0523 89.281 22.6626 89.7976C22.9474 90.0423 23.3 90.1647 23.6526 90.1647Z" fill="#353535"/>
<path d="M11.8941 85.6103L11.7313 86.1133C12.206 85.923 12.6807 85.7462 13.1554 85.5831C19.0956 83.4894 24.6561 82.6737 26.2701 82.4697C26.5413 82.429 26.7447 82.1978 26.7447 81.9259V76.5966C26.7447 76.3247 26.5413 76.0935 26.2701 76.0527C24.6426 75.8488 19.0821 75.0467 13.1554 72.9394C12.6807 72.7763 12.206 72.5995 11.7313 72.4092L11.8941 72.9122C12.4908 73.1977 13.2096 74.9379 13.4266 77.6162L13.9555 79.2477L13.4266 80.8791C13.2096 83.5982 12.4772 85.3248 11.8941 85.6103Z" fill="white"/>
<g opacity="0.5">
<path d="M26.7448 81.3005V82.1162H27.2872C28.0603 82.1162 28.752 81.8035 29.2673 81.3005C29.7691 80.7975 30.0811 80.0905 30.0811 79.3156C30.0811 79.1796 30.0675 79.0437 30.0539 78.9077C29.959 79.5195 29.6742 80.0633 29.2673 80.4848C28.7655 80.9878 28.0603 81.3005 27.2872 81.3005H26.7448Z" fill="#5C5858"/>
<path d="M11.8941 85.6104L11.7313 86.1135C12.206 85.9231 12.6807 85.7464 13.1554 85.5832C19.0956 83.4895 24.6561 82.6738 26.2701 82.4699C26.5413 82.4291 26.7447 82.198 26.7447 81.9261V81.1104C26.7447 81.3823 26.5413 81.6134 26.2701 81.6542C24.6426 81.8581 19.0956 82.6602 13.1554 84.7675C12.9112 84.8627 12.6536 84.9442 12.3959 85.0394C12.2331 85.3521 12.0568 85.5288 11.8941 85.6104Z" fill="#5C5858"/>
</g>
<path d="M9.03247 79.2744C9.03247 82.1294 9.60209 85.0253 10.7142 86.1265C11.0126 86.4256 11.3516 86.5887 11.7314 86.5887C12.1111 86.5887 12.4502 86.4256 12.7485 86.1265C12.8977 85.9769 13.0333 85.8002 13.1554 85.5963C13.8606 84.4542 14.2811 82.4829 14.3896 80.4028C14.4031 80.0358 14.4167 79.6551 14.4167 79.288C14.4167 78.9209 14.4031 78.5403 14.3896 78.1732C14.2811 76.0795 13.8606 74.1082 13.1554 72.9798C13.0333 72.7758 12.8977 72.5991 12.7485 72.4496C12.4502 72.1505 12.1111 71.9873 11.7314 71.9873C11.3516 71.9873 11.0126 72.1505 10.7142 72.4496C9.60209 73.5372 9.03247 76.4194 9.03247 79.2744ZM9.96827 79.2744C9.96827 75.3861 11.0126 72.8982 11.7314 72.8982C11.7856 72.8982 11.8399 72.9118 11.8941 72.939C12.4908 73.2245 13.2096 74.9647 13.4266 77.643C13.4402 77.8061 13.4538 77.9829 13.4673 78.146C13.4809 78.4995 13.4945 78.8802 13.4945 79.2608C13.4945 79.6415 13.4809 80.0222 13.4673 80.3756C13.4538 80.5524 13.4402 80.7155 13.4266 80.8787C13.2096 83.5706 12.4908 85.3108 11.8941 85.5827C11.8399 85.6099 11.7856 85.6234 11.7314 85.6234C11.0126 85.6506 9.96827 83.1763 9.96827 79.2744Z" fill="#BA0025"/>
<path d="M11.1617 79.2745C11.1617 79.5872 11.2838 79.8591 11.4872 80.063C11.6907 80.2669 11.9619 80.3893 12.2738 80.3893H13.4538C13.4673 80.0358 13.4809 79.6552 13.4809 79.2745C13.4809 78.8938 13.4673 78.5131 13.4538 78.1597H12.2738C11.6635 78.1597 11.1617 78.6627 11.1617 79.2745Z" fill="#373233"/>
<g opacity="0.5">
<path d="M11.1617 79.2748C11.1617 79.5875 11.2838 79.8594 11.4872 80.0633C11.6907 80.2672 11.9619 80.3896 12.2738 80.3896H13.4538C13.4673 80.0361 13.4809 79.6554 13.4809 79.2748C13.4809 79.1796 13.4809 79.098 13.4809 79.0028C13.4809 79.2884 13.4673 79.5603 13.4538 79.8322H12.2738C11.9619 79.8322 11.6907 79.7098 11.4872 79.5059C11.3516 79.3699 11.2431 79.1932 11.1889 78.9893C11.1753 79.0844 11.1617 79.1796 11.1617 79.2748Z" fill="#373233"/>
</g>
<path d="M27.6941 88.3699L27.1245 85.8819L26.5549 84.9846C26.4599 84.8487 26.3108 84.7671 26.1344 84.7671L24.4663 84.8623C24.2493 84.8759 24.1001 85.107 24.195 85.3109C24.3171 85.5964 24.5205 85.9363 24.6019 86.0586C24.629 86.0858 24.6562 86.113 24.6968 86.113H25.6462L25.7276 86.8472L25.375 87.1191C24.5883 87.7445 24.3307 88.8457 24.7511 89.7702L27.7755 88.3699" fill="#EEB69E"/>
<path d="M23.5305 85.855L22.432 85.7462C22.2014 85.719 22.0251 85.5151 22.0387 85.2704L22.0523 85.1616C22.0794 84.9305 22.2828 84.7537 22.5269 84.7673L23.6255 84.8761C23.856 84.9033 24.0323 85.1072 24.0188 85.3519L24.0052 85.4607C23.9781 85.7054 23.7611 85.8822 23.5305 85.855Z" fill="#EEB69E"/>
<path d="M23.2322 86.793L22.1337 86.6842C21.9031 86.657 21.7268 86.4531 21.7404 86.2083L21.7539 86.0996C21.781 85.8685 21.9845 85.6917 22.2286 85.7053L23.3271 85.8141C23.5577 85.8413 23.734 86.0452 23.7204 86.2899L23.7069 86.3987C23.6798 86.6434 23.4628 86.8201 23.2322 86.793Z" fill="#EEB69E"/>
<path d="M23.3543 87.772L22.2557 87.6632C22.0252 87.636 21.8489 87.4321 21.8624 87.1874L21.876 87.0786C21.9031 86.8475 22.1065 86.6707 22.3507 86.6843L23.4492 86.7931C23.6798 86.8203 23.8561 87.0242 23.8425 87.2689L23.829 87.3777C23.7883 87.6224 23.5848 87.7991 23.3543 87.772Z" fill="#EEB69E"/>
<path d="M23.4628 88.6554L22.3643 88.5466C22.1337 88.5194 21.9574 88.3155 21.9709 88.0708C21.9981 87.8397 22.2015 87.6629 22.4456 87.6765L23.5442 87.7853C23.7747 87.8125 23.951 88.0164 23.9375 88.2611C23.9103 88.5058 23.6934 88.669 23.4628 88.6554Z" fill="#EEB69E"/>
<path d="M44.8232 89.784L35.1398 98.5123L27.7619 88.3701L24.6155 89.8384L31.912 102.822C32.5087 104.046 33.987 104.535 35.194 103.896L44.9182 98.4987L44.8232 89.784Z" fill="#3B8DEF"/>
<path d="M47.7662 87.9893C47.7662 87.9893 45.5556 88.2204 45.976 89.1041C46.3965 89.9878 46.844 91.9591 46.844 91.9591L48.7427 89.1041L47.7662 87.9893Z" fill="#144CA2"/>
<path d="M54.7914 87.1328L56.6766 87.5679C56.229 89.8383 52.0654 90.6812 50.3837 91.9592L48.7427 89.1041C51.2517 88.873 53.4623 88.3836 54.7914 87.1328Z" fill="#144CA2"/>
<path d="M91.4367 86.6978C90.8806 86.8746 90.3517 87.1465 89.877 87.5L87.6257 89.1858L86.7577 89.5121L87.6257 92.8022L89.2125 91.8913L90.5009 91.6466C91.2332 91.4698 91.8978 91.0891 92.4131 90.5453C92.5759 90.3686 92.7115 90.1919 92.8336 90.0015C93.1591 89.4713 91.8435 87.8127 91.8164 87.7855C91.83 87.7991 91.9656 87.8535 93.8372 86.6978C94.8679 86.0453 93.037 86.1948 91.4367 86.6978Z" fill="#EEB69E"/>
<path d="M88.3174 92.8023L74.5924 99.7495C74.0906 100.008 73.521 100.103 72.9649 100.021L65.1259 99.0018L61.0844 98.1724L61.003 98.1588C61.003 98.1588 60.7589 97.0848 60.5283 95.6981C60.1486 93.4685 59.7824 90.4095 60.4198 89.553L73.2633 95.1135L87.4087 89.0771L88.3174 92.8023Z" fill="#3B8DEF"/>
<path opacity="0.4" d="M49.2309 104.182C49.2309 104.182 49.7463 115.615 48.4714 119.286C48.1595 119.014 48.0239 118.593 48.146 118.171C48.8783 115.656 48.5393 110.49 48.2002 107.105C48.0103 105.201 47.8205 103.869 47.8205 103.869C45.9896 102.387 44.769 100.429 44.4706 98.3084L44.5926 98.0229C44.5926 98.0229 46.7219 103.244 49.7192 103.094C52.6351 102.958 49.2309 104.182 49.2309 104.182Z" fill="#3B8DEF"/>
<path opacity="0.4" d="M64.2038 117.872C64.2851 118.157 64.2716 118.456 64.1766 118.728C62.9832 116.485 60.1758 102.142 60.1758 102.142C59.2942 103.311 57.07 103.039 56.2834 102.781C56.0528 102.699 57.1378 102.455 57.3819 102.455C59.3078 102.482 60.0673 100.579 60.0673 100.579V95.9562C60.0673 95.725 60.325 95.5891 60.5148 95.725L60.8674 95.9834L65.1124 99.0287L61.0709 98.1994C61.8304 106.193 62.9425 113.508 64.2038 117.872Z" fill="#3B8DEF"/>
<path d="M215.097 79.8999L214.5 80.5117L217.688 82.4014L218.406 81.4498L215.097 79.8999Z" fill="#F8B8B8"/>
<path d="M232.104 63.9663H230.151C230.016 64.1023 229.88 64.279 229.758 64.4693C228.944 65.7609 228.537 68.1673 228.537 70.5465C228.537 72.9257 228.958 75.3456 229.758 76.6236C229.88 76.8139 230.016 76.9907 230.151 77.1266H232.104C233.176 76.0662 233.718 73.2927 233.718 70.5329C233.732 67.8138 233.176 65.0267 232.104 63.9663ZM231.128 76.7052C231.074 76.7052 231.019 76.6916 230.965 76.6644C230.396 76.3925 229.69 74.7202 229.487 72.1235C229.446 71.6341 229.419 71.1039 229.419 70.5601C229.419 70.0026 229.446 69.486 229.487 68.9966C229.69 66.4135 230.396 64.7412 230.965 64.4557C231.019 64.4286 231.074 64.415 231.128 64.415C231.82 64.415 232.823 66.8077 232.823 70.5601C232.823 74.3124 231.82 76.7052 231.128 76.7052Z" fill="#E3A610"/>
<path d="M232.823 70.5601C232.823 74.3125 231.82 76.7052 231.128 76.7052C231.074 76.7052 231.019 76.6917 230.965 76.6645C230.396 76.3926 229.69 74.7203 229.487 72.1236C229.446 71.6342 229.419 71.104 229.419 70.5601C229.419 70.0027 229.446 69.4861 229.487 68.9967C229.69 66.4136 230.396 64.7413 230.965 64.4558C231.019 64.4286 231.074 64.415 231.128 64.415C231.82 64.415 232.823 66.8078 232.823 70.5601Z" fill="#C2C2C2"/>
<path d="M232.823 70.56C232.823 74.3123 231.82 76.7051 231.128 76.7051C231.074 76.7051 231.019 76.6915 230.965 76.6643C230.531 76.4604 230.029 75.4407 229.717 73.8229C230.016 74.8017 230.382 75.4271 230.707 75.5767C230.762 75.6039 230.816 75.6175 230.87 75.6175C231.562 75.6175 232.565 73.2247 232.565 69.4724C232.565 68.2216 232.457 67.1204 232.281 66.2095C232.593 67.2835 232.823 68.7654 232.823 70.56Z" fill="#373333"/>
<path d="M221.011 73.4966H216.888V75.7126H221.011V73.4966Z" fill="#3F3D3E"/>
<path d="M216.142 73.2929H216.657V67.8955H216.142C214.65 67.8955 213.456 69.1055 213.456 70.5874C213.456 72.0965 214.663 73.2929 216.142 73.2929Z" fill="#BA0025"/>
<path d="M219.641 81.0419C219.18 81.0419 218.732 80.8244 218.447 80.4301L217.335 78.7171C216.982 78.1733 216.793 77.5343 216.793 76.8817V72.4496C216.793 71.6339 217.43 70.9406 218.244 70.927C219.071 70.9134 219.749 71.5795 219.749 72.4089V76.773C219.749 77.0449 219.831 77.3032 219.993 77.5207L220.821 78.6627C221.268 79.2881 221.2 80.1718 220.617 80.6884C220.319 80.9331 219.98 81.0419 219.641 81.0419Z" fill="#353535"/>
<path d="M230.965 76.6645L231.128 77.154C230.667 76.9772 230.206 76.8005 229.758 76.6509C224.035 74.6252 218.691 73.8503 217.118 73.66C216.86 73.6328 216.657 73.4016 216.657 73.1433V68.0043C216.657 67.7324 216.847 67.5148 217.118 67.4877C218.678 67.2973 224.035 66.5224 229.758 64.4967C230.219 64.3335 230.68 64.1704 231.128 63.9937L230.965 64.4831C230.396 64.755 229.69 66.4272 229.487 69.0239L228.972 70.5874L229.487 72.1509C229.704 74.7204 230.396 76.3926 230.965 76.6645Z" fill="white"/>
<g opacity="0.5">
<path d="M216.657 72.5178V73.3064H216.142C215.396 73.3064 214.731 73.0073 214.243 72.5178C213.755 72.0284 213.456 71.3486 213.456 70.6145C213.456 70.4785 213.47 70.3562 213.483 70.2202C213.565 70.8048 213.836 71.335 214.243 71.7293C214.731 72.2187 215.396 72.5178 216.142 72.5178H216.657Z" fill="#5C5858"/>
<path d="M230.965 76.6642L231.128 77.1537C230.667 76.9769 230.206 76.8002 229.758 76.6506C224.035 74.6249 218.691 73.85 217.132 73.6596C216.874 73.6325 216.671 73.4013 216.671 73.143V72.3545C216.671 72.6264 216.86 72.8439 217.132 72.8711C218.691 73.0614 224.048 73.8364 229.758 75.8621C230.002 75.9437 230.246 76.0388 230.477 76.1204C230.64 76.4059 230.816 76.5827 230.965 76.6642Z" fill="#5C5858"/>
</g>
<path d="M232.104 63.9662C231.82 63.6807 231.494 63.5176 231.128 63.5176C230.762 63.5176 230.436 63.6807 230.151 63.9662C230.016 64.1022 229.88 64.2789 229.758 64.4693C229.066 65.5705 228.673 67.4602 228.565 69.4723C228.551 69.8258 228.537 70.1929 228.537 70.5464C228.537 70.8999 228.551 71.2669 228.565 71.6204C228.673 73.6325 229.066 75.5359 229.758 76.6235C229.88 76.8138 230.016 76.9906 230.151 77.1265C230.436 77.412 230.762 77.5752 231.128 77.5752C231.494 77.5752 231.82 77.412 232.104 77.1265C233.176 76.0661 233.718 73.2926 233.718 70.5328C233.732 67.8137 233.176 65.0267 232.104 63.9662ZM231.128 76.7051C231.074 76.7051 231.019 76.6915 230.965 76.6643C230.396 76.3924 229.69 74.7202 229.487 72.1234C229.473 71.9603 229.46 71.7972 229.46 71.634C229.446 71.2941 229.433 70.927 229.433 70.56C229.433 70.1929 229.446 69.8258 229.46 69.4859C229.473 69.3228 229.487 69.1597 229.487 68.9965C229.69 66.4134 230.396 64.7412 230.965 64.4557C231.019 64.4285 231.074 64.4149 231.128 64.4149C231.82 64.4149 232.823 66.8077 232.823 70.56C232.823 74.3123 231.82 76.7051 231.128 76.7051Z" fill="#BA0025"/>
<path d="M231.67 70.5599C231.67 70.859 231.548 71.1309 231.358 71.3212C231.169 71.5115 230.897 71.6339 230.599 71.6339H229.46C229.446 71.294 229.433 70.9269 229.433 70.5599C229.433 70.1928 229.446 69.8257 229.46 69.4858H230.599C231.196 69.4858 231.67 69.9753 231.67 70.5599Z" fill="#373233"/>
<g opacity="0.5">
<path d="M231.67 70.5601C231.67 70.8592 231.548 71.1311 231.358 71.3214C231.169 71.5117 230.897 71.6341 230.599 71.6341H229.46C229.446 71.2942 229.433 70.9271 229.433 70.5601C229.433 70.4785 229.433 70.3833 229.433 70.3018C229.433 70.5737 229.446 70.8456 229.46 71.1039H230.599C230.897 71.1039 231.169 70.9815 231.358 70.7912C231.494 70.6552 231.589 70.4921 231.643 70.3018C231.657 70.3833 231.67 70.4649 231.67 70.5601Z" fill="#373233"/>
</g>
<path d="M215.803 77.181L216.426 76.2021C216.521 76.0526 216.698 75.9574 216.888 75.971L218.718 76.0798C218.963 76.0934 219.112 76.3381 219.017 76.5692C218.881 76.8819 218.664 77.249 218.569 77.3849C218.542 77.4257 218.501 77.4393 218.461 77.4393H217.43L217.335 78.2414L217.715 78.5405C218.583 79.2339 218.868 80.4303 218.393 81.4364L215.084 79.9001L215.803 77.181Z" fill="#F8B8B8"/>
<path d="M219.736 77.1401L220.943 77.0314C221.2 77.0042 221.39 76.773 221.363 76.5147L221.35 76.406C221.322 76.1477 221.092 75.9573 220.834 75.9845L219.627 76.0933C219.369 76.1205 219.18 76.3516 219.207 76.6099L219.22 76.7187C219.247 76.977 219.478 77.1673 219.736 77.1401Z" fill="#F8B8B8"/>
<path d="M220.061 78.1733L221.268 78.0646C221.526 78.0374 221.716 77.8063 221.689 77.5479L221.675 77.4392C221.648 77.1809 221.417 76.9905 221.16 77.0177L219.953 77.1265C219.695 77.1537 219.505 77.3848 219.532 77.6431L219.546 77.7519C219.573 78.0102 219.803 78.2005 220.061 78.1733Z" fill="#F8B8B8"/>
<path d="M219.939 79.2475L221.146 79.1388C221.404 79.1116 221.594 78.8805 221.567 78.6222L221.553 78.5134C221.526 78.2551 221.295 78.0648 221.038 78.0919L219.831 78.2007C219.573 78.2279 219.383 78.459 219.41 78.7173L219.424 78.8261C219.451 79.0844 219.681 79.2747 219.939 79.2475Z" fill="#F8B8B8"/>
<path d="M219.817 80.2125L221.024 80.1038C221.282 80.0766 221.472 79.8454 221.444 79.5871C221.417 79.3288 221.187 79.1385 220.929 79.1657L219.722 79.2744C219.464 79.3016 219.275 79.5328 219.302 79.7911C219.329 80.0494 219.559 80.2397 219.817 80.2125Z" fill="#F8B8B8"/>
<path d="M218.176 82.2792L207.475 94.3247C206.865 95.0044 205.861 95.1812 205.075 94.7325L199.501 91.6056L192.15 87.4726C191.404 87.0783 190.794 86.4529 190.414 85.7052C189.492 83.8562 188.325 80.4166 191.445 78.9483C192.516 78.4453 193.791 78.5948 194.727 79.3426L200.179 83.7203L206.39 88.6962L214.609 80.0087L218.176 82.2792Z" fill="#E3AA27"/>
<path d="M203.759 172.335L204.397 176.155L200.301 175.992L199.813 171.927L203.759 172.335Z" fill="#101010"/>
<path d="M205.278 175.23L211.747 178.493C212.412 178.833 212.344 180.111 211.639 180.437L210.92 180.777C210.242 181.104 209.523 181.267 208.818 181.267L202.417 181.253L202.01 180.791C201.616 180.342 200.993 180.465 200.667 181.049L200.545 181.253H199.284C198.863 181.253 198.619 180.696 198.795 180.193L199.677 175.217L205.278 175.23Z" fill="#101010"/>
<path d="M197.927 112.434L201.02 140.984L204.681 173.45L199.596 173.803L193.072 140.726L186.942 113.045L197.927 112.434Z" fill="#101010"/>
<path d="M198.646 73.6051C198.565 73.6731 198.497 73.7411 198.429 73.809C198.117 74.1489 197.86 74.5704 197.643 75.0598C197.507 75.3725 197.426 75.9027 197.371 76.4737C197.304 77.1807 197.127 78.6626 197.019 79.1384L189.275 77.9556C190.563 76.6777 190.74 73.7003 191.024 71.1987L191.838 71.4434L193.777 72.0552L198.646 73.6051Z" fill="#F8B8B8"/>
<path opacity="0.5" d="M198.429 73.8226C198.117 74.1624 197.86 74.5839 197.643 75.0733C197.507 75.386 197.426 75.9162 197.371 76.4872C195.744 75.4812 194.116 74.9238 193.438 74.2984C193.235 74.1081 193.031 72.5718 193.031 72.5718L198.429 73.8226Z" fill="#5C5858"/>
<path d="M200.369 74.6929C200.369 74.6929 199.921 75.2503 198.199 75.2231C198.063 75.2231 197.9 75.2095 197.751 75.2095C196.72 75.1415 195.31 74.8832 193.384 74.2578C192.652 74.0267 191.852 73.7276 190.97 73.3741C190.97 73.3741 190.943 73.2926 190.902 73.1566C190.482 71.7291 188.203 63.7078 189.953 62.9057C191.879 62.0356 197.548 62.2531 199.392 63.2728C199.406 63.2864 201.969 70.0161 200.369 74.6929Z" fill="#F8B8B8"/>
<path d="M190.672 74.5296C190.672 74.5296 190.726 73.5371 188.366 70.2199C186.006 66.9026 189.315 63.5853 189.315 63.5853C189.315 63.5853 190.265 58.8541 199.243 61.6956C199.243 61.6956 201.711 61.5732 202.064 60.7847C202.43 59.9962 202.362 62.8104 200.559 64.0204C199.569 64.6866 198.755 64.4826 198.226 64.1699C197.697 63.8572 197.019 64.0068 196.625 64.4826C196.3 64.8905 196.097 65.3255 196.476 65.5839C197.317 66.1277 196.829 68.3301 196.829 68.9963C196.829 69.6625 195.391 66.6307 194.496 67.0929C193.601 67.5552 193.411 67.8679 194.198 70.383C194.984 72.9118 190.672 74.5296 190.672 74.5296Z" fill="#312732"/>
<path d="M183.023 172.171L182.141 175.869L177.299 176.685L178.479 170.934L183.023 172.171Z" fill="#1A1A1A"/>
<path d="M182.792 175.176L189.288 178.357C189.966 178.683 189.899 179.961 189.193 180.301L188.475 180.655C187.796 180.981 187.078 181.158 186.372 181.171L179.971 181.239L179.564 180.777C179.171 180.328 178.547 180.464 178.222 181.049L178.113 181.253L176.852 181.267C176.431 181.267 176.174 180.723 176.364 180.206L177.191 175.23L182.792 175.176Z" fill="#1A1A1A"/>
<path d="M177.666 172.267L183.036 173.137L191.594 142.778L197.928 112.434L184.786 111.047L184.677 111.305L184.121 141.582L177.666 172.267Z" fill="#1A1A1A"/>
<path d="M200.165 85.2699C200.165 85.501 200.152 85.7457 200.138 85.9768C199.989 87.6083 199.745 90.205 199.501 93.1416C199.474 93.4679 199.446 93.7942 199.419 94.134C198.782 101.625 198.117 110.884 198.484 112.705C198.578 113.168 198.294 113.63 197.846 113.779C194.279 114.921 189.872 114.405 184.216 114.242C183.972 114.242 183.66 113.983 183.809 113.793C185.274 111.767 185.708 85.2155 186.481 82.9451C187.634 79.6142 188.773 76.2833 194.51 76.8407C196.653 77.3846 198.416 80.1852 199.419 82.1565C199.718 82.7411 199.935 83.3801 200.057 84.0191C200.125 84.4134 200.165 84.8348 200.165 85.2699Z" fill="#FFBD29"/>
<path d="M196.219 85.2834L192.801 98.3349L194.062 116.05L189.844 117.3L186.928 98.3349L187.864 84.6444C187.796 83.4208 188.23 82.2108 189.058 81.3135C190.428 79.818 192.76 78.5129 195.405 82.3196C196.015 83.1761 196.3 84.2229 196.219 85.2834Z" fill="#E3AA27"/>
<path d="M193.872 116.036L194.062 117.083L195.5 117.804L190.482 119.965L190.59 118.592L190.306 117.097L193.872 116.036Z" fill="#F8B8B8"/>
<path d="M213.551 204.053C204.885 203.563 196.653 200.314 188.325 197.867C179.998 195.42 170.966 193.788 162.733 196.521C154.244 199.335 147.706 206.418 139.271 209.396C128.041 213.352 115.632 209.369 104.823 204.338C94.0271 199.308 83.2858 193.095 71.3917 192.442C60.8539 191.858 50.6686 195.733 40.3206 197.813C32.0205 199.485 10.3345 187.494 10.3345 181.267H254.672C254.536 181.267 224.062 204.651 213.551 204.053Z" fill="#62AEF9"/>
<path d="M206.146 46.2244H193.479C191.919 46.2244 190.658 44.9601 190.658 43.3966V34.5324C190.658 32.969 191.919 31.7046 193.479 31.7046H206.146C207.706 31.7046 208.967 32.969 208.967 34.5324V43.3966C208.967 44.9601 207.706 46.2244 206.146 46.2244Z" fill="white"/>
<path d="M204.315 45.1641L197.561 52.0161L195.974 46.1293L204.315 45.1641Z" fill="white"/>
<path d="M201.904 44.0112C204.686 42.856 206.007 39.6589 204.855 36.8702C203.702 34.0814 200.513 32.7572 197.731 33.9123C194.949 35.0675 193.628 38.2646 194.78 41.0533C195.933 43.8421 199.122 45.1663 201.904 44.0112Z" fill="#D19304"/>
<path d="M204.395 39.7067C204.806 37.1719 203.089 34.7836 200.56 34.3722C198.031 33.9609 195.649 35.6822 195.239 38.217C194.828 40.7518 196.545 43.1401 199.074 43.5515C201.603 43.9629 203.985 42.2415 204.395 39.7067Z" fill="#FFC628"/>
<path d="M199.514 40.9629C199.216 40.9357 198.972 40.8949 198.795 40.8405C198.606 40.7861 198.47 40.7318 198.389 40.6774L198.606 40.0792C198.741 40.1472 198.904 40.2015 199.094 40.2559C199.284 40.3103 199.501 40.3375 199.731 40.3375C200.016 40.3375 200.219 40.2967 200.328 40.2151C200.436 40.1336 200.491 40.0112 200.491 39.8753C200.491 39.7801 200.464 39.6985 200.423 39.6305C200.382 39.5626 200.314 39.4946 200.233 39.4402C200.152 39.3858 200.057 39.3314 199.935 39.2907C199.826 39.2499 199.691 39.1955 199.555 39.1411C199.433 39.1003 199.297 39.0459 199.175 38.9916C199.053 38.9372 198.931 38.8556 198.836 38.774C198.741 38.6925 198.646 38.5837 198.592 38.4613C198.524 38.339 198.497 38.1894 198.497 38.0127C198.497 37.7272 198.578 37.4825 198.755 37.2785C198.931 37.0746 199.189 36.9523 199.541 36.8843V36.1909H200.192V36.8571C200.396 36.8707 200.572 36.8979 200.721 36.9387C200.884 36.9794 201.006 37.0202 201.087 37.0474L200.938 37.6592C200.816 37.6184 200.681 37.564 200.518 37.5233C200.355 37.4825 200.165 37.4553 199.962 37.4553C199.745 37.4553 199.568 37.4961 199.46 37.5776C199.351 37.6592 199.297 37.768 199.297 37.9175C199.297 37.9991 199.311 38.0671 199.351 38.1215C199.379 38.1758 199.433 38.2302 199.501 38.271C199.568 38.3118 199.65 38.3526 199.745 38.3934C199.84 38.4342 199.948 38.4749 200.07 38.5157C200.247 38.5837 200.396 38.6517 200.559 38.7197C200.708 38.7876 200.843 38.8828 200.952 38.978C201.06 39.0731 201.155 39.1955 201.209 39.3179C201.277 39.4538 201.304 39.6034 201.304 39.7937C201.304 40.0656 201.223 40.3103 201.047 40.5006C200.87 40.7046 200.599 40.8269 200.206 40.8813V41.6563H199.555V40.9629H199.514Z" fill="#FFE8A8"/>
<path d="M73.6219 72.6283C78.6398 72.544 82.6395 68.3979 82.5554 63.3677C82.4713 58.3375 78.3353 54.328 73.3174 54.4123C68.2994 54.4966 64.2997 58.6427 64.3838 63.6729C64.4679 68.7031 68.6039 72.7126 73.6219 72.6283Z" fill="white"/>
<path d="M62.2778 74.7884L75.7451 69.1463L67.7027 68.6841L62.2778 74.7884Z" fill="white"/>
<path d="M71.4733 62.899L69.2445 63.8975L71.3915 68.7135L73.6203 67.7151L71.4733 62.899Z" fill="#62AEF9"/>
<path d="M77.6166 60.513L77.9828 61.7502C78.0235 61.8862 77.9693 62.0221 77.8472 62.0901L77.6709 62.1988L78.5931 65.149C78.6338 65.2986 78.566 65.4481 78.4304 65.5161L74.321 67.3651L72.2189 62.6611V62.5523L77.2098 60.3227C77.3861 60.2547 77.576 60.3363 77.6166 60.513Z" fill="#62AEF9"/>
<path d="M74.3617 60.1597L74.3888 61.6008L74.4024 62.1447L72.2324 62.6749V62.5661L72.463 58.9633C72.4765 58.6914 72.7614 58.5283 73.0055 58.6506L73.6022 58.9497C74.0498 59.1809 74.3481 59.6431 74.3617 60.1597Z" fill="#62AEF9"/>
</g>
<defs>
<clipPath id="clip0_515_27285">
<rect width="267" height="211" fill="white"/>
</clipPath>
</defs>
</svg>
