<svg width="47" height="43" viewBox="0 0 47 43" fill="none" xmlns="http://www.w3.org/2000/svg">
<path d="M34.0012 10.0064C33.9624 15.5178 29.6288 19.8458 24.3007 19.9958C18.6171 20.157 14.0335 15.6234 14.0002 10.0564C13.9669 4.56168 18.356 0.0447768 23.9007 0.000330048C29.501 -0.0441168 33.9735 4.40612 34.0012 10.0064ZM31.1678 14.84C33.4346 11.6343 33.2901 6.56734 29.651 3.41718C26.0675 0.317013 20.595 0.705923 17.4782 4.295C14.4502 7.78408 15.0058 12.3843 16.8503 14.8289C20.7783 10.8287 27.2564 10.8509 31.1678 14.84Z" fill="#626972"/>
<path d="M28.0065 6.66739C28.0121 8.85639 26.212 10.662 24.023 10.662C21.8173 10.662 20.0116 8.87862 20.0061 6.70072C20.0005 4.4506 21.7784 2.66718 24.0285 2.66162C26.212 2.66162 28.001 4.46172 28.0065 6.66739Z" fill="#626972"/>
<path d="M6.69789 40L5.86 37.6211H2.58461L1.74672 40H0.264297L3.4518 31.3984H5.01039L8.19203 40H6.69789ZM5.49672 36.4141L4.68227 34.0703C4.65102 33.9688 4.60609 33.8262 4.5475 33.6426C4.48891 33.4551 4.43031 33.2656 4.37172 33.0742C4.31313 32.8789 4.2643 32.7148 4.22523 32.582C4.18617 32.7422 4.13734 32.9219 4.07875 33.1211C4.02406 33.3164 3.96938 33.5 3.91469 33.6719C3.86391 33.8438 3.82484 33.9766 3.7975 34.0703L2.97719 36.4141H5.49672ZM11.6755 40.1172C11.0623 40.1172 10.531 39.998 10.0818 39.7598C9.63258 39.5215 9.28688 39.1562 9.04469 38.6641C8.8025 38.1719 8.68141 37.5469 8.68141 36.7891C8.68141 36 8.81422 35.3555 9.07984 34.8555C9.34547 34.3555 9.71266 33.9863 10.1814 33.748C10.6541 33.5098 11.1951 33.3906 11.8045 33.3906C12.1912 33.3906 12.5408 33.4297 12.8533 33.5078C13.1697 33.582 13.4373 33.6738 13.656 33.7832L13.2459 34.8848C13.0076 34.7871 12.7634 34.7051 12.5134 34.6387C12.2634 34.5723 12.0232 34.5391 11.7927 34.5391C11.4138 34.5391 11.0974 34.623 10.8435 34.791C10.5935 34.959 10.406 35.209 10.281 35.541C10.1599 35.873 10.0994 36.2852 10.0994 36.7773C10.0994 37.2539 10.1619 37.6562 10.2869 37.9844C10.4119 38.3086 10.5974 38.5547 10.8435 38.7227C11.0896 38.8867 11.3923 38.9688 11.7517 38.9688C12.1072 38.9688 12.4255 38.9258 12.7068 38.8398C12.988 38.7539 13.2537 38.6426 13.5037 38.5059V39.7012C13.2576 39.8418 12.9939 39.9453 12.7127 40.0117C12.4314 40.082 12.0857 40.1172 11.6755 40.1172ZM17.5204 40.1172C16.9071 40.1172 16.3759 39.998 15.9266 39.7598C15.4774 39.5215 15.1317 39.1562 14.8895 38.6641C14.6473 38.1719 14.5263 37.5469 14.5263 36.7891C14.5263 36 14.6591 35.3555 14.9247 34.8555C15.1903 34.3555 15.5575 33.9863 16.0263 33.748C16.4989 33.5098 17.0399 33.3906 17.6493 33.3906C18.036 33.3906 18.3856 33.4297 18.6981 33.5078C19.0145 33.582 19.2821 33.6738 19.5009 33.7832L19.0907 34.8848C18.8524 34.7871 18.6083 34.7051 18.3583 34.6387C18.1083 34.5723 17.868 34.5391 17.6376 34.5391C17.2587 34.5391 16.9423 34.623 16.6884 34.791C16.4384 34.959 16.2509 35.209 16.1259 35.541C16.0048 35.873 15.9442 36.2852 15.9442 36.7773C15.9442 37.2539 16.0067 37.6562 16.1317 37.9844C16.2567 38.3086 16.4423 38.5547 16.6884 38.7227C16.9345 38.8867 17.2372 38.9688 17.5966 38.9688C17.952 38.9688 18.2704 38.9258 18.5516 38.8398C18.8329 38.7539 19.0985 38.6426 19.3485 38.5059V39.7012C19.1024 39.8418 18.8388 39.9453 18.5575 40.0117C18.2763 40.082 17.9305 40.1172 17.5204 40.1172ZM26.4941 36.7422C26.4941 37.2812 26.4238 37.7598 26.2832 38.1777C26.1426 38.5957 25.9375 38.9492 25.668 39.2383C25.3984 39.5234 25.0742 39.7422 24.6953 39.8945C24.3164 40.043 23.8887 40.1172 23.4121 40.1172C22.9668 40.1172 22.5586 40.043 22.1875 39.8945C21.8164 39.7422 21.4941 39.5234 21.2207 39.2383C20.9512 38.9492 20.7422 38.5957 20.5938 38.1777C20.4453 37.7598 20.3711 37.2812 20.3711 36.7422C20.3711 36.0273 20.4941 35.4219 20.7402 34.9258C20.9902 34.4258 21.3457 34.0449 21.8066 33.7832C22.2676 33.5215 22.8164 33.3906 23.4531 33.3906C24.0508 33.3906 24.5781 33.5215 25.0352 33.7832C25.4922 34.0449 25.8496 34.4258 26.1074 34.9258C26.3652 35.4258 26.4941 36.0312 26.4941 36.7422ZM21.7891 36.7422C21.7891 37.2148 21.8457 37.6191 21.959 37.9551C22.0762 38.291 22.2559 38.5488 22.498 38.7285C22.7402 38.9043 23.0527 38.9922 23.4355 38.9922C23.8184 38.9922 24.1309 38.9043 24.373 38.7285C24.6152 38.5488 24.793 38.291 24.9062 37.9551C25.0195 37.6191 25.0762 37.2148 25.0762 36.7422C25.0762 36.2695 25.0195 35.8691 24.9062 35.541C24.793 35.209 24.6152 34.957 24.373 34.7852C24.1309 34.6094 23.8164 34.5215 23.4297 34.5215C22.8594 34.5215 22.4434 34.7129 22.1816 35.0957C21.9199 35.4785 21.7891 36.0273 21.7891 36.7422ZM33.6105 33.5137V40H32.5265L32.339 39.127H32.2628C32.1261 39.3496 31.9523 39.5352 31.7413 39.6836C31.5304 39.8281 31.296 39.9355 31.0382 40.0059C30.7804 40.0801 30.5089 40.1172 30.2238 40.1172C29.7355 40.1172 29.3175 40.0352 28.9698 39.8711C28.6261 39.7031 28.3624 39.4453 28.1788 39.0977C27.9952 38.75 27.9034 38.3008 27.9034 37.75V33.5137H29.2863V37.4922C29.2863 37.9961 29.3878 38.373 29.5909 38.623C29.798 38.873 30.1183 38.998 30.5519 38.998C30.9698 38.998 31.3019 38.9121 31.548 38.7402C31.7941 38.5684 31.9679 38.3145 32.0695 37.9785C32.1749 37.6426 32.2277 37.2305 32.2277 36.7422V33.5137H33.6105ZM38.8459 33.3906C39.5764 33.3906 40.1448 33.5801 40.551 33.959C40.9612 34.334 41.1663 34.9375 41.1663 35.7695V40H39.7893V36.0273C39.7893 35.5234 39.6858 35.1465 39.4788 34.8965C39.2717 34.6426 38.9514 34.5156 38.5178 34.5156C37.8889 34.5156 37.4514 34.709 37.2053 35.0957C36.9631 35.4824 36.842 36.043 36.842 36.7773V40H35.4651V33.5137H36.5373L36.7307 34.3926H36.8069C36.9475 34.166 37.1213 33.9805 37.3284 33.8359C37.5393 33.6875 37.7737 33.5762 38.0315 33.502C38.2932 33.4277 38.5647 33.3906 38.8459 33.3906ZM45.388 39.0039C45.5677 39.0039 45.7455 38.9883 45.9212 38.957C46.097 38.9219 46.2572 38.8809 46.4017 38.834V39.877C46.2494 39.9434 46.0521 40 45.8099 40.0469C45.5677 40.0938 45.3158 40.1172 45.0541 40.1172C44.6869 40.1172 44.3568 40.0566 44.0638 39.9355C43.7709 39.8105 43.5384 39.5977 43.3666 39.2969C43.1947 38.9961 43.1087 38.5801 43.1087 38.0488V34.5625H42.224V33.9473L43.1732 33.4609L43.6244 32.0723H44.4916V33.5137H46.349V34.5625H44.4916V38.0312C44.4916 38.3594 44.5736 38.6035 44.7377 38.7637C44.9017 38.9238 45.1185 39.0039 45.388 39.0039Z" fill="#626972"/>
</svg>
