<svg width="22" height="18" viewBox="0 0 22 18" fill="none" xmlns="http://www.w3.org/2000/svg">
<path d="M21.5478 17.1976C21.5478 17.2986 21.5478 17.394 21.5478 17.495C21.4636 17.7475 21.2897 17.9102 21.0428 18C14.1969 18 7.35095 18 0.505027 18C0.258125 17.9102 0.0841711 17.7475 0 17.495C0 17.394 0 17.2986 0 17.1976C0.157119 16.8384 0.432079 16.7094 0.819266 16.7262C1.38602 16.7487 1.95277 16.7318 2.52513 16.7318C2.64859 16.7318 2.77204 16.7318 2.91793 16.7318C2.91793 16.6308 2.91793 16.5523 2.91793 16.4793C2.91793 15.8059 2.9011 15.1326 2.92354 14.4592C2.93477 14.1337 2.9011 13.8981 2.53636 13.8083C2.40729 13.7802 2.28945 13.6736 2.17723 13.5894C1.63853 13.191 1.24573 12.6692 0.970774 12.0744C0.0336683 10.0486 -0.241291 7.93874 0.325462 5.76713C0.841711 3.79191 1.82371 2.02993 2.97966 0.363339C3.31634 -0.119242 3.80454 -0.124854 4.12439 0.36895C4.55085 1.01987 4.97732 1.6708 5.35328 2.34978C6.06032 3.61235 6.62707 4.93664 6.92448 6.36194C6.96937 6.58639 6.92448 6.72668 6.75053 6.87819C5.85831 7.65817 4.96049 8.43255 4.09633 9.24059C3.14239 10.1272 3.35001 11.7152 4.51718 12.2651C4.9156 12.4503 4.98293 12.6635 4.9661 13.0395C4.93804 13.6399 4.94365 13.6624 4.38812 13.8924C4.38251 13.8924 4.3769 13.8981 4.37129 13.8981C4.21978 13.9261 4.1805 14.0103 4.1805 14.1618C4.18611 14.9418 4.18611 15.7162 4.18611 16.4961C4.18611 16.5635 4.19172 16.6308 4.19733 16.7094C4.87632 16.7094 5.53846 16.7094 6.21183 16.7094C6.21183 14.7173 6.21183 12.7421 6.21183 10.7276C6.0491 10.8679 5.92004 10.9913 5.77414 11.1036C5.51602 11.3 5.15127 11.2607 4.93243 11.025C4.71358 10.7837 4.70797 10.4302 4.92682 10.1833C4.99415 10.1104 5.0671 10.0486 5.14005 9.9813C7.63713 7.76479 10.1286 5.54828 12.6257 3.32616C12.996 2.99509 13.2822 3.0007 13.6582 3.33177C15.1059 4.61679 16.5537 5.9018 17.9958 7.18681C18.0463 7.23171 18.1024 7.2766 18.1866 7.34954C18.1866 7.22048 18.1866 7.14753 18.1866 7.06897C18.1866 6.46855 18.1866 5.86252 18.1866 5.2621C18.1866 4.91419 18.383 4.66168 18.686 4.59995C19.0956 4.51578 19.4435 4.80758 19.4435 5.25088C19.4491 6.26654 19.4491 7.28221 19.4435 8.30348C19.4435 8.43255 19.4828 8.52233 19.5782 8.6065C20.145 9.1003 20.7061 9.59972 21.2616 10.0991C21.559 10.3629 21.5871 10.7444 21.3458 11.0138C21.1045 11.2831 20.7285 11.2944 20.4255 11.0362C20.3133 10.9408 20.2011 10.8398 20.0608 10.7164C20.0608 12.7421 20.0608 14.7173 20.0608 16.7094C20.2965 16.7094 20.5097 16.7262 20.7285 16.7038C21.1157 16.6925 21.3907 16.8384 21.5478 17.1976ZM9.15782 16.715C9.15782 16.6252 9.15782 16.541 9.15782 16.4569C9.15782 15.054 9.15782 13.6512 9.15221 12.2483C9.15221 12.0744 9.1971 12.0126 9.37667 12.0238C9.6404 12.0407 9.90975 12.0407 10.1735 12.0238C10.3699 12.0126 10.4204 12.08 10.4204 12.2708C10.4148 13.668 10.4148 15.0596 10.4148 16.4569C10.4148 16.541 10.4148 16.6196 10.4148 16.715C10.8412 16.715 11.2453 16.715 11.6605 16.715C11.6661 16.6364 11.6717 16.5691 11.6717 16.4961C11.6717 14.8352 11.6717 13.1742 11.6717 11.5076C11.6717 11.0026 11.4304 10.7669 10.9198 10.7613C10.1679 10.7613 9.42156 10.7613 8.66963 10.7613C8.13093 10.7613 7.89525 10.9913 7.89525 11.5244C7.89525 13.1742 7.89525 14.8183 7.89525 16.4681C7.89525 16.541 7.89525 16.6196 7.89525 16.7038C8.32733 16.715 8.72574 16.715 9.15782 16.715ZM16.015 15.0877C16.5032 15.0877 16.997 15.0933 17.4852 15.0877C17.906 15.0821 18.1697 14.8239 18.1697 14.4031C18.1754 13.4211 18.1754 12.4391 18.1697 11.4627C18.1697 11.0362 17.9116 10.7725 17.4908 10.7725C16.5088 10.7669 15.5268 10.7669 14.5504 10.7725C14.1239 10.7725 13.8658 11.0306 13.8658 11.4571C13.8602 12.4391 13.8602 13.4211 13.8658 14.3975C13.8658 14.8352 14.1295 15.0877 14.5616 15.0877C15.0442 15.0933 15.5324 15.0877 16.015 15.0877Z" fill="#626972"/>
</svg>
