<svg width="26" height="30" viewBox="0 0 26 30" fill="none" xmlns="http://www.w3.org/2000/svg">
<path d="M25.1754 23.3791C24.7137 24.4272 24.1672 25.392 23.5341 26.279C22.671 27.4882 21.9644 28.3252 21.4198 28.7901C20.5756 29.553 19.6711 29.9437 18.7025 29.9659C18.0072 29.9659 17.1686 29.7715 16.1925 29.3771C15.2132 28.9845 14.3132 28.7901 13.4903 28.7901C12.6273 28.7901 11.7016 28.9845 10.7116 29.3771C9.72003 29.7715 8.92124 29.9771 8.3105 29.9974C7.3817 30.0363 6.45591 29.6345 5.53181 28.7901C4.94198 28.2845 4.20426 27.4179 3.32046 26.1901C2.37225 24.879 1.59269 23.3587 0.981952 21.6254C0.327883 19.7533 0 17.9404 0 16.1853C0 14.1748 0.44208 12.4408 1.32755 10.9876C2.02346 9.82047 2.94925 8.89975 4.10796 8.22386C5.26665 7.54795 6.51865 7.2035 7.86693 7.18149C8.60467 7.18149 9.57209 7.40573 10.7743 7.84646C11.9732 8.28868 12.7429 8.51292 13.0804 8.51292C13.3328 8.51292 14.1879 8.2507 15.6376 7.72795C17.0085 7.24315 18.1654 7.04238 19.1133 7.12148C21.6817 7.32517 23.6113 8.32014 24.8946 10.1127C22.5975 11.4804 21.4612 13.3961 21.4838 15.8536C21.5046 17.7678 22.2112 19.3607 23.6 20.6255C24.2294 21.2125 24.9323 21.6662 25.7143 21.9884C25.5447 22.4717 25.3657 22.9347 25.1754 23.3791ZM19.2848 0.600178C19.2848 2.10051 18.727 3.50138 17.6152 4.79801C16.2735 6.33946 14.6507 7.23016 12.8909 7.08961C12.8673 6.90099 12.8555 6.71113 12.8554 6.5211C12.8554 5.08078 13.4935 3.53933 14.6266 2.27901C15.1923 1.64088 15.9117 1.1103 16.7842 0.68703C17.6548 0.270081 18.4783 0.0394964 19.2528 0C19.2754 0.200565 19.2848 0.40118 19.2848 0.600178Z" fill="black"/>
</svg>
