<svg width="39" height="25" viewBox="0 0 39 25" fill="none" xmlns="http://www.w3.org/2000/svg">
<rect x="0.5" y="0.5" width="37.8889" height="24" rx="1.5" fill="white" stroke="#231F20"/>
<path d="M9.847 8.5471C9.47196 8.95243 8.87189 9.27212 8.27182 9.22645C8.19682 8.6784 8.4906 8.0961 8.83439 7.73644C9.20943 7.3197 9.86576 7.02284 10.3971 7C10.4596 7.57088 10.2158 8.13035 9.847 8.5471ZM10.3908 9.33492C9.52197 9.28925 8.77813 9.78592 8.36558 9.78592C7.94679 9.78592 7.31546 9.35775 6.62789 9.36917C5.73403 9.38059 4.90269 9.84301 4.44639 10.5794C3.50878 12.0523 4.20261 14.2331 5.10896 15.432C5.55276 16.0257 6.08407 16.6765 6.78415 16.6537C7.44673 16.6308 7.70926 16.2598 8.50935 16.2598C9.31569 16.2598 9.54697 16.6537 10.247 16.6422C10.9721 16.6308 11.4284 16.0485 11.8722 15.4548C12.3785 14.7812 12.5848 14.1246 12.5973 14.0904C12.5848 14.079 11.1972 13.5937 11.1847 12.1323C11.1722 10.9106 12.2785 10.3283 12.3285 10.294C11.7035 9.4491 10.7284 9.35775 10.3908 9.33492ZM15.4101 7.67935V16.5794H16.9228V13.5366H19.0168C20.9295 13.5366 22.2734 12.3378 22.2734 10.6023C22.2734 8.86679 20.9545 7.67935 19.0668 7.67935H15.4101ZM16.9228 8.84396H18.6668C19.9794 8.84396 20.7295 9.48335 20.7295 10.608C20.7295 11.7326 19.9794 12.3777 18.6605 12.3777H16.9228V8.84396ZM25.0362 16.648C25.9864 16.648 26.8677 16.2084 27.2677 15.5119H27.299V16.5794H28.6992V12.1494C28.6992 10.8649 27.574 10.0371 25.8426 10.0371C24.2362 10.0371 23.0485 10.8763 23.0048 12.0295H24.3674C24.4799 11.4814 25.0362 11.1218 25.7988 11.1218C26.7239 11.1218 27.2427 11.5157 27.2427 12.2407V12.7317L25.355 12.8344C23.5986 12.9315 22.6485 13.588 22.6485 14.7298C22.6485 15.883 23.6298 16.648 25.0362 16.648ZM25.4425 15.5918C24.6362 15.5918 24.1236 15.2379 24.1236 14.6955C24.1236 14.1361 24.6174 13.8107 25.5613 13.7593L27.2427 13.6622V14.1646C27.2427 14.9981 26.4677 15.5918 25.4425 15.5918ZM30.5681 19C32.0433 19 32.7371 18.4862 33.3434 16.9277L36 10.1227H34.4623L32.6809 15.3806H32.6496L30.8682 10.1227H29.2867L31.8495 16.6023L31.712 16.9962C31.4807 17.6641 31.1057 17.921 30.4369 17.921C30.3181 17.921 30.0868 17.9096 29.9931 17.8982V18.9657C30.0806 18.9886 30.4556 19 30.5681 19Z" fill="#27292B"/>
</svg>
