<svg width="14" height="18" viewBox="0 0 14 18" fill="none" xmlns="http://www.w3.org/2000/svg">
<path fill-rule="evenodd" clip-rule="evenodd" d="M10.7375 4.81395C10.7375 5.16056 10.4562 5.44186 10.1096 5.44186C9.76298 5.44186 9.48168 5.16056 9.48168 4.81395V3.55814C9.48168 2.28642 8.45108 1.25581 7.17936 1.25581C5.90763 1.25581 4.87703 2.28642 4.87703 3.55814V4.81395C4.87703 5.16056 4.59573 5.44186 4.24912 5.44186C3.90252 5.44186 3.62122 5.16056 3.62122 4.81395V3.55814C3.62122 1.59321 5.21443 0 7.17936 0C9.14429 0 10.7375 1.59321 10.7375 3.55814V4.81395Z" fill="#626972"/>
<path fill-rule="evenodd" clip-rule="evenodd" d="M13.3261 5.94418L13.9959 15.9907C14.0302 16.5114 13.8477 17.0221 13.4919 17.4031C13.1353 17.784 12.6371 18 12.1164 18H2.24234C1.72159 18 1.22345 17.784 0.866801 17.4031C0.510987 17.0221 0.328475 16.5114 0.362801 15.9907L1.03257 5.94418C1.09871 4.95459 1.92085 4.18604 2.9121 4.18604H11.4466C12.4379 4.18604 13.26 4.95459 13.3261 5.94418ZM9.26066 7.8932C8.89062 8.67097 8.09778 9.20929 7.17936 9.20929C6.26094 9.20929 5.4681 8.67097 5.09806 7.8932C4.94987 7.58008 4.5748 7.44697 4.26169 7.59599C3.94857 7.74417 3.81545 8.11924 3.96364 8.43236C4.53462 9.63459 5.76029 10.4651 7.17936 10.4651C8.59843 10.4651 9.8241 9.63459 10.3951 8.43236C10.5433 8.11924 10.4102 7.74417 10.097 7.59599C9.78392 7.44697 9.40885 7.58008 9.26066 7.8932Z" fill="#626972"/>
</svg>
