<svg width="18" height="18" viewBox="0 0 18 18" fill="none" xmlns="http://www.w3.org/2000/svg">
<path d="M14.0073 7.62797C12.9487 8.63309 11.5533 8.50478 10.6605 7.62262C10.2007 8.07707 9.65001 8.33369 9.00309 8.33904C8.35083 8.33904 7.80016 8.08241 7.34036 7.62797C6.32455 8.60101 4.93449 8.5422 3.98817 7.62797C3.60858 8.01291 3.1381 8.23211 2.59811 8.31766C2.59811 8.40854 2.59811 8.47805 2.59811 8.5529C2.59811 10.8732 2.59811 13.1882 2.59811 15.5086C2.59811 16.2838 2.99375 16.6794 3.76897 16.6794C6.10535 16.6794 8.44707 16.6794 10.7834 16.6794C10.9011 16.6794 11.0294 16.6848 11.1363 16.7168C11.4036 16.8024 11.5801 17.0857 11.5587 17.3531C11.5373 17.6418 11.3234 17.8824 11.0401 17.9358C10.9545 17.9519 10.869 17.9572 10.7834 17.9572C8.43103 17.9572 6.07862 17.9572 3.7262 17.9572C2.54465 17.9572 1.63041 17.2515 1.37379 16.1394C1.32567 15.9309 1.31498 15.7171 1.30963 15.5032C1.30428 13.0973 1.30428 10.6915 1.30963 8.28558C1.30963 8.14122 1.26686 8.06637 1.14389 7.98618C0.416783 7.53173 0.0478815 6.87413 0.00511032 6.01336C-0.0269681 5.32367 0.0906527 4.68745 0.395397 4.06192C0.780338 3.26531 1.09578 2.43127 1.45398 1.61862C1.92981 0.565381 2.7585 0.0040098 3.92402 0.0040098C7.30829 -0.0013366 10.6872 -0.0013366 14.0715 0.0040098C15.2316 0.0040098 16.055 0.560035 16.5308 1.61328C17.0013 2.66652 17.4504 3.73045 17.8995 4.79438C17.9583 4.92804 17.9797 5.08843 17.9797 5.23813C17.9743 5.66584 18.0064 6.10425 17.9155 6.51592C17.5306 8.28558 15.4348 8.93249 14.0982 7.70817C14.0661 7.68143 14.0394 7.6547 14.0073 7.62797ZM13.3497 5.79416C12.66 5.79416 11.9864 5.79416 11.3074 5.79416C11.2646 6.25929 11.3715 6.64958 11.7779 6.90086C12.1468 7.12541 12.5317 7.12006 12.8953 6.89017C13.2909 6.63354 13.3925 6.2486 13.3497 5.79416ZM7.98728 5.79416C7.90708 6.26999 8.08886 6.6977 8.46846 6.9169C8.83201 7.12541 9.30784 7.09333 9.63397 6.8367C9.94941 6.59077 10.0938 6.14167 9.97614 5.77812C9.33992 5.77812 8.69835 5.77812 8.05678 5.77812C8.0354 5.77812 8.01401 5.78881 7.98728 5.79416ZM14.6596 5.78881C14.6061 6.24325 14.7077 6.6175 15.0926 6.88482C15.4295 7.11472 15.9053 7.11472 16.2421 6.88482C16.6271 6.62285 16.7286 6.24325 16.6859 5.78881C16.0069 5.78881 15.3386 5.78881 14.6596 5.78881ZM3.34126 5.78881C2.65692 5.78881 1.98328 5.78881 1.30963 5.78881C1.26151 6.25395 1.36844 6.64423 1.76942 6.89551C2.12763 7.12006 2.51257 7.12006 2.87078 6.89551C3.2771 6.64958 3.38403 6.25929 3.34126 5.78881ZM4.65647 5.78346C4.57628 6.25929 4.74736 6.67631 5.11092 6.90086C5.46378 7.12006 5.9503 7.09868 6.28178 6.8474C6.60791 6.60146 6.75761 6.1684 6.65068 5.78346C5.98773 5.78346 5.31943 5.78346 4.65647 5.78346Z" fill="#27292B"/>
<path d="M14.2747 9.31201C16.2689 9.31736 17.7712 10.6807 17.9476 12.4129C18.0652 13.5677 17.7284 14.6049 17.1243 15.5673C16.5629 16.4601 15.8305 17.1979 14.975 17.8128C14.6329 18.0587 14.3923 18.0641 14.0608 17.8181C12.7937 16.8825 11.7618 15.7544 11.2753 14.22C10.869 12.9422 10.9652 11.7179 11.8207 10.6326C12.5103 9.76646 13.4246 9.32805 14.2747 9.31201ZM13.6117 12.8192C13.6064 13.3432 14.0127 13.7656 14.5206 13.7656C15.0178 13.7656 15.4241 13.3539 15.4295 12.8406C15.4348 12.3167 15.0285 11.8943 14.5206 11.8943C14.0234 11.8943 13.6117 12.306 13.6117 12.8192Z" fill="#27292B"/>
<path d="M6.43147 10.269C7.04096 10.269 7.64511 10.269 8.2546 10.269C8.70904 10.269 8.96567 10.5256 8.96567 10.9747C8.96567 11.9959 8.96567 13.017 8.96567 14.0382C8.96567 14.4926 8.71438 14.7546 8.25994 14.7546C7.03027 14.7599 5.8006 14.7599 4.57093 14.7546C4.11648 14.7546 3.8652 14.4926 3.8652 14.0435C3.8652 13.0224 3.8652 12.0012 3.8652 10.98C3.8652 10.5149 4.11114 10.269 4.58697 10.269C5.2018 10.2636 5.81664 10.269 6.43147 10.269Z" fill="#27292B"/>
</svg>
