<svg width="20" height="20" viewBox="0 0 20 20" fill="none" xmlns="http://www.w3.org/2000/svg">
<path d="M0.234756 20C0.0107978 19.8385 -0.051702 19.6875 0.042048 19.5156C0.125381 19.3646 0.266006 19.3333 0.422256 19.3333C1.31288 19.3333 2.20351 19.3333 3.09934 19.3333C3.16705 19.3333 3.23996 19.3333 3.32851 19.3333C3.32851 19.224 3.32851 19.1354 3.32851 19.0469C3.32851 12.8854 3.32851 6.71875 3.32851 0.557292C3.32851 0.46875 3.33371 0.375 3.34413 0.286458C3.37017 0.114583 3.48476 0.0260417 3.65142 0.00520833C3.70871 0 3.77121 0 3.82851 0C6.60976 0 9.3858 0 12.167 0C12.5785 0 12.667 0.0885417 12.667 0.510417C12.667 2.92708 12.667 5.33854 12.667 7.75521C12.667 7.83333 12.667 7.90625 12.667 8.00521C12.766 8.00521 12.8441 8.00521 12.917 8.00521C14.3441 8.00521 15.766 8.00521 17.1931 8.00521C17.5681 8.00521 17.667 8.10417 17.667 8.47917C17.667 12.0052 17.667 15.5365 17.667 19.0625C17.667 19.1458 17.667 19.2292 17.667 19.3385C17.8337 19.3385 17.9795 19.3385 18.1254 19.3385C18.5941 19.3385 19.0629 19.3438 19.5316 19.3333C19.74 19.3281 19.9014 19.3854 20.0004 19.5729C20.0004 19.7135 20.0004 19.8594 20.0004 20C13.4118 20 6.8233 20 0.234756 20ZM8.32851 19.3281C8.32851 19.224 8.32851 19.1406 8.32851 19.0573C8.32851 15.5573 8.32851 12.0521 8.32851 8.55208C8.32851 8.07812 8.40663 8.00521 8.86497 8.00521C9.83372 8.00521 10.8025 8.00521 11.7764 8.00521C11.8441 8.00521 11.9118 8.00521 11.9795 8.00521C11.9795 5.54687 11.9795 3.11458 11.9795 0.682292C9.31288 0.682292 6.66184 0.682292 4.00559 0.682292C4.00559 6.90625 4.00559 13.1094 4.00559 19.3229C4.33892 19.3229 4.66184 19.3229 4.99517 19.3229C4.99517 19.2396 4.99517 19.1719 4.99517 19.099C4.99517 18.2031 4.99517 17.3021 4.99517 16.4062C4.99517 15.7656 5.39621 15.3594 6.03684 15.3385C6.21392 15.3333 6.3858 15.3333 6.56288 15.3385C7.26601 15.349 7.65663 15.7448 7.65663 16.4479C7.65663 17.3385 7.65663 18.2292 7.65663 19.125C7.65663 19.1927 7.65663 19.2604 7.65663 19.3333C7.89621 19.3281 8.09934 19.3281 8.32851 19.3281ZM9.0108 19.3229C11.6775 19.3229 14.3337 19.3229 16.9795 19.3229C16.9795 15.7656 16.9795 12.224 16.9795 8.68229C14.3129 8.68229 11.667 8.68229 9.0108 8.68229C9.0108 12.2292 9.0108 15.7656 9.0108 19.3229ZM6.97434 19.3229C6.98476 19.2969 6.98997 19.2865 6.98997 19.276C6.98997 18.3021 6.99517 17.3229 6.98997 16.349C6.98997 16.1354 6.86496 16.0156 6.64621 16.0052C6.46913 15.9948 6.29726 16 6.12017 16C5.76601 16 5.66184 16.1094 5.66184 16.4688C5.66184 17.3542 5.66184 18.2396 5.66184 19.1198C5.66184 19.1823 5.66184 19.2448 5.66184 19.3177C6.11496 19.3229 6.54205 19.3229 6.97434 19.3229Z" fill="#626972"/>
<path d="M9.68274 4.66683C9.97441 4.66683 10.2661 4.66683 10.5629 4.66683C10.8807 4.67204 11.0004 4.78662 11.0057 5.09912C11.0109 5.70329 11.0109 6.30745 11.0057 6.91162C11.0057 7.2137 10.8754 7.3335 10.5734 7.3335C9.9692 7.3387 9.36503 7.3387 8.76086 7.3335C8.4692 7.3335 8.33899 7.2085 8.33899 6.91683C8.33378 6.30745 8.33378 5.69287 8.33899 5.0835C8.33899 4.78662 8.45878 4.66683 8.75566 4.66162C9.05774 4.66162 9.37024 4.66683 9.68274 4.66683ZM9.01086 5.34912C9.01086 5.79183 9.01086 6.21891 9.01086 6.65641C9.45357 6.65641 9.88586 6.65641 10.3234 6.65641C10.3234 6.2137 10.3234 5.79183 10.3234 5.34912C9.88066 5.34912 9.45357 5.34912 9.01086 5.34912Z" fill="#626972"/>
<path d="M7.66182 6.01042C7.66182 6.31771 7.66182 6.61979 7.66182 6.92708C7.65662 7.19792 7.54203 7.32813 7.27641 7.33333C6.6462 7.33854 6.01599 7.33854 5.38578 7.33333C5.12537 7.32813 5.00557 7.19792 5.00037 6.94271C4.99516 6.3125 4.99516 5.68229 5.00037 5.05208C5.00037 4.80208 5.12016 4.67188 5.37016 4.67188C6.01599 4.66146 6.65662 4.66146 7.30245 4.67188C7.55245 4.67708 7.66182 4.80208 7.66182 5.05729C7.66703 5.375 7.66182 5.69271 7.66182 6.01042ZM6.98474 6.66146C6.98474 6.21354 6.98474 5.78646 6.98474 5.34896C6.54203 5.34896 6.11495 5.34896 5.67745 5.34896C5.67745 5.79167 5.67745 6.22396 5.67745 6.66146C6.12016 6.66146 6.54724 6.66146 6.98474 6.66146Z" fill="#626972"/>
<path d="M9.66186 4.00033C9.34937 4.00033 9.03687 4.00553 8.72437 4.00033C8.46395 3.99512 8.33374 3.88053 8.33374 3.62012C8.32853 2.98991 8.32853 2.3597 8.33374 1.72949C8.33895 1.46387 8.46916 1.33887 8.73999 1.33887C9.35978 1.33366 9.97436 1.33366 10.5942 1.33887C10.8754 1.33887 11.0004 1.46387 11.0056 1.74512C11.0108 2.36491 11.0108 2.97949 11.0056 3.59928C11.0056 3.89095 10.8806 4.00553 10.5837 4.00553C10.2712 4.00033 9.96395 4.00033 9.66186 4.00033ZM10.3233 3.32324C10.3233 2.88053 10.3233 2.44824 10.3233 2.01074C9.88062 2.01074 9.44832 2.01074 9.01603 2.01074C9.01603 2.45345 9.01603 2.88574 9.01603 3.32324C9.44832 3.32324 9.8702 3.32324 10.3233 3.32324Z" fill="#626972"/>
<path d="M6.34416 10.6665C6.02645 10.6665 5.70874 10.6717 5.39103 10.6665C5.13061 10.6613 5.00562 10.5415 5.00562 10.2811C5.00041 9.65088 5.00041 9.02067 5.00562 8.39046C5.00562 8.13005 5.13061 8.01025 5.39103 8.01025C6.02124 8.00505 6.65145 8.00505 7.28166 8.01025C7.54207 8.01025 7.66187 8.13005 7.66707 8.39567C7.67228 9.02588 7.67228 9.65609 7.66707 10.2863C7.66707 10.5467 7.54207 10.6665 7.28166 10.6717C6.96916 10.6665 6.65666 10.6665 6.34416 10.6665ZM6.98999 8.68213C6.54207 8.68213 6.10978 8.68213 5.6827 8.68213C5.6827 9.13005 5.6827 9.55713 5.6827 9.98942C6.12541 9.98942 6.55249 9.98942 6.98999 9.98942C6.98999 9.55192 6.98999 9.12484 6.98999 8.68213Z" fill="#626972"/>
<path d="M5.00037 2.65641C5.00037 2.34912 5.00037 2.04704 5.00037 1.73975C5.00557 1.4585 5.12537 1.3335 5.40662 1.3335C6.02641 1.32829 6.64099 1.32829 7.26078 1.3335C7.54203 1.3335 7.66182 1.4585 7.66182 1.73975C7.66703 2.35954 7.66703 2.97412 7.66182 3.59391C7.66182 3.88037 7.54724 3.99495 7.26078 4.00016C6.64099 4.00537 6.02641 4.00537 5.40662 4.00016C5.11495 4.00016 5.00037 3.87516 5.00037 3.57829C5.00037 3.271 5.00037 2.9637 5.00037 2.65641ZM6.98474 3.32308C6.98474 2.87516 6.98474 2.44808 6.98474 2.01058C6.54203 2.01058 6.10974 2.01058 5.67745 2.01058C5.67745 2.45329 5.67745 2.88558 5.67745 3.32308C6.12016 3.32308 6.54724 3.32308 6.98474 3.32308Z" fill="#626972"/>
<path d="M7.66182 12.6615C7.66182 12.974 7.66703 13.2865 7.66182 13.599C7.65662 13.875 7.54724 13.9948 7.2712 14C6.64099 14.0052 6.01078 14.0052 5.38057 14C5.12016 14 5.00037 13.8698 5.00037 13.6146C4.99516 12.9844 4.99516 12.3542 5.00037 11.724C5.00037 11.4792 5.13057 11.3438 5.37016 11.3438C6.01599 11.3385 6.65662 11.3385 7.30245 11.3438C7.53682 11.3438 7.65662 11.4792 7.66182 11.7135C7.66703 12.026 7.66182 12.3438 7.66182 12.6615ZM6.98995 12.0156C6.53683 12.0156 6.10974 12.0156 5.67745 12.0156C5.67745 12.4583 5.67745 12.8854 5.67745 13.3229C6.12016 13.3229 6.55245 13.3229 6.98995 13.3229C6.98995 12.8802 6.98995 12.4531 6.98995 12.0156Z" fill="#626972"/>
<path d="M14.6462 15.3335C14.3494 15.3335 14.0473 15.3387 13.7504 15.3335C13.4535 15.3283 13.3337 15.2085 13.3337 14.9168C13.3285 14.3075 13.3285 13.6929 13.3337 13.0835C13.3337 12.7918 13.4639 12.6668 13.7504 12.6616C14.3598 12.6564 14.9744 12.6564 15.5837 12.6616C15.8754 12.6616 16.0004 12.7866 16.0004 13.0783C16.0056 13.6877 16.0056 14.3022 16.0004 14.9116C16.0004 15.2085 15.8806 15.3231 15.5837 15.3283C15.2712 15.3387 14.9587 15.3335 14.6462 15.3335ZM14.0004 13.3439C14.0004 13.7606 13.9952 14.1616 14.0056 14.5627C14.0056 14.5991 14.0942 14.6616 14.1462 14.6616C14.4119 14.672 14.6775 14.6668 14.9431 14.6668C15.0681 14.6668 15.1931 14.6668 15.3233 14.6668C15.3233 14.2033 15.3233 13.7814 15.3233 13.3439C14.8858 13.3439 14.4587 13.3439 14.0004 13.3439Z" fill="#626972"/>
<path d="M12.6619 13.9951C12.6619 14.3076 12.6671 14.6201 12.6619 14.9326C12.6567 15.2087 12.5473 15.3337 12.2764 15.3337C11.6462 15.3389 11.016 15.3389 10.3858 15.3337C10.1254 15.3285 10.0056 15.2035 10.0056 14.943C10.0004 14.3128 10.0004 13.6826 10.0056 13.0524C10.0056 12.7972 10.1358 12.6722 10.3962 12.667C11.0264 12.6618 11.6567 12.6618 12.2869 12.667C12.5421 12.6722 12.6619 12.8024 12.6671 13.0576C12.6671 13.3701 12.6619 13.6826 12.6619 13.9951ZM10.6879 13.3441C10.6879 13.792 10.6879 14.2295 10.6879 14.6566C11.1306 14.6566 11.5525 14.6566 11.9848 14.6566C11.9848 14.2139 11.9848 13.7868 11.9848 13.3441C11.5473 13.3441 11.1202 13.3441 10.6879 13.3441Z" fill="#626972"/>
<path d="M14.6566 11.9951C14.3441 11.9951 14.0316 12.0003 13.7191 11.9951C13.4587 11.9899 13.3337 11.8753 13.3285 11.6149C13.3233 10.9847 13.3233 10.3545 13.3285 9.72428C13.3337 9.45866 13.4639 9.33887 13.7347 9.33887C14.3545 9.33887 14.9691 9.33887 15.5889 9.33887C15.8702 9.33887 15.9952 9.45866 16.0004 9.73991C16.0056 10.3597 16.0056 10.9743 16.0004 11.5941C16.0004 11.8857 15.8754 11.9951 15.5733 12.0003C15.2712 12.0003 14.9639 11.9951 14.6566 11.9951ZM15.3233 11.3232C15.3233 10.8805 15.3233 10.4482 15.3233 10.016C14.8806 10.016 14.4483 10.016 14.016 10.016C14.016 10.4587 14.016 10.8909 14.016 11.3232C14.4587 11.3232 14.8858 11.3232 15.3233 11.3232Z" fill="#626972"/>
<path d="M14.6671 18.672C14.3598 18.672 14.0577 18.672 13.7504 18.672C13.4587 18.6668 13.3337 18.547 13.3337 18.2554C13.3285 17.646 13.3285 17.0314 13.3337 16.422C13.3337 16.1252 13.4535 16.0106 13.7504 16.0054C14.3598 16.0002 14.9744 16.0002 15.5837 16.0054C15.8806 16.0054 16.0004 16.1252 16.0004 16.4168C16.0056 17.0262 16.0056 17.6408 16.0004 18.2502C16.0004 18.5522 15.8702 18.6668 15.5629 18.672C15.266 18.672 14.9692 18.672 14.6671 18.672ZM15.3233 16.6825C14.8702 16.6825 14.4483 16.6825 14.0108 16.6825C14.0108 17.1252 14.0108 17.5575 14.0108 17.9897C14.4535 17.9897 14.8858 17.9897 15.3233 17.9897C15.3233 17.547 15.3233 17.12 15.3233 16.6825Z" fill="#626972"/>
<path d="M11.3337 11.995C11.0212 11.995 10.7087 12.0002 10.3962 11.995C10.1254 11.9897 10.0004 11.87 10.0004 11.5991C9.99516 10.9741 9.99516 10.3491 10.0004 9.72933C10.0004 9.4585 10.1254 9.3387 10.3962 9.3335C11.0212 9.32829 11.6462 9.32829 12.266 9.3335C12.5368 9.3335 12.6566 9.45329 12.6566 9.72933C12.6618 10.3543 12.6618 10.9793 12.6566 11.5991C12.6566 11.8752 12.5368 11.9897 12.2608 11.9897C11.9587 12.0002 11.6462 11.995 11.3337 11.995ZM11.9847 11.3231C11.9847 10.8752 11.9847 10.4429 11.9847 10.0158C11.5368 10.0158 11.1097 10.0158 10.6774 10.0158C10.6774 10.4585 10.6774 10.8856 10.6774 11.3231C11.1149 11.3231 11.542 11.3231 11.9847 11.3231Z" fill="#626972"/>
<path d="M12.6618 17.3283C12.6618 17.6408 12.667 17.9533 12.6618 18.2658C12.6566 18.547 12.5368 18.6668 12.2556 18.6668C11.6462 18.672 11.0316 18.672 10.4222 18.6668C10.1254 18.6668 10.0004 18.5418 10.0004 18.2554C10.0004 17.6356 9.99515 17.021 10.0004 16.4012C10.0004 16.1304 10.1202 16.0054 10.391 16.0054C11.0212 16.0002 11.6514 16.0002 12.2816 16.0054C12.542 16.0054 12.6566 16.1304 12.6618 16.396C12.667 16.7085 12.6618 17.0158 12.6618 17.3283ZM11.9795 17.995C11.9795 17.5418 11.9795 17.1095 11.9795 16.6825C11.5368 16.6825 11.1097 16.6825 10.6774 16.6825C10.6774 17.1252 10.6774 17.5575 10.6774 17.995C11.1202 17.995 11.542 17.995 11.9795 17.995Z" fill="#626972"/>
</svg>
