<svg width="16" height="14" viewBox="0 0 16 14" fill="none" xmlns="http://www.w3.org/2000/svg">
<path d="M6.33383 1.89042L4.9074 3.31684H2.17722V11.8754H13.5886V3.31684H10.8585L9.43202 1.89042H6.33383ZM5.74329 0.463989H10.0226L11.449 1.89042H14.3018C14.491 1.89042 14.6724 1.96556 14.8062 2.09931C14.9399 2.23306 15.0151 2.41447 15.0151 2.60363V12.5886C15.0151 12.7778 14.9399 12.9592 14.8062 13.0929C14.6724 13.2267 14.491 13.3018 14.3018 13.3018H1.46401C1.27485 13.3018 1.09344 13.2267 0.959689 13.0929C0.825935 12.9592 0.750793 12.7778 0.750793 12.5886V2.60363C0.750793 2.41447 0.825935 2.23306 0.959689 2.09931C1.09344 1.96556 1.27485 1.89042 1.46401 1.89042H4.31686L5.74329 0.463989ZM7.88293 11.1622C6.84257 11.1622 5.84482 10.7489 5.10918 10.0133C4.37353 9.27762 3.96025 8.27987 3.96025 7.23951C3.96025 6.19916 4.37353 5.20141 5.10918 4.46577C5.84482 3.73012 6.84257 3.31684 7.88293 3.31684C8.92328 3.31684 9.92103 3.73012 10.6567 4.46577C11.3923 5.20141 11.8056 6.19916 11.8056 7.23951C11.8056 8.27987 11.3923 9.27762 10.6567 10.0133C9.92103 10.7489 8.92328 11.1622 7.88293 11.1622ZM7.88293 9.73576C8.54497 9.73576 9.1799 9.47276 9.64804 9.00463C10.1162 8.53649 10.3792 7.90156 10.3792 7.23951C10.3792 6.57747 10.1162 5.94254 9.64804 5.4744C9.1799 5.00627 8.54497 4.74327 7.88293 4.74327C7.22088 4.74327 6.58595 5.00627 6.11781 5.4744C5.64968 5.94254 5.38668 6.57747 5.38668 7.23951C5.38668 7.90156 5.64968 8.53649 6.11781 9.00463C6.58595 9.47276 7.22088 9.73576 7.88293 9.73576Z" fill="white"/>
</svg>
