<svg width="18" height="18" viewBox="0 0 18 18" fill="none" xmlns="http://www.w3.org/2000/svg">
<g clip-path="url(#clip0_197_2748)">
<path d="M17.9952 9.81295C17.4389 9.81295 16.8825 9.81295 16.3454 9.81295C15.6643 13.506 13.5012 15.6739 9.80819 16.3597C9.80819 16.8873 9.80819 17.4388 9.80819 18C9.25663 18 8.72905 18 8.17749 18C8.17749 17.4436 8.17749 16.8873 8.17749 16.3597C4.48445 15.6739 2.31658 13.5108 1.63553 9.82254C1.38613 9.82254 1.10795 9.82254 0.834568 9.82254C0.561187 9.82254 0.283009 9.82254 -0.00476074 9.82254C-0.00476074 9.27578 -0.00476074 8.74341 -0.00476074 8.19185C0.551594 8.19185 1.09836 8.19185 1.63553 8.19185C2.31658 4.50839 4.47965 2.34053 8.18229 1.64988C8.18229 1.1223 8.18229 0.561151 8.18229 0C8.71946 0 9.26143 0 9.7986 0C9.7986 0.561151 9.7986 1.11751 9.7986 1.64988C13.5012 2.34053 15.6643 4.5036 16.3454 8.19664C16.8825 8.19664 17.4389 8.19664 17.9952 8.19664C17.9952 8.73381 17.9952 9.27578 17.9952 9.81295ZM14.7243 8.9976C14.7099 5.83693 12.1343 3.26619 8.98805 3.27578C5.83697 3.28058 3.26143 5.85132 3.26143 9.0024C3.26143 12.1583 5.86095 14.753 9.00243 14.7338C12.1679 14.7146 14.7386 12.1391 14.7243 8.9976Z" fill="#EEAC45"/>
<path d="M8.99758 12.2781C7.18943 12.2829 5.7218 10.8152 5.7218 9.00708C5.7218 7.19893 7.18943 5.7313 8.99758 5.7361C10.8009 5.74089 12.259 7.19893 12.2638 9.00228C12.2686 10.8056 10.8057 12.2733 8.99758 12.2781Z" fill="#EEAC45"/>
</g>
<defs>
<clipPath id="clip0_197_2748">
<rect width="17.9952" height="18" fill="white"/>
</clipPath>
</defs>
</svg>
