<svg width="20" height="20" viewBox="0 0 20 20" fill="none" xmlns="http://www.w3.org/2000/svg">
<g clip-path="url(#clip0_147_11523)">
<path d="M13.7777 16.9089C11.5944 16.9089 9.42834 16.9089 7.26229 16.9089C7.17611 18.9256 5.52142 20.0804 3.98163 20C2.49355 19.9195 1.09165 18.7532 1.02271 16.8974C0.827362 16.8974 0.62627 16.8974 0.430924 16.8974C0.120668 16.8974 -0.0114778 16.771 0.0057586 16.4665C0.0747043 14.8578 0.787143 13.6168 2.13733 12.7377C2.19478 12.6975 2.25798 12.663 2.33268 12.617C2.22926 12.5309 2.13158 12.4562 2.0454 12.3642C1.71216 11.985 1.62598 11.5484 1.82707 11.083C2.02817 10.6119 2.40737 10.3533 2.92446 10.3533C3.99312 10.3418 5.06178 10.3476 6.13618 10.3476C6.21087 10.3476 6.29131 10.3476 6.39473 10.3476C6.36025 10.2786 6.33153 10.2269 6.30855 10.181C6.06724 9.75005 5.99829 9.29616 6.15342 8.83077C6.82564 6.75091 8.10688 5.19963 10.1235 4.29759C10.7326 4.02756 11.3129 4.07352 11.8127 4.56189C12.1689 4.90661 12.5481 5.22836 12.8756 5.60182C13.1284 5.88334 13.4042 6.04422 13.7892 6.04996C13.7949 5.99825 13.7949 5.93505 13.8006 5.87185C13.8179 5.66502 13.9385 5.52713 14.1396 5.52713C14.9727 5.52138 15.8058 5.50989 16.6389 5.53287C17.1503 5.54436 17.5754 5.98676 17.5869 6.50386C17.5984 7.22779 17.5984 7.95172 17.5869 8.68139C17.5754 9.18699 17.1675 9.63514 16.6619 9.65238C15.7771 9.6811 14.898 9.66387 14.0132 9.66387C13.95 9.66387 13.8868 9.66387 13.8006 9.66387C13.8006 9.2387 13.7949 8.83652 13.8064 8.42859C13.8121 8.26772 13.7662 8.20452 13.6053 8.18153C13.2606 8.12983 12.9158 8.04364 12.5711 7.98044C12.347 7.94022 12.1689 7.85979 12.0195 7.68168C11.9046 7.54379 11.7725 7.42313 11.6174 7.27375C11.2899 7.83681 10.9681 8.38837 10.6234 8.97441C10.9451 8.97441 11.2152 8.97441 11.491 8.97441C12.1345 8.97441 12.5022 9.27892 12.6401 9.91092C12.7894 10.6119 12.979 11.3071 13.0767 12.0138C13.1457 12.5481 13.1342 13.1054 13.0825 13.6455C13.0365 14.1511 12.5826 14.4786 12.0655 14.4901C11.5025 14.5016 11.5025 14.5016 11.3875 13.9442C11.1865 12.9848 10.9739 12.0253 10.767 11.0543C10.6004 11.0543 10.4338 11.0543 10.2614 11.0543C10.5027 11.7954 10.2672 12.3413 9.56048 12.709C10.3074 13.3697 10.4166 14.2373 10.3419 15.1795C10.8819 15.1795 11.3875 15.1795 11.8931 15.1795C12.0598 15.1795 12.2264 15.1738 12.3873 15.1451C13.2146 14.9957 13.7949 14.3062 13.8006 13.4616C13.8064 12.5136 13.8006 11.5656 13.8006 10.6176C13.8006 10.5372 13.8006 10.4625 13.8006 10.3648C13.8638 10.3591 13.9156 10.3476 13.973 10.3476C14.6452 10.3476 15.3232 10.3533 15.9954 10.3418C16.1391 10.3418 16.1908 10.3878 16.2252 10.5199C16.5068 11.5369 16.8113 12.5423 17.0928 13.5593C17.1388 13.7259 17.2135 13.7949 17.3858 13.8236C18.9314 14.0764 20.0173 15.3749 20 16.9319C19.9828 18.5579 18.7073 19.8736 17.0296 19.9827C15.4841 20.0862 14.042 18.8854 13.8294 17.3226C13.8064 17.1904 13.7949 17.0583 13.7777 16.9089ZM4.1425 14.4843C2.80381 14.4843 1.72366 15.5702 1.72366 16.9089C1.72366 18.2246 2.80955 19.3105 4.11952 19.3105C5.46971 19.3163 6.5556 18.2246 6.54985 16.8744C6.54411 15.5645 5.45821 14.4843 4.1425 14.4843ZM14.4786 16.8974C14.4786 18.2246 15.5645 19.3105 16.886 19.3105C18.2247 19.3105 19.3048 18.2304 19.3048 16.8859C19.3048 15.5702 18.2247 14.4843 16.9089 14.4843C15.5645 14.4786 14.4844 15.5587 14.4786 16.8974Z" fill="#626972"/>
<path d="M5.51566 9.65235C3.66561 9.65235 1.85004 9.65235 0.011491 9.65235C0.00574548 9.57766 0 9.50871 0 9.43977C0 8.29067 0 7.14158 0 5.99823C0 5.63626 0.109164 5.5271 0.476874 5.5271C1.99943 5.5271 3.52198 5.5271 5.03878 5.5271C5.40649 5.5271 5.51566 5.63626 5.51566 5.99823C5.51566 7.14732 5.51566 8.29642 5.51566 9.43977C5.51566 9.50297 5.51566 9.56617 5.51566 9.65235Z" fill="#626972"/>
<path d="M16.1907 2.07416C15.4725 2.07416 14.7716 2.07416 14.0706 2.07416C14.0017 2.07416 13.927 2.07416 13.858 2.07416C13.5765 2.07991 13.4501 2.20056 13.4501 2.48209C13.4501 3.26922 13.4501 4.0621 13.4501 4.84923C13.4501 4.92967 13.4501 5.00436 13.4501 5.10203C12.594 4.94116 11.9678 4.49875 11.6173 3.72886C11.4852 3.4301 11.4162 3.08537 11.3932 2.75213C11.3645 2.35569 11.3645 1.94202 11.4277 1.55133C11.5599 0.672268 12.3297 0.0230295 13.2146 0.00579304C13.6857 -0.00569791 14.1683 -0.0229343 14.6337 0.0402659C15.6047 0.189648 16.2539 1.05147 16.1907 2.07416Z" fill="#626972"/>
<path d="M14.1396 4.88948C14.1396 4.17704 14.1396 3.48184 14.1396 2.77515C14.7314 2.77515 15.3175 2.77515 15.8978 2.77515C16.0816 3.70017 15.3002 4.84352 14.1396 4.88948Z" fill="#626972"/>
<path d="M4.13673 15.5186C4.90087 15.5186 5.51564 16.1391 5.51564 16.9032C5.51564 17.6616 4.88938 18.2821 4.12524 18.2764C3.37258 18.2706 2.75781 17.6559 2.75781 16.9032C2.75781 16.1391 3.37832 15.5186 4.13673 15.5186Z" fill="#626972"/>
<path d="M16.8975 18.2764C16.1333 18.2764 15.5128 17.6616 15.5128 16.8975C15.5128 16.1333 16.1333 15.5186 16.8975 15.5186C17.6501 15.5186 18.2649 16.1333 18.2706 16.886C18.2764 17.6501 17.6559 18.2706 16.8975 18.2764Z" fill="#626972"/>
</g>
<defs>
<clipPath id="clip0_147_11523">
<rect width="19.9943" height="20" fill="white"/>
</clipPath>
</defs>
</svg>
