<svg width="17" height="18" viewBox="0 0 17 18" fill="none" xmlns="http://www.w3.org/2000/svg">
<path d="M8.21508 0.318848C8.32937 0.318848 8.43942 0.318848 8.55371 0.318848C9.01085 0.390805 9.35793 0.649005 9.67116 0.970696C9.92513 1.23313 10.2003 1.47863 10.4585 1.73683C10.6024 1.87651 10.7717 1.93154 10.9664 1.90614C11.3897 1.84265 11.8172 1.78762 12.2362 1.7199C13.1674 1.57175 13.8912 2.05852 14.0775 2.98127C14.1621 3.40455 14.2383 3.83629 14.3018 4.2638C14.3399 4.51354 14.45 4.68708 14.6828 4.80137C15.0722 4.99607 15.4531 5.20348 15.8341 5.41089C16.6383 5.84686 16.905 6.67226 16.5113 7.49765C16.3251 7.8913 16.1346 8.28071 15.9399 8.6659C15.8256 8.886 15.8299 9.08918 15.9441 9.30928C16.1346 9.68177 16.3124 10.0585 16.4944 10.431C16.9177 11.2987 16.651 12.1283 15.8002 12.5812C15.4235 12.7844 15.0468 12.9876 14.6658 13.1823C14.4627 13.2881 14.3484 13.4405 14.3145 13.6648C14.2468 14.0754 14.1706 14.486 14.1029 14.8966C13.9463 15.8447 13.269 16.3696 12.3167 16.2595C11.8849 16.2087 11.4574 16.1452 11.0257 16.0775C10.7886 16.0394 10.5981 16.0902 10.4246 16.2637C10.1156 16.577 9.79391 16.8775 9.47645 17.1823C8.81614 17.8129 7.93995 17.8129 7.27964 17.1823C6.95371 16.869 6.62779 16.5558 6.3061 16.2426C6.16218 16.1029 5.9971 16.0436 5.79816 16.0733C5.37065 16.1368 4.93891 16.1918 4.5114 16.2595C3.58865 16.4034 2.86907 15.9167 2.68283 15.0024C2.59394 14.5706 2.52199 14.1389 2.45426 13.7029C2.41617 13.4616 2.30611 13.2923 2.08178 13.178C1.70083 12.9876 1.32411 12.7802 0.94739 12.577C0.117764 12.1325 -0.148901 11.2987 0.261679 10.4479C0.443689 10.0712 0.621466 9.69446 0.811941 9.32621C0.934692 9.09341 0.934692 8.886 0.816174 8.6532C0.617233 8.27225 0.435223 7.88707 0.248981 7.49765C-0.144668 6.67226 0.121997 5.84263 0.926226 5.40665C1.31141 5.19501 1.70083 4.98761 2.09024 4.78867C2.30188 4.68285 2.41193 4.522 2.45003 4.29343C2.51775 3.87439 2.58971 3.45957 2.6659 3.04476C2.83521 2.10508 3.51669 1.59292 4.45637 1.7072C4.88811 1.76223 5.31562 1.82572 5.74314 1.89344C5.97171 1.93154 6.16218 1.87651 6.32726 1.71143C6.57699 1.45747 6.84366 1.22466 7.09339 0.966464C7.41085 0.649005 7.75794 0.390805 8.21508 0.318848ZM12.2193 5.71565C12.1812 5.41089 11.9569 5.19078 11.6733 5.19078C11.4997 5.19078 11.377 5.2839 11.2627 5.39819C9.10397 7.55691 6.94948 9.71563 4.79076 11.8743C4.75266 11.9124 4.71034 11.9548 4.67647 12.0013C4.56642 12.1622 4.54949 12.34 4.63838 12.5135C4.72727 12.687 4.87541 12.7802 5.07436 12.7844C5.26906 12.7929 5.39605 12.6786 5.52303 12.5516C7.42355 10.6468 9.32831 8.74632 11.2288 6.84157C11.4828 6.5876 11.7452 6.33787 11.9907 6.0712C12.0881 5.97385 12.1431 5.8384 12.2193 5.71565ZM10.4034 9.82568C9.4045 9.81298 8.5664 10.6214 8.55371 11.6119C8.54101 12.6362 9.3537 13.4786 10.3738 13.487C11.3685 13.4955 12.2024 12.6786 12.2151 11.6881C12.2235 10.6638 11.4235 9.83838 10.4034 9.82568ZM6.37805 8.1495C7.38546 8.15373 8.21085 7.33257 8.21508 6.3294C8.21931 5.322 7.40239 4.49661 6.39922 4.48391C5.39605 4.47544 4.56219 5.2966 4.55372 6.29977C4.54526 7.32411 5.35795 8.14527 6.37805 8.1495Z" fill="white"/>
</svg>
