<svg width="9" height="6" viewBox="0 0 9 6" fill="none" xmlns="http://www.w3.org/2000/svg">
<path d="M0 0.863918C0.0186916 0.826111 0.0327103 0.788304 0.0514019 0.755222C0.17757 0.490572 0.514019 0.419684 0.738318 0.603994C0.771028 0.632349 0.803738 0.660704 0.836449 0.693786C2.03271 1.90362 3.22897 3.10872 4.42991 4.31855C4.45327 4.34218 4.47196 4.37053 4.52804 4.41307C4.54673 4.37999 4.55607 4.3469 4.57944 4.31855C5.78037 3.10399 6.98598 1.88944 8.18692 0.674882C8.36916 0.490572 8.58411 0.452765 8.7757 0.56146C9.01869 0.703237 9.07477 1.0246 8.90187 1.24199C8.87383 1.27507 8.84579 1.30343 8.81776 1.33178C7.50467 2.65976 6.18692 3.98774 4.87383 5.31099C4.63551 5.55201 4.37383 5.55201 4.13551 5.31099C2.83645 4.00664 1.54206 2.70229 0.242991 1.39322C0.140187 1.28925 0.0420561 1.18528 0 1.0435C0 0.982065 0 0.925355 0 0.863918Z" fill="#27292B"/>
</svg>
