<svg width="19" height="18" viewBox="0 0 19 18" fill="none" xmlns="http://www.w3.org/2000/svg">
<g clip-path="url(#clip0_64_397)">
<path d="M18.8082 13.4106C18.769 13.5967 18.7347 13.7779 18.6857 13.9592C18.2743 15.4579 16.9176 16.5159 15.3551 16.5257C13.7094 16.5355 12.0637 16.5306 10.4131 16.5306C10.369 16.5306 10.3298 16.5257 10.2906 16.5257C9.93797 15.5167 9.76164 15.3453 8.82613 15.0612C8.82613 14.4538 8.82613 13.8465 8.82613 13.2294C8.86531 13.2196 8.9045 13.2049 8.94368 13.1951C9.65878 13.053 10.1927 12.4996 10.2661 11.76C10.3053 11.3632 10.3004 10.9469 10.2465 10.5502C10.1388 9.7665 9.45307 9.19834 8.6596 9.18854C8.11593 9.17875 7.57225 9.18854 6.9845 9.18854C7.14123 8.90446 7.27837 8.63997 7.43021 8.38528C7.88572 7.63589 8.42939 6.94528 9.06613 6.34283C9.12001 6.28895 9.21307 6.24977 9.28654 6.24977C11.3486 6.24487 13.4106 6.24487 15.4776 6.24977C15.5559 6.24977 15.6539 6.29875 15.7127 6.35752C17.182 7.78773 18.1274 9.51181 18.5829 11.5053C18.6759 11.902 18.7347 12.3085 18.8082 12.7102C18.8082 12.9453 18.8082 13.1755 18.8082 13.4106ZM12.818 7.71916C12.8131 7.65058 12.8131 7.54283 12.7935 7.44487C12.7543 7.21956 12.5682 7.07262 12.338 7.07752C12.0735 7.08242 11.8874 7.27344 11.8971 7.57711C11.902 7.76324 11.8531 7.8416 11.6669 7.91507C11.0841 8.15018 10.7608 8.61058 10.6923 9.22773C10.6237 9.84487 10.8637 10.3249 11.4074 10.6432C11.52 10.7069 11.6278 10.7755 11.7453 10.8245C11.8482 10.8685 11.8923 10.9273 11.8923 11.0449C11.8874 11.613 11.8923 12.1812 11.8874 12.7494C11.8874 12.7934 11.8776 12.8424 11.8678 12.9502C11.6327 12.8375 11.4318 12.7396 11.2261 12.6367C10.9861 12.5143 10.7314 12.573 10.5992 12.7836C10.4669 12.9943 10.5159 13.2783 10.7461 13.4057C11.0155 13.5575 11.2996 13.6849 11.5935 13.7877C11.8678 13.8808 11.8727 13.8563 11.8923 14.1502C11.9069 14.4147 12.0882 14.591 12.3331 14.5959C12.5829 14.6008 12.8082 14.4343 12.7935 14.1747C12.7788 13.871 12.9159 13.773 13.1657 13.6506C13.8955 13.2979 14.2531 12.6808 14.2188 11.8677C14.1894 11.089 13.7339 10.6187 13.0286 10.3592C12.9992 10.3494 12.9698 10.3347 12.9404 10.3298C12.8278 10.3102 12.8033 10.2416 12.8033 10.1338C12.8082 9.71752 12.8033 9.3012 12.8082 8.88487C12.8082 8.84079 12.818 8.79671 12.8278 8.71344C12.9453 8.8016 13.0384 8.87018 13.1314 8.93385C13.2833 9.0416 13.4498 9.0612 13.6163 8.96813C13.7829 8.87997 13.8906 8.73303 13.8465 8.55181C13.8123 8.40977 13.7339 8.23834 13.6212 8.15997C13.3812 7.99344 13.1069 7.87589 12.818 7.71916Z" fill="#27292B"/>
<path d="M5.33389 12.1226C4.26124 12.1226 3.19348 12.1226 2.12083 12.1226C1.67512 12.1226 1.4743 11.9169 1.4743 11.4712C1.4743 11.2654 1.4694 11.0548 1.4743 10.8491C1.4792 10.5259 1.7045 10.2908 2.03267 10.2908C4.23185 10.2859 6.42614 10.2908 8.62532 10.2908C8.96328 10.2908 9.18369 10.521 9.18858 10.8589C9.19348 11.0793 9.18858 11.2997 9.18858 11.5201C9.18858 11.9022 8.96818 12.1275 8.58614 12.1275C7.49879 12.1226 6.41634 12.1226 5.33389 12.1226Z" fill="#27292B"/>
<path d="M3.8596 15.0613C2.78695 15.0613 1.71919 15.0613 0.646541 15.0613C0.210622 15.0613 0.00490808 14.8556 1.01225e-05 14.4246C1.01225e-05 14.2091 -0.00488784 13.9985 1.01225e-05 13.783C0.00490808 13.4597 0.235112 13.2295 0.558377 13.2295C2.75756 13.2295 4.95185 13.2295 7.15103 13.2295C7.48409 13.2295 7.7094 13.4646 7.7143 13.8026C7.71919 14.0279 7.71919 14.2532 7.7143 14.4834C7.7094 14.8409 7.48409 15.0662 7.12654 15.0662C6.03919 15.0613 4.94695 15.0613 3.8596 15.0613Z" fill="#27292B"/>
<path d="M5.34859 16.1633C6.41144 16.1633 7.4792 16.1633 8.54205 16.1633C8.97797 16.1633 9.18369 16.369 9.18369 16.8001C9.18369 17.0058 9.18859 17.2164 9.18369 17.4221C9.17879 17.7601 8.95838 17.9952 8.62042 17.9952C6.42124 17.9952 4.22695 17.9952 2.02777 17.9952C1.69961 17.9952 1.4743 17.765 1.4694 17.4417C1.4645 17.2115 1.4645 16.9764 1.4694 16.7462C1.4743 16.3886 1.69961 16.1633 2.05716 16.1633C3.1543 16.1633 4.25144 16.1633 5.34859 16.1633Z" fill="#27292B"/>
<path d="M12.3772 2.39025C11.6816 2.39025 10.9812 2.39515 10.2857 2.38536C10.2025 2.38536 10.0947 2.34128 10.0359 2.2776C9.68818 1.92495 9.43838 1.50862 9.27185 1.04332C9.19838 0.837602 9.22287 0.646582 9.36491 0.475153C9.51675 0.298826 9.71267 0.244949 9.92818 0.303724C10.6972 0.504541 11.4319 0.421275 12.1323 0.0637245C12.3037 -0.0244388 12.4751 -0.0195408 12.6416 0.0686224C13.3421 0.426173 14.0719 0.504541 14.831 0.303724C15.0465 0.249847 15.2474 0.298827 15.3992 0.470255C15.551 0.641684 15.5706 0.837602 15.4923 1.05311C15.3257 1.50862 15.0808 1.91025 14.7527 2.26291C14.6743 2.35107 14.591 2.39025 14.4686 2.38536C13.7682 2.38536 13.0727 2.39025 12.3772 2.39025Z" fill="#27292B"/>
<path d="M12.3772 5.1428C11.4906 5.1428 10.6041 5.1477 9.71267 5.1428C9.27675 5.1379 8.9241 4.80484 8.88981 4.38362C8.86042 3.96239 9.1445 3.59015 9.56573 3.50688C9.6294 3.49219 9.69797 3.49219 9.76655 3.49219C11.5053 3.49219 13.2441 3.49219 14.9829 3.49219C15.4972 3.49219 15.8694 3.83994 15.8694 4.31994C15.8694 4.79504 15.4972 5.1477 14.9829 5.1477C14.1159 5.1428 13.2441 5.1428 12.3772 5.1428Z" fill="#27292B"/>
<path d="M12.8228 12.8131C12.8228 12.2743 12.8228 11.7845 12.8228 11.2703C13.102 11.3878 13.2685 11.569 13.3028 11.858C13.342 12.2548 13.1804 12.5633 12.8228 12.8131Z" fill="#27292B"/>
<path d="M11.8775 9.83024C11.7012 9.76167 11.6179 9.63922 11.6032 9.46779C11.5837 9.22289 11.662 9.01718 11.8775 8.83105C11.8775 9.17881 11.8775 9.49228 11.8775 9.83024Z" fill="#27292B"/>
</g>
<defs>
<clipPath id="clip0_64_397">
<rect width="18.8082" height="18" fill="white"/>
</clipPath>
</defs>
</svg>
