<svg width="19" height="18" viewBox="0 0 19 18" fill="none" xmlns="http://www.w3.org/2000/svg">
<path d="M18.0011 9.00577C17.9661 13.966 14.0659 17.8612 9.27066 17.9963C4.15539 18.1413 0.0301714 14.061 0.000169765 9.05078C-0.0298318 4.10551 3.92038 0.0402992 8.91064 0.000297043C13.9509 -0.0397051 17.9761 3.96551 18.0011 9.00577ZM15.451 13.356C17.4911 10.4709 17.3611 5.91061 14.0859 3.07546C10.8607 0.285312 5.93548 0.635331 3.13034 3.8655C0.405191 7.00567 0.905218 11.1459 2.56531 13.346C6.10049 9.74581 11.9308 9.76581 15.451 13.356Z" fill="#27292B"/>
<path d="M12.6059 6.0007C12.6109 7.9708 10.9908 9.59589 9.02066 9.59589C7.03555 9.59589 5.41047 7.9908 5.40547 6.0307C5.40047 4.00559 7.00055 2.40051 9.02566 2.39551C10.9908 2.39551 12.6009 4.01559 12.6059 6.0007Z" fill="#27292B"/>
</svg>
