<svg width="16" height="18" viewBox="0 0 16 18" fill="none" xmlns="http://www.w3.org/2000/svg">
<path d="M7.98043 0C8.14441 0.0702759 8.24279 0.196772 8.31307 0.36075C8.47236 0.730869 8.65039 1.09162 8.80968 1.46174C8.85653 1.56481 8.90807 1.61166 9.0252 1.62103C9.45154 1.65851 9.87319 1.71473 10.2995 1.76158C10.4869 1.78501 10.6415 1.86465 10.7024 2.05206C10.768 2.24414 10.7025 2.40344 10.5525 2.5393C10.2433 2.81572 9.94347 3.10619 9.62957 3.37793C9.51713 3.47631 9.4937 3.57002 9.5265 3.71057C9.61552 4.11348 9.69048 4.52577 9.77949 4.92868C9.82166 5.12077 9.77481 5.28006 9.6202 5.3925C9.47028 5.50494 9.3063 5.49557 9.14233 5.40187C8.76284 5.18636 8.37866 4.97553 7.99917 4.75534C7.90547 4.69911 7.83519 4.7038 7.74618 4.75534C7.37606 4.97085 7.00125 5.17231 6.63113 5.38782C6.45778 5.4862 6.28913 5.51432 6.12046 5.3925C5.95649 5.27069 5.91901 5.10672 5.96117 4.90994C6.05019 4.50703 6.12515 4.09474 6.21417 3.69183C6.24228 3.56533 6.22822 3.481 6.12046 3.3873C5.80188 3.11088 5.49735 2.81572 5.18814 2.53462C5.03821 2.39875 4.97731 2.23946 5.03821 2.04737C5.09912 1.85997 5.25373 1.78032 5.44113 1.76158C5.87216 1.71473 6.2985 1.6632 6.72952 1.62103C6.83259 1.61166 6.88413 1.56949 6.92161 1.48048C7.08559 1.10567 7.26361 0.740239 7.42759 0.36075C7.49787 0.196772 7.59626 0.0702759 7.76024 0C7.83988 0 7.91015 0 7.98043 0Z" fill="#27292B"/>
<path d="M9.11421 10.7148C9.27819 10.7148 9.41874 10.7148 9.55929 10.7148C10.7259 10.7148 11.8878 10.7101 13.0544 10.7194C13.7805 10.7241 14.3193 11.3145 14.2725 12.0406C14.2584 12.2796 14.1834 12.4436 13.9445 12.7996C14.3053 13.4883 14.2584 13.924 13.7665 14.4862C14.0897 15.1 14.0007 15.6481 13.4807 16.1401C13.6119 16.3931 13.6822 16.6695 13.6306 16.9599C13.5182 17.5831 13.0262 17.9953 12.3797 17.9953C10.8992 18 9.41874 17.9953 7.93826 18C7.34326 18 6.74357 18 6.14857 18C6.11578 18 6.07829 18 6.0455 18C5.64727 17.986 5.59105 17.9251 5.59105 17.5362C5.59105 15.0953 5.59105 12.6544 5.58636 10.2135C5.58636 10.0776 5.62384 9.97452 5.71286 9.86677C6.58428 8.84543 7.1137 7.66479 7.29173 6.32955C7.37137 5.72986 7.84456 5.46281 8.38803 5.71581C9.13295 6.0625 9.4937 6.68093 9.60614 7.46333C9.73732 8.40503 9.53118 9.31393 9.27819 10.2135C9.22197 10.3634 9.17043 10.5227 9.11421 10.7148Z" fill="#27292B"/>
<path d="M4.73369 14.2051C4.73369 15.2358 4.73369 16.2665 4.73369 17.2972C4.73369 17.7329 4.49476 17.9766 4.04967 17.9906C3.78731 17.9953 3.52495 17.9906 3.2579 17.9906C2.56919 17.9906 1.87581 17.9906 1.1871 17.9906C0.643638 17.9906 0.296943 17.6486 0.296943 17.1005C0.296943 15.1608 0.292258 13.2259 0.296943 11.2863C0.296943 10.7382 0.643638 10.4008 1.1871 10.4008C2.11943 10.4008 3.04707 10.3961 3.9794 10.4055C4.13869 10.4055 4.30267 10.4524 4.4479 10.518C4.64468 10.607 4.74307 10.7616 4.73838 11.0052C4.72901 12.0734 4.73369 13.1416 4.73369 14.2051ZM1.9414 12.3686C1.99293 12.3686 2.04447 12.3686 2.10069 12.3686C2.33963 12.3592 2.51298 12.1905 2.51766 11.961C2.52235 11.7314 2.35837 11.5487 2.12412 11.5299C2.0023 11.5206 1.88049 11.5206 1.75868 11.5299C1.52443 11.5534 1.36982 11.7408 1.37919 11.9703C1.38856 12.1905 1.55723 12.3545 1.79148 12.3639C1.83364 12.3732 1.88986 12.3686 1.9414 12.3686Z" fill="#27292B"/>
<path d="M11.7378 6.01564C11.7987 5.7158 11.8643 5.37379 11.9393 5.03178C11.9627 4.91465 11.9487 4.83969 11.855 4.75536C11.616 4.54922 11.3865 4.32902 11.1569 4.11819C11.0163 3.9917 10.9461 3.83709 11.007 3.64969C11.0679 3.4576 11.2131 3.37327 11.4005 3.34984C11.7238 3.31236 12.0517 3.2702 12.375 3.24209C12.4781 3.23272 12.5249 3.19055 12.5671 3.10154C12.6983 2.80638 12.8341 2.5159 12.9653 2.22543C13.045 2.04271 13.1715 1.93027 13.3823 1.93496C13.5837 1.93964 13.7009 2.05208 13.7805 2.22543C13.9117 2.51122 14.0476 2.79701 14.1694 3.08748C14.2115 3.19055 14.2678 3.2374 14.3849 3.24677C14.6988 3.2702 15.0127 3.31705 15.3266 3.34984C15.5234 3.37327 15.678 3.4576 15.7389 3.65437C15.7951 3.84177 15.7342 3.99638 15.5889 4.12756C15.3547 4.33839 15.1251 4.55859 14.8862 4.76473C14.7925 4.84438 14.7738 4.92402 14.8019 5.03647C14.8721 5.34568 14.9237 5.65489 14.9939 5.96411C15.0361 6.15619 14.994 6.31549 14.8347 6.43261C14.6847 6.54505 14.5208 6.54037 14.3568 6.44667C14.071 6.28738 13.7852 6.12808 13.5041 5.96411C13.4104 5.90789 13.3401 5.90789 13.2464 5.96411C12.9559 6.13745 12.6608 6.30612 12.3609 6.46541C12.0517 6.61065 11.7285 6.39982 11.7378 6.01564Z" fill="#27292B"/>
<path d="M2.4427 1.92554C2.57388 1.92554 2.70037 2.02392 2.78002 2.19259C2.92057 2.49711 3.06112 2.79696 3.19231 3.10149C3.23447 3.19519 3.28132 3.23267 3.38439 3.23735C3.70298 3.26546 4.02625 3.30763 4.34483 3.34511C4.5416 3.36854 4.69152 3.45287 4.75243 3.64964C4.81333 3.84173 4.73838 3.99165 4.59782 4.11815C4.36357 4.32897 4.134 4.54917 3.89975 4.76C3.81542 4.83496 3.78731 4.90992 3.81542 5.01768C3.88569 5.31752 3.94191 5.62205 4.00282 5.92658C4.0403 6.11867 4.02624 6.29201 3.85758 6.41851C3.68424 6.54501 3.51089 6.52158 3.33286 6.41851C3.06581 6.2639 2.78939 6.11867 2.52702 5.95937C2.42864 5.89847 2.35368 5.89847 2.25529 5.95469C1.98356 6.11867 1.70714 6.2639 1.43072 6.42319C1.25737 6.52158 1.08403 6.54501 0.920052 6.41851C0.756075 6.2967 0.723276 6.12804 0.770127 5.93126C0.840403 5.61736 0.901309 5.30347 0.957529 4.98488C0.966899 4.91929 0.938788 4.82559 0.891937 4.77874C0.667054 4.55854 0.432806 4.34303 0.193868 4.13689C0.0392611 4.00102 -0.0403883 3.84173 0.0205175 3.64027C0.0861083 3.42944 0.264139 3.35917 0.470282 3.33574C0.779496 3.30294 1.08871 3.27483 1.39324 3.22798C1.45883 3.21861 1.54316 3.16239 1.57127 3.10149C1.72119 2.80164 1.85237 2.49711 1.99293 2.19259C2.07257 2.00987 2.20376 1.92554 2.4427 1.92554Z" fill="#27292B"/>
</svg>
