<svg width="16" height="20" viewBox="0 0 16 20" fill="none" xmlns="http://www.w3.org/2000/svg">
<path d="M8.21352 0.0527932C5.23167 1.71854 3.4083 4.45696 3.07041 7.66662C1.03798 9.27581 0.523091 14.3251 0.50188 14.543C0.487232 14.685 0.549068 14.8279 0.664654 14.9149C0.779421 15.0024 0.93157 15.024 1.06626 14.9719C2.35126 14.4768 3.81287 13.9697 4.41085 13.8355C4.83042 14.7524 5.27659 15.5538 5.64839 16.0705C3.85557 17.1912 3.83319 19.4787 3.83319 19.5833C3.83319 19.8136 4.01955 20 4.24987 20C6.66402 20 7.87578 19.1585 8.41657 18.5958C8.95731 19.1585 10.1691 20 12.5832 20C12.8135 20 12.9999 19.8136 12.9999 19.5833C12.9999 19.4787 12.9775 17.1911 11.1847 16.0705C11.6787 15.3841 12.3033 14.1972 12.8226 12.9002C13.2862 13.1868 14.0235 13.3333 15.0832 13.3333C15.3136 13.3333 15.4999 13.1469 15.4999 12.9166C15.4999 12.7927 15.4754 9.95925 13.8201 8.54815C13.7508 4.95946 11.8712 1.86929 8.61958 0.0527931C8.49344 -0.0175975 8.33965 -0.0175975 8.21352 0.0527932ZM5.31311 8.40244C5.32491 8.41018 6.49925 9.16663 8.41657 9.16663C9.45825 9.16663 10.272 8.94366 10.7713 8.75686C10.987 8.67627 11.2271 8.78534 11.3076 9.001C11.3255 9.04901 11.334 9.09866 11.334 9.1471C11.334 9.31596 11.2307 9.47464 11.0635 9.53733C10.4999 9.74851 9.58314 9.99995 8.41653 9.99995C6.23226 9.99995 4.90741 9.13366 4.85206 9.09663C4.66163 8.96928 4.60995 8.71209 4.73608 8.52045C4.86307 8.3292 5.12104 8.27631 5.31311 8.40244ZM12.0966 6.85216C12.1438 6.92337 12.1666 7.00353 12.1666 7.08287C12.1666 7.21755 12.1015 7.34978 11.981 7.42994C11.9257 7.46697 10.6008 8.33326 8.41657 8.33326C6.2323 8.33326 4.90745 7.46697 4.8521 7.42994C4.66167 7.30299 4.60999 7.04502 4.73612 6.85376C4.86307 6.66251 5.12104 6.60962 5.31311 6.73576C5.32491 6.74349 6.49921 7.49994 8.41653 7.49994C10.3513 7.49994 11.5074 6.74431 11.5188 6.73658C11.7104 6.6088 11.9688 6.66048 12.0966 6.85216ZM7.99989 4.99993C7.99989 5.4593 7.62594 5.83325 7.16656 5.83325C6.70718 5.83325 6.33324 5.4593 6.33324 4.99993C6.33324 4.54055 6.70718 4.1666 7.16656 4.1666C7.62594 4.1666 7.99989 4.54055 7.99989 4.99993Z" fill="#626972"/>
</svg>
