<svg width="18" height="18" viewBox="0 0 18 18" fill="none" xmlns="http://www.w3.org/2000/svg">
<path d="M9.00056 1.40967C4.80822 1.40967 1.41016 4.80773 1.41016 9.00012C1.41016 12.0208 3.17923 14.6213 5.73356 15.843L5.97113 11.2523C5.97113 11.2523 5.52426 11.1056 5.42644 11.0579C4.47859 10.6404 3.79003 9.41102 3.79003 7.81551C3.79003 6.07447 5.14026 4.57484 6.44567 4.56245C6.44732 4.56245 6.44733 4.56245 6.44841 4.56245C6.44898 4.56245 6.45007 4.56245 6.45059 4.56245C7.75628 4.57479 9.10656 6.07442 9.10656 7.81551C9.10656 9.41102 8.41715 10.6398 7.47124 11.0579C7.46382 11.0611 6.92219 11.2578 6.92219 11.2578L7.18752 16.3621C7.76976 16.5054 8.37511 16.5895 9.00161 16.5895C9.84648 16.5895 10.6556 16.4456 11.4148 16.1912L11.6499 11.6423C11.0303 11.5061 10.5018 11.1116 10.1706 10.6168C9.76024 10.0021 10.4864 4.56193 10.4864 4.56193H10.9588V9.66699H11.428V4.5625H11.9411V9.66812H12.408V4.5625H12.9403V9.66812H13.4088V4.5625H13.7714C13.7714 4.5625 14.4976 10.0027 14.0867 10.6173C13.7587 11.1073 13.2352 11.5006 12.6233 11.6402C12.6124 11.644 12.6024 11.6478 12.6024 11.6478L12.8068 15.5607C15.0678 14.2461 16.5916 11.8039 16.5916 9.00017C16.5905 4.80778 13.1924 1.40967 9.00056 1.40967Z" fill="#27292B"/>
<path d="M4.90096 7.04339C4.92814 6.93271 4.96469 6.82751 4.96634 6.82562C4.97816 6.78416 4.95618 6.74184 4.91112 6.71494C4.86829 6.69187 4.81609 6.70369 4.79193 6.74076C4.79193 6.74076 4.74002 6.82345 4.66475 6.94566C4.60353 7.05086 4.51289 7.21893 4.45105 7.42824C4.39749 7.61168 4.33352 7.85559 4.30468 8.12858C4.29234 8.27197 4.28955 8.40133 4.29395 8.53451C4.30468 8.68637 4.3277 8.81629 4.37167 8.96489C4.52079 9.3887 4.63563 9.79907 5.05008 10.2039C5.18108 10.3385 5.31569 10.4302 5.41289 10.4978L5.44722 10.5219C5.46811 10.5357 5.48816 10.5483 5.50792 10.5599C5.58953 10.6027 5.64413 10.6181 5.65406 10.6203C5.69467 10.6312 5.73647 10.6115 5.75372 10.5785C5.76994 10.5439 5.75812 10.5005 5.72436 10.4731C5.72436 10.4731 5.67709 10.4319 5.61643 10.355C5.57496 10.3083 5.52991 10.2407 5.47748 10.1644C5.44041 10.1105 5.39672 10.0496 5.35606 9.99022C5.15418 9.68206 5.03778 9.25197 4.8768 8.81137C4.84522 8.71578 4.8194 8.59191 4.80976 8.48671C4.7969 8.3653 4.79085 8.24833 4.79085 8.13983C4.78617 7.88769 4.79742 7.67125 4.8194 7.49575C4.84465 7.29775 4.86441 7.14915 4.90096 7.04339Z" fill="#27292B"/>
<path d="M9.00054 0C4.03831 0 0 4.03746 0 8.99998C0 13.9614 4.03831 18 9.00054 18C13.9625 18 18 13.9614 18 8.99998C18 4.03746 13.9625 0 9.00054 0ZM9.00054 17.3287C4.4077 17.3287 0.670979 13.5923 0.670979 8.99998C0.670979 4.40713 4.4077 0.670412 9.00054 0.670412C13.5929 0.670412 17.3299 4.40713 17.3299 8.99998C17.3298 13.5923 13.5928 17.3287 9.00054 17.3287Z" fill="#27292B"/>
</svg>
