<svg width="17" height="20" viewBox="0 0 17 20" fill="none" xmlns="http://www.w3.org/2000/svg">
<path d="M2.10832 18.9999C1.98648 18.9578 1.86463 18.9296 1.74748 18.8734C1.16638 18.6016 0.857085 18.1377 0.857085 17.4956C0.847712 14.8994 0.852398 12.3079 0.852398 9.71173C0.852398 9.67424 0.861771 9.63207 0.866457 9.58521C3.05964 9.58521 5.23876 9.58521 7.45068 9.58521C7.45068 12.725 7.45068 15.8601 7.45068 18.9953C5.66989 18.9999 3.88911 18.9999 2.10832 18.9999Z" fill="#27292B"/>
<path d="M9.41891 19.0001C9.41891 15.8697 9.41891 12.7345 9.41891 9.59473C11.6215 9.59473 13.8053 9.59473 16.0172 9.59473C16.0172 9.67439 16.0172 9.74937 16.0172 9.82435C16.0172 12.3362 16.0172 14.848 16.0172 17.3599C16.0172 18.2409 15.6376 18.747 14.7894 18.9813C14.78 18.986 14.7706 18.9954 14.7613 19.0048C12.9805 19.0001 11.1997 19.0001 9.41891 19.0001Z" fill="#27292B"/>
<path d="M7.446 5.12392C7.446 6.43608 7.446 7.73418 7.446 9.05102C7.37102 9.05102 7.30072 9.05102 7.23512 9.05102C5.1919 9.05102 3.14399 9.03697 1.10078 9.0604C0.585285 9.06508 0.0229318 8.61989 0.00887296 8.00598C-0.0004996 7.40145 -0.00518588 6.79692 0.00887296 6.19708C0.0229318 5.59724 0.500932 5.11924 1.08672 5.11455C3.1768 5.10986 5.26688 5.10986 7.36165 5.10986C7.38508 5.11924 7.40851 5.12392 7.446 5.12392Z" fill="#27292B"/>
<path d="M9.42828 9.05093C9.42828 7.73877 9.42828 6.44067 9.42828 5.11914C9.48921 5.11914 9.55481 5.11914 9.61573 5.11914C11.6308 5.11914 13.6459 5.11914 15.661 5.11914C16.4062 5.11914 16.8654 5.5784 16.8701 6.32351C16.8701 6.86244 16.8748 7.40136 16.8701 7.94028C16.8654 8.39485 16.6733 8.74163 16.2656 8.9572C16.1625 9.01344 16.0359 9.05562 15.9188 9.05562C13.7912 9.0603 11.6683 9.0603 9.54075 9.0603C9.50795 9.05562 9.47515 9.05093 9.42828 9.05093Z" fill="#27292B"/>
<path d="M7.02424 2.58876C6.91177 2.73872 6.81335 2.86994 6.70557 3.01521C6.3541 2.7809 5.99794 2.5419 5.64647 2.30759C5.36061 2.11545 5.07474 1.91862 4.78419 1.73586C4.43272 1.51092 4.05313 1.46406 3.66417 1.63276C3.2799 1.79678 3.18617 2.08264 3.40174 2.4388C3.72041 2.96367 4.19372 3.24016 4.80763 3.25421C5.3981 3.26827 5.98857 3.2589 6.57904 3.2589C6.54624 3.48384 6.49 3.69941 6.48531 3.91498C6.48063 4.13524 6.52749 4.35549 6.55092 4.58512C6.51343 4.58512 6.46188 4.59449 6.41033 4.59449C5.11692 4.59449 3.82351 4.59449 2.53009 4.59918C2.39419 4.59918 2.33327 4.54763 2.28641 4.43047C2.08958 3.92904 2.0849 3.42292 2.29578 2.92617C2.44574 2.5747 2.60507 2.23261 2.75972 1.88582C3.05027 1.2438 3.63606 0.911075 4.32494 1.02355C4.54051 1.05635 4.77014 1.11258 4.9529 1.22974C5.65116 1.66557 6.33067 2.12951 7.02424 2.58876Z" fill="#27292B"/>
<path d="M10.2906 4.57562C10.4218 4.13511 10.4171 3.70398 10.2578 3.25409C10.5342 3.25409 10.7967 3.25878 11.0544 3.25409C11.4856 3.24472 11.9261 3.26815 12.3525 3.21192C12.8774 3.14162 13.2617 2.82764 13.5053 2.35901C13.6506 2.08721 13.5897 1.8529 13.3273 1.69825C12.8961 1.4405 12.4603 1.48737 12.0526 1.75448C11.4715 2.13407 10.8951 2.52772 10.314 2.91199C10.2671 2.9448 10.2156 2.9776 10.1593 3.01509C10.0562 2.87919 9.95783 2.74329 9.85474 2.60739C9.85942 2.6027 9.85942 2.58864 9.86411 2.58395C10.5296 2.13876 11.1856 1.6795 11.8651 1.24837C12.3197 0.957816 12.8212 0.929698 13.332 1.11246C13.6741 1.23431 13.9224 1.45925 14.0677 1.79666C14.227 2.17156 14.4051 2.54178 14.5644 2.92137C14.78 3.43686 14.78 3.95703 14.5457 4.46784C14.5223 4.51939 14.4426 4.58031 14.3864 4.58031C13.0508 4.585 11.7152 4.585 10.3843 4.585C10.3609 4.58968 10.3327 4.58031 10.2906 4.57562Z" fill="#27292B"/>
<path d="M8.4395 4.5898C8.05991 4.5898 7.68032 4.58512 7.29604 4.59449C7.18826 4.59449 7.1414 4.56169 7.10391 4.46327C6.9024 3.9431 7.04298 3.31982 7.45538 2.92617C7.88183 2.52315 8.50979 2.42006 9.03465 2.66843C9.55483 2.91212 9.88287 3.45104 9.85007 4.01339C9.85007 4.01808 9.85007 4.02276 9.85007 4.03214C9.81726 4.55231 9.77509 4.59449 9.25959 4.59449C8.98779 4.5898 8.7113 4.5898 8.4395 4.5898Z" fill="#27292B"/>
</svg>
