<svg width="20" height="19" viewBox="0 0 20 19" fill="none" xmlns="http://www.w3.org/2000/svg">
<path d="M16.8923 11.3766C16.8863 11.3706 16.8802 11.3646 16.8742 11.3646C16.2492 11.2985 16.2492 11.2985 16.2492 10.6735C16.2492 9.19505 16.2492 7.71663 16.2492 6.23219C16.2492 5.70933 16.3093 5.64923 16.8201 5.6312C16.8502 5.6312 16.8802 5.62518 16.9103 5.61917C16.1711 3.48567 13.707 0.775213 9.80662 0.733144C6.14059 0.691075 3.45418 3.13109 2.5527 5.60716C2.57073 5.61317 2.58876 5.62518 2.61279 5.62518C3.17171 5.64922 3.21979 5.69731 3.21979 6.26824C3.21979 7.78273 3.21979 9.30323 3.21979 10.8177C3.21979 11.2564 3.12363 11.3526 2.69693 11.3526C2.26422 11.3526 1.8255 11.3526 1.39279 11.3526C0.593476 11.3466 0.0105173 10.7696 0.00450741 9.97634C-0.00150247 8.99072 -0.00150247 8.01111 0.00450741 7.02549C0.0105173 6.23218 0.587466 5.6312 1.38077 5.64322C1.68126 5.64922 1.78944 5.54105 1.90363 5.27661C3.25585 2.19355 5.60571 0.414621 8.94721 0.0540283C12.7214 -0.348634 16.2793 1.88704 17.6255 5.42085C17.7036 5.6312 17.8238 5.63721 17.9981 5.63721C18.7734 5.63721 19.3984 6.06391 19.4344 6.77908C19.4945 7.92697 19.4945 9.07485 19.4344 10.2227C19.3984 10.9019 18.7914 11.3706 18.1063 11.3466C17.7998 11.3346 17.6856 11.4427 17.5654 11.7192C16.3514 14.5078 14.2479 16.2146 11.273 16.8396C11.1408 16.8697 11.0867 16.9117 11.0447 17.0379C10.8163 17.7291 10.1672 18.1137 9.45805 17.9815C8.81499 17.8613 8.32218 17.2303 8.35223 16.5812C8.38829 15.854 8.93519 15.2891 9.66238 15.253C10.2393 15.229 10.6781 15.4874 10.9485 15.9982C11.0086 16.1124 11.0627 16.1425 11.1889 16.1184C13.8212 15.5475 15.6963 14.039 16.8262 11.593C16.8502 11.5389 16.8682 11.4788 16.8923 11.4247C16.9043 11.4067 16.8923 11.3887 16.8923 11.3766Z" fill="#626972"/>
<path d="M9.55423 2.69824C9.79463 2.69824 10.041 2.69824 10.2814 2.69824C10.3115 2.70425 10.3415 2.71627 10.3716 2.71627C11.5315 2.80642 12.5772 3.20908 13.4907 3.93027C14.6566 4.84978 15.3778 6.04574 15.6422 7.50614C15.6783 7.71649 15.7023 7.93284 15.7324 8.14319C15.7324 8.37758 15.7324 8.61197 15.7324 8.84635C15.7023 9.0567 15.6843 9.27305 15.6422 9.4834C15.1735 12.2179 12.7274 14.2973 9.95689 14.3153C8.15994 14.3274 6.36299 14.3153 4.56603 14.3153C4.56002 14.3153 4.548 14.3153 4.54199 14.3153C4.50593 14.3033 4.45184 14.2973 4.43982 14.2673C4.4278 14.2432 4.45785 14.1951 4.47588 14.1651C4.4879 14.1471 4.50593 14.135 4.52396 14.117C4.92061 13.7204 5.32328 13.3177 5.71993 12.921C5.8221 12.8189 5.84614 12.7107 5.79205 12.6145C5.762 12.5605 5.71993 12.5184 5.67786 12.4763C4.89057 11.6289 4.39175 10.6433 4.19342 9.50744C4.15736 9.29709 4.13332 9.08073 4.10327 8.87038C4.10327 8.62999 4.10327 8.38359 4.10327 8.14319C4.10928 8.11314 4.1213 8.08309 4.1213 8.05304C4.17539 7.3559 4.33766 6.6888 4.65017 6.06377C5.52761 4.27283 6.94594 3.17302 8.90516 2.78238C9.12152 2.74632 9.33788 2.72829 9.55423 2.69824ZM8.96526 8.98457C8.96526 9.03866 8.96526 9.08674 8.96526 9.12881C8.96526 10.2106 8.96526 11.2924 8.96526 12.3741C8.96526 12.6987 9.15758 12.897 9.4761 12.897C9.93285 12.897 10.3836 12.897 10.8403 12.897C11.1468 12.897 11.3452 12.6987 11.3452 12.3922C11.3452 10.7936 11.3452 9.19492 11.3452 7.59028C11.3452 7.28378 11.1468 7.08545 10.8403 7.08545C9.95088 7.08545 9.06142 7.08545 8.17196 7.08545C7.86546 7.08545 7.67314 7.28378 7.66713 7.59028C7.66713 7.87275 7.66713 8.15521 7.66713 8.44368C7.66713 8.80428 7.85344 8.98457 8.21403 8.98457C8.46043 8.98457 8.70684 8.98457 8.96526 8.98457ZM9.80064 6.61067C10.5218 6.61067 11.1048 6.02772 11.1048 5.30653C11.1048 4.58535 10.5158 3.99638 9.79463 4.00239C9.07945 4.0084 8.49649 4.59136 8.49649 5.30653C8.49048 6.02171 9.07945 6.61067 9.80064 6.61067Z" fill="#626972"/>
<path d="M10.8583 12.4164C10.3896 12.4164 9.9208 12.4164 9.44001 12.4164C9.44001 12.3683 9.44001 12.3202 9.44001 12.2782C9.44001 11.1303 9.44001 9.97637 9.44001 8.82848C9.44001 8.58208 9.36789 8.50995 9.12149 8.50995C8.83301 8.50995 8.54454 8.50995 8.26208 8.50995C8.22602 8.50995 8.18996 8.50995 8.14789 8.50995C8.14789 8.19143 8.14789 7.87892 8.14789 7.56641C9.05538 7.56641 9.95085 7.56641 10.8583 7.56641C10.8583 9.17705 10.8583 10.7937 10.8583 12.4164Z" fill="#626972"/>
<path d="M10.6239 5.30655C10.6239 5.76931 10.2633 6.13592 9.80058 6.14193C9.34383 6.14794 8.96521 5.77532 8.96521 5.31857C8.96521 4.86182 9.33782 4.4892 9.79457 4.48319C10.2513 4.47117 10.6239 4.84379 10.6239 5.30655Z" fill="#626972"/>
</svg>
