<svg width="23" height="18" viewBox="0 0 23 18" fill="none" xmlns="http://www.w3.org/2000/svg">
<path d="M23 9.2728C22.7088 9.62967 22.4176 9.97033 22.1426 10.3272C21.8514 10.6679 21.6249 10.6841 21.2851 10.4083C18.1627 7.79664 15.0565 5.20119 11.9341 2.58952C11.8694 2.54085 11.8047 2.47597 11.7076 2.41108C11.3517 2.70307 11.0119 2.99505 10.656 3.28704C7.80864 5.67161 4.96127 8.03996 2.11389 10.4245C1.79033 10.7003 1.54766 10.6679 1.2888 10.3596C1.06231 10.0839 0.819635 9.80811 0.593139 9.53234C0.318109 9.20791 0.350465 8.98081 0.67403 8.70505C3.16548 6.62869 5.65694 4.53611 8.14839 2.45975C8.9573 1.77844 9.76622 1.09714 10.5913 0.415834C11.1575 -0.0545916 11.8047 -0.119482 12.468 0.188728C12.6459 0.269836 12.8077 0.399604 12.9533 0.529377C13.9726 1.3729 14.9918 2.23264 15.9948 3.07616C16.0434 3.12483 16.0919 3.15727 16.1728 3.20593C16.1728 3.1086 16.189 3.0275 16.189 2.96261C16.189 2.18398 16.189 1.40534 16.189 0.610484C16.189 0.172502 16.3346 0.0265122 16.7714 0.0265122C17.5803 0.0265122 18.373 0.0265122 19.182 0.0265122C19.635 0.0265122 19.7806 0.172508 19.7806 0.626712C19.7806 2.41108 19.7806 4.21167 19.7806 5.99604C19.7806 6.15826 19.8291 6.25559 19.9423 6.35292C20.8645 7.11533 21.7705 7.87774 22.6926 8.64016C22.8059 8.73748 22.903 8.88348 23 8.99703C23 9.09436 23 9.17547 23 9.2728Z" fill="#626972"/>
<path d="M11.7077 3.62769C12.9696 4.66587 14.1991 5.68782 15.4287 6.70978C16.82 7.86151 18.2113 9.01324 19.6026 10.1488C19.7321 10.2461 19.7806 10.3596 19.7806 10.5218C19.7806 12.6793 19.7806 14.8206 19.7806 16.978C19.7806 17.6431 19.4085 18 18.7614 18C17.0788 18 15.4125 18 13.7299 18C13.6652 18 13.6005 18 13.5196 17.9838C13.5196 16.1994 13.5196 14.415 13.5196 12.6144C12.3224 12.6144 11.1414 12.6144 9.92805 12.6144C9.92805 14.3988 9.92805 16.1832 9.92805 17.9838C9.83098 17.9838 9.75008 18 9.68537 18C8.01901 18 6.35265 18 4.68629 18C4.02298 18 3.65088 17.6269 3.65088 16.9618C3.65088 14.8206 3.65088 12.6793 3.65088 10.5218C3.65088 10.3434 3.69941 10.2461 3.82884 10.1325C6.38501 8.02372 8.94117 5.8987 11.4973 3.7899C11.562 3.75746 11.6268 3.69257 11.7077 3.62769Z" fill="#626972"/>
</svg>
