<svg width="35" height="43" viewBox="0 0 35 43" fill="none" xmlns="http://www.w3.org/2000/svg">
<path d="M30.1033 10.3031C29.7797 10.6996 29.4561 11.0781 29.1505 11.4747C28.827 11.8532 28.5753 11.8712 28.1978 11.5648C24.7285 8.66293 21.2771 5.7791 17.8078 2.87724C17.7359 2.82317 17.664 2.75108 17.5561 2.67898C17.1606 3.00341 16.7832 3.32784 16.3877 3.65227C13.2239 6.30179 10.0602 8.93329 6.89643 11.5828C6.53692 11.8892 6.26728 11.8532 5.97967 11.5107C5.728 11.2043 5.45837 10.8979 5.20671 10.5915C4.90112 10.231 4.93707 9.97868 5.29658 9.67227C8.06486 7.36521 10.8331 5.04012 13.6014 2.73305C14.5002 1.97605 15.399 1.21904 16.3158 0.462037C16.9449 -0.0606573 17.664 -0.132758 18.401 0.209698C18.5987 0.299817 18.7785 0.444005 18.9403 0.588196C20.0727 1.52544 21.2052 2.48071 22.3197 3.41796C22.3736 3.47203 22.4276 3.50808 22.5174 3.56215C22.5174 3.45401 22.5354 3.36389 22.5354 3.29179C22.5354 2.42664 22.5354 1.56149 22.5354 0.678316C22.5354 0.191669 22.6972 0.029458 23.1826 0.029458C24.0813 0.029458 24.9622 0.029458 25.861 0.029458C26.3643 0.029458 26.5261 0.191676 26.5261 0.696347C26.5261 2.67898 26.5261 4.67964 26.5261 6.66227C26.5261 6.84251 26.58 6.95066 26.7058 7.0588C27.7304 7.90593 28.7371 8.75305 29.7617 9.60017C29.8875 9.70832 29.9954 9.87053 30.1033 9.9967C30.1033 10.1048 30.1033 10.195 30.1033 10.3031Z" fill="#EEAC45"/>
<path d="M17.5562 4.03076C18.9583 5.18429 20.3244 6.3198 21.6906 7.45531C23.2365 8.73501 24.7825 10.0147 26.3284 11.2764C26.4722 11.3845 26.5261 11.5107 26.5261 11.6909C26.5261 14.0881 26.5261 16.4673 26.5261 18.8645C26.5261 19.6035 26.1127 20 25.3936 20C23.5241 20 21.6726 20 19.8031 20C19.7312 20 19.6593 20 19.5695 19.982C19.5695 17.9993 19.5695 16.0167 19.5695 14.016C18.2392 14.016 16.927 14.016 15.5788 14.016C15.5788 15.9987 15.5788 17.9813 15.5788 19.982C15.471 19.982 15.3811 20 15.3092 20C13.4577 20 11.6062 20 9.75464 20C9.01763 20 8.60419 19.5854 8.60419 18.8465C8.60419 16.4673 8.60419 14.0881 8.60419 11.6909C8.60419 11.4927 8.65812 11.3845 8.80192 11.2584C11.6421 8.91525 14.4823 6.55412 17.3225 4.211C17.3944 4.17495 17.4663 4.10286 17.5562 4.03076Z" fill="#EEAC45"/>
<path d="M8.20539 40H6.805V36.1328H2.85578V40H1.44953V31.4336H2.85578V34.9375H6.805V31.4336H8.20539V40ZM15.9545 36.7422C15.9545 37.2812 15.8842 37.7598 15.7436 38.1777C15.603 38.5957 15.3979 38.9492 15.1284 39.2383C14.8588 39.5234 14.5346 39.7422 14.1557 39.8945C13.7768 40.043 13.3491 40.1172 12.8725 40.1172C12.4272 40.1172 12.019 40.043 11.6479 39.8945C11.2768 39.7422 10.9545 39.5234 10.6811 39.2383C10.4116 38.9492 10.2026 38.5957 10.0541 38.1777C9.9057 37.7598 9.83148 37.2812 9.83148 36.7422C9.83148 36.0273 9.95453 35.4219 10.2006 34.9258C10.4506 34.4258 10.8061 34.0449 11.267 33.7832C11.728 33.5215 12.2768 33.3906 12.9135 33.3906C13.5112 33.3906 14.0385 33.5215 14.4955 33.7832C14.9526 34.0449 15.31 34.4258 15.5678 34.9258C15.8256 35.4258 15.9545 36.0312 15.9545 36.7422ZM11.2495 36.7422C11.2495 37.2148 11.3061 37.6191 11.4194 37.9551C11.5366 38.291 11.7163 38.5488 11.9584 38.7285C12.2006 38.9043 12.5131 38.9922 12.8959 38.9922C13.2788 38.9922 13.5913 38.9043 13.8334 38.7285C14.0756 38.5488 14.2534 38.291 14.3666 37.9551C14.4799 37.6191 14.5366 37.2148 14.5366 36.7422C14.5366 36.2695 14.4799 35.8691 14.3666 35.541C14.2534 35.209 14.0756 34.957 13.8334 34.7852C13.5913 34.6094 13.2768 34.5215 12.8901 34.5215C12.3198 34.5215 11.9038 34.7129 11.642 35.0957C11.3803 35.4785 11.2495 36.0273 11.2495 36.7422ZM24.7466 33.3906C25.4732 33.3906 26.0201 33.5781 26.3873 33.9531C26.7584 34.3281 26.9439 34.9297 26.9439 35.7578V40H25.567V36.0039C25.567 35.5117 25.4713 35.1406 25.2798 34.8906C25.0884 34.6406 24.7974 34.5156 24.4068 34.5156C23.8599 34.5156 23.4654 34.6914 23.2232 35.043C22.9849 35.3906 22.8658 35.8965 22.8658 36.5605V40H21.4888V36.0039C21.4888 35.6758 21.4459 35.4023 21.3599 35.1836C21.2779 34.9609 21.1509 34.7949 20.9791 34.6855C20.8072 34.5723 20.5904 34.5156 20.3287 34.5156C19.9498 34.5156 19.647 34.6016 19.4205 34.7734C19.1978 34.9453 19.0377 35.1992 18.94 35.5352C18.8423 35.8672 18.7935 36.2754 18.7935 36.7598V40H17.4166V33.5137H18.4888L18.6822 34.3867H18.7584C18.8912 34.1602 19.0552 33.9746 19.2505 33.8301C19.4498 33.6816 19.6705 33.5723 19.9127 33.502C20.1548 33.4277 20.4068 33.3906 20.6685 33.3906C21.1529 33.3906 21.5611 33.4766 21.8931 33.6484C22.2252 33.8164 22.4732 34.0742 22.6373 34.4219H22.7427C22.9459 34.0703 23.2291 33.8105 23.5923 33.6426C23.9556 33.4746 24.3404 33.3906 24.7466 33.3906ZM31.3298 33.3906C31.9079 33.3906 32.404 33.5098 32.818 33.748C33.2321 33.9863 33.5505 34.3242 33.7731 34.7617C33.9958 35.1992 34.1071 35.7227 34.1071 36.332V37.0703H29.777C29.7927 37.6992 29.9606 38.1836 30.2809 38.5234C30.6052 38.8633 31.0583 39.0332 31.6403 39.0332C32.0544 39.0332 32.4255 38.9941 32.7536 38.916C33.0856 38.834 33.4274 38.7148 33.779 38.5586V39.6777C33.4548 39.8301 33.1247 39.9414 32.7887 40.0117C32.4528 40.082 32.0505 40.1172 31.5817 40.1172C30.945 40.1172 30.3845 39.9941 29.9001 39.748C29.4196 39.498 29.0427 39.127 28.7692 38.6348C28.4997 38.1426 28.3649 37.5312 28.3649 36.8008C28.3649 36.0742 28.488 35.457 28.7341 34.9492C28.9802 34.4414 29.3259 34.0547 29.7712 33.7891C30.2165 33.5234 30.736 33.3906 31.3298 33.3906ZM31.3298 34.4277C30.8962 34.4277 30.5446 34.5684 30.2751 34.8496C30.0095 35.1309 29.8532 35.543 29.8063 36.0859H32.7595C32.7555 35.7617 32.7009 35.4746 32.5954 35.2246C32.4938 34.9746 32.3376 34.7793 32.1266 34.6387C31.9196 34.498 31.654 34.4277 31.3298 34.4277Z" fill="#EEAC45"/>
</svg>
