<svg width="18" height="18" viewBox="0 0 18 18" fill="none" xmlns="http://www.w3.org/2000/svg">
<path d="M9 0C4.03746 0 0 4.03746 0 9C0 13.9625 4.03746 18 9 18C13.9625 18 18 13.9625 18 9C18 4.03746 13.9625 0 9 0ZM9.58542 14.3399C9.15784 14.4112 8.30704 14.5892 7.87499 14.625C7.50928 14.6553 7.16417 14.4459 6.9538 14.1454C6.74288 13.845 6.69233 13.4604 6.81756 13.1155L8.51879 8.43751H6.74998C6.74847 7.46276 7.47962 6.74603 8.41475 6.47097C8.86101 6.33967 9.69245 6.15999 10.125 6.18753C10.3841 6.20401 10.8358 6.36659 11.0462 6.6671C11.2571 6.96757 11.3076 7.35209 11.1824 7.69706L9.48118 12.375H11.2494C11.2498 13.3486 10.5459 14.1798 9.58542 14.3399ZM10.125 5.62501C9.50364 5.62501 8.99997 5.12127 8.99997 4.5C8.99997 3.87866 9.50364 3.37499 10.125 3.37499C10.7463 3.37499 11.25 3.87866 11.25 4.5C11.25 5.1213 10.7463 5.62501 10.125 5.62501Z" fill="#626972"/>
</svg>
