<svg width="49" height="44" viewBox="0 0 49 44" fill="none" xmlns="http://www.w3.org/2000/svg">
<g filter="url(#filter0_d_7_33830)">
<path d="M24.4673 15.7004C24.9274 15.3453 25.3468 14.9844 25.8136 14.6694C27.9717 13.2433 30.5222 13.4438 32.572 14.4976C34.3107 15.3911 35.2849 16.7656 35.7517 18.4037C36.2455 20.1391 36.029 21.8057 34.8654 23.3292C34.5678 23.7186 34.2092 24.0795 33.8101 24.3945C31.3543 26.3647 28.8782 28.312 26.4022 30.265C25.2318 31.1871 23.7367 31.1757 22.5663 30.2421C20.2323 28.3864 17.9051 26.5193 15.5441 24.6808C14.6849 24.0165 13.961 23.2776 13.5213 22.3555C12.1885 19.595 13.501 16.0154 16.4371 14.4976C17.9863 13.6958 19.6641 13.4037 21.4433 13.8791C22.5798 14.1826 23.4864 14.7783 24.2779 15.5171C24.3388 15.5801 24.4064 15.6431 24.4673 15.7004Z" fill="#27292B" fill-opacity="0.7"/>
<path d="M24.1248 16.0646L24.4353 16.3567L24.7729 16.0962C24.9314 15.9738 25.0788 15.8562 25.2209 15.7427C25.5158 15.5073 25.7881 15.29 26.0913 15.0853C28.0629 13.7835 30.4134 13.9501 32.3434 14.9423L32.3435 14.9423C33.9463 15.766 34.8378 17.0212 35.2708 18.5407C35.7259 20.1402 35.5262 21.6402 34.4682 23.0256C34.1972 23.38 33.8685 23.7114 33.5003 24.002L33.5003 24.002L33.4972 24.0045C31.3583 25.7204 29.2041 27.4189 27.046 29.1205C26.7283 29.371 26.4106 29.6216 26.0927 29.8723C25.107 30.6489 23.8693 30.6418 22.8781 29.8512L22.8775 29.8507C22.3356 29.4199 21.7937 28.9881 21.2514 28.5561C19.4606 27.1292 17.6656 25.6991 15.8512 24.2863L15.8499 24.2853C15.0214 23.6446 14.3649 22.9631 13.9726 22.1403L13.9715 22.1382C12.7693 19.6479 13.9442 16.3491 16.6667 14.9418L16.6669 14.9417C18.1234 14.1878 19.6734 13.9237 21.3142 14.3621L21.3143 14.3621C22.3474 14.6381 23.1814 15.1794 23.9279 15.8744C23.9895 15.9375 24.0553 15.9993 24.1078 16.0486C24.1136 16.0541 24.1193 16.0594 24.1248 16.0646Z" stroke="white"/>
</g>
<defs>
<filter id="filter0_d_7_33830" x="0" y="0.649902" width="49" height="43.2996" filterUnits="userSpaceOnUse" color-interpolation-filters="sRGB">
<feFlood flood-opacity="0" result="BackgroundImageFix"/>
<feColorMatrix in="SourceAlpha" type="matrix" values="0 0 0 0 0 0 0 0 0 0 0 0 0 0 0 0 0 0 127 0" result="hardAlpha"/>
<feOffset/>
<feGaussianBlur stdDeviation="6.5"/>
<feColorMatrix type="matrix" values="0 0 0 0 0.145833 0 0 0 0 0.140486 0 0 0 0 0.132465 0 0 0 0.2 0"/>
<feBlend mode="multiply" in2="BackgroundImageFix" result="effect1_dropShadow_7_33830"/>
<feBlend mode="normal" in="SourceGraphic" in2="effect1_dropShadow_7_33830" result="shape"/>
</filter>
</defs>
</svg>
