<svg width="12" height="19" viewBox="0 0 12 19" fill="none" xmlns="http://www.w3.org/2000/svg">
<path d="M5.99881 0.5C8.95045 0.529936 11.47 2.89491 11.9385 6.07814C12.1159 7.27559 11.893 8.39322 11.4837 9.48589C10.8424 11.1923 9.99649 12.7789 9.04596 14.2907C8.21823 15.6129 7.34047 16.9051 6.47635 18.2024C6.21711 18.5915 5.81689 18.5965 5.55766 18.2323C3.9977 16.037 2.53325 13.7768 1.32348 11.322C0.832298 10.3241 0.391144 9.30128 0.141004 8.19364C-0.150067 6.91137 0.0273046 5.674 0.509391 4.49151C1.35532 2.4259 2.80612 1.14862 4.82543 0.66465C5.20746 0.569851 5.60768 0.554883 5.99881 0.5ZM6.01246 8.91211C7.20403 8.91211 8.18639 7.8344 8.18639 6.53217C8.19094 5.20001 7.20858 4.11731 6.00336 4.1223C4.78905 4.12729 3.81578 5.20001 3.82033 6.52718C3.82487 7.84438 4.80724 8.91211 6.01246 8.91211Z" fill="white"/>
</svg>
