<svg width="20" height="20" viewBox="0 0 20 20" fill="none" xmlns="http://www.w3.org/2000/svg">
<path d="M20 16.9387C20 16.9795 19.9592 17.0611 19.9592 17.102C19.7959 17.6734 19.4694 18.0407 18.898 18.2448C17.2245 18.8162 15.551 19.3877 13.8776 19.9183C12.7347 20.2856 11.6735 19.5101 11.6735 18.3264C11.6735 18.0815 11.6735 17.7958 11.6735 17.5101C11.5919 17.5101 11.5102 17.5101 11.4286 17.5101C10.6939 17.5101 9.9592 17.5101 9.18369 17.5101C7.7143 17.5101 6.65308 16.4081 6.65308 14.9795C6.65308 14.4081 6.65308 13.8775 6.65308 13.306C6.65308 12.8979 6.97961 12.5713 7.38777 12.5305C7.79593 12.4897 8.16328 12.7346 8.28573 13.1428C8.32655 13.2652 8.32655 13.3468 8.32655 13.4693C8.32655 13.9591 8.32655 14.4489 8.32655 14.9387C8.32655 15.5101 8.65308 15.8366 9.26532 15.8775C10 15.8775 10.7347 15.8775 11.4694 15.8775C11.551 15.8775 11.5919 15.8775 11.6735 15.8775C11.6735 15.7958 11.6735 15.7142 11.6735 15.6326C11.6735 11.6734 11.6735 7.7142 11.6735 3.75501C11.6735 2.77542 12 2.08154 12.9388 1.75501C12.898 1.75501 12.8163 1.75501 12.7755 1.75501C11.6327 1.75501 10.4898 1.75501 9.30614 1.75501C8.69389 1.75501 8.36736 2.08154 8.36736 2.69379C8.36736 2.93869 8.36736 3.18358 8.36736 3.42848C8.36736 3.87746 8.00002 4.24481 7.55104 4.24481C7.10206 4.24481 6.73471 3.87746 6.73471 3.42848C6.73471 2.93869 6.69389 2.44889 6.81634 1.99991C7.06124 0.938686 7.75512 0.326441 8.81634 0.122359C8.85716 0.122359 8.89797 0.081543 8.93879 0.081543C12.1633 0.081543 15.3878 0.081543 18.5714 0.081543C18.6123 0.081543 18.6531 0.122359 18.7347 0.122359C19.347 0.285625 19.7551 0.612155 20 1.2244C19.9592 1.2244 19.9592 1.34685 20 1.42848C20 6.61216 20 11.755 20 16.9387Z" fill="white"/>
<path d="M4.16328 9.18354C4.08164 9.18354 4.00001 9.18354 3.91838 9.18354C2.89797 9.18354 1.91838 9.18354 0.897969 9.18354C0.408174 9.18354 0.0408266 8.85701 1.02716e-05 8.40803C-0.0408061 7.91823 0.326541 7.51007 0.857153 7.51007C1.87756 7.51007 2.89797 7.51007 3.95919 7.51007C4.04083 7.51007 4.08164 7.51007 4.20409 7.51007C4.20409 7.42844 4.20409 7.3468 4.20409 7.26517C4.20409 6.53048 4.20409 5.79578 4.20409 5.06109C4.20409 4.65293 4.36736 4.36721 4.69389 4.20395C5.02042 4.04068 5.34695 4.12231 5.67348 4.44884C6.7347 5.51007 7.83674 6.61211 8.89797 7.67333C9.30613 8.0815 9.30613 8.57129 8.89797 8.97946C7.83674 10.0815 6.7347 11.1427 5.63266 12.2448C5.14287 12.7346 4.40817 12.5305 4.20409 11.9182C4.16328 11.7958 4.16328 11.6733 4.16328 11.5509C4.16328 10.857 4.16328 10.1223 4.16328 9.42844C4.16328 9.3468 4.16328 9.26517 4.16328 9.18354Z" fill="white"/>
</svg>
