<svg width="17" height="18" viewBox="0 0 17 18" fill="none" xmlns="http://www.w3.org/2000/svg">
<path d="M11.4515 7.69946C11.2978 7.69946 11.1313 7.69946 10.9776 7.69946C10.952 7.69946 10.9392 7.68662 10.9136 7.68662C10.1706 7.6224 9.50452 7.39122 8.9153 6.92885C7.77527 6.0298 7.25009 4.84819 7.41662 3.39687C7.5319 2.30516 8.05708 1.41896 8.94092 0.763936C10.1834 -0.160801 11.7974 -0.250709 13.1296 0.519905C14.1543 1.12355 14.7691 2.0226 14.9869 3.19137C15.0125 3.33265 15.0253 3.47393 15.051 3.60236C15.051 3.75648 15.051 3.92345 15.051 4.07758C15.051 4.10326 15.0381 4.11611 15.0381 4.14179C14.9869 4.80966 14.782 5.41331 14.4105 5.96558C13.7956 6.87748 12.9502 7.42975 11.8871 7.63525C11.7462 7.66093 11.5924 7.68662 11.4515 7.69946ZM11.1825 6.47932C11.2338 6.47932 11.2978 6.47932 11.3491 6.47932H11.3619C11.4643 6.47932 11.5156 6.42795 11.5156 6.3252C11.5156 6.20961 11.5156 6.10685 11.5156 5.99126C11.5156 5.84998 11.5412 5.81146 11.6821 5.77293C11.7077 5.76008 11.7205 5.76008 11.7462 5.74724C12.2457 5.58027 12.5916 5.1179 12.5659 4.60416C12.5403 4.12895 12.3098 3.79501 11.8999 3.57667C11.7077 3.47392 11.5028 3.40971 11.3106 3.30696C11.1825 3.24274 11.0416 3.17852 10.9264 3.08862C10.7342 2.9345 10.7726 2.67762 10.9904 2.57488C11.0673 2.53635 11.1569 2.5235 11.2466 2.51066C11.5284 2.48497 11.7974 2.54919 12.0536 2.67762C12.156 2.729 12.2073 2.71616 12.2457 2.60056C12.2841 2.47213 12.3226 2.33085 12.361 2.20241C12.4122 2.04829 12.3866 1.99691 12.2329 1.94554C12.0536 1.88132 11.8742 1.8428 11.6821 1.79142C11.5668 1.76573 11.5412 1.74004 11.5284 1.61161C11.5284 1.5217 11.5284 1.4318 11.5156 1.3419C11.5028 1.23915 11.4772 1.20061 11.3619 1.20061C11.2466 1.20061 11.1313 1.20061 11.0288 1.20061C10.9007 1.20061 10.8623 1.23914 10.8623 1.36758C10.8623 1.47033 10.8623 1.56024 10.8623 1.66299C10.8623 1.75289 10.8239 1.8171 10.7342 1.84279C10.6574 1.86848 10.5805 1.89417 10.5037 1.9327C9.96566 2.18957 9.70948 2.79322 9.92723 3.3198C10.0297 3.58952 10.2347 3.76933 10.478 3.89776C10.7086 4.01335 10.952 4.10326 11.1825 4.21885C11.2978 4.27023 11.4131 4.33444 11.5028 4.41151C11.7077 4.59131 11.6565 4.88672 11.4131 5.01515C11.2722 5.09222 11.1057 5.1179 10.952 5.10506C10.683 5.07937 10.414 5.00231 10.1706 4.87388C10.0553 4.80966 10.0169 4.83534 9.97847 4.95094C9.94005 5.05369 9.91442 5.16928 9.87599 5.27203C9.79914 5.54174 9.81195 5.58027 10.0809 5.67017C10.2859 5.73439 10.4908 5.78577 10.6958 5.83715C10.7983 5.86283 10.8111 5.87567 10.8239 5.97842C10.8239 6.09401 10.8239 6.19676 10.8367 6.31235C10.8367 6.4151 10.8879 6.45364 10.9904 6.45364C11.0673 6.49217 11.1185 6.47932 11.1825 6.47932Z" fill="#27292B"/>
<path d="M3.39446 17.9874C2.26724 16.0351 1.14003 14.0701 0 12.105C0.730129 11.6812 1.46026 11.2573 2.2032 10.8335C3.33042 12.7986 4.45763 14.7508 5.58485 16.7158C5.5208 16.7544 5.48238 16.7801 5.43114 16.8186C4.8163 17.1782 4.18864 17.5378 3.5738 17.8975C3.52256 17.9231 3.47132 17.9745 3.42008 18.0002C3.42008 17.9874 3.40727 17.9874 3.39446 17.9874Z" fill="#27292B"/>
<path d="M5.70013 15.3801C4.91876 14.0316 4.16302 12.6958 3.38165 11.3601C3.42008 11.3344 3.4457 11.2959 3.48413 11.2702C4.00931 10.8977 4.54729 10.5381 5.07247 10.1656C5.13652 10.1143 5.22619 10.0886 5.31585 10.0886C7.21163 10.0886 9.12021 10.0886 11.016 10.0886C11.3875 10.0886 11.6693 10.2812 11.7717 10.6023C11.8742 10.9106 11.7717 11.2574 11.5027 11.4243C11.349 11.5142 11.1441 11.5656 10.9519 11.5784C10.0809 11.5913 9.20988 11.5784 8.35166 11.5913C8.2748 11.5913 8.18513 11.5913 8.10828 11.617C7.94176 11.6684 7.85209 11.8482 7.87771 12.028C7.90333 12.2078 8.04423 12.3362 8.24918 12.3362C8.58223 12.3362 8.90245 12.3362 9.23549 12.3362C9.83753 12.3362 10.4268 12.3362 11.0288 12.3362C11.5284 12.3362 11.9383 12.1436 12.2585 11.7454C12.2969 11.7069 12.3353 11.6555 12.3866 11.6298C13.4882 10.9876 14.5898 10.3583 15.6914 9.71612C16.0244 9.52347 16.3703 9.56201 16.6136 9.79319C16.9595 10.1271 16.9083 10.6665 16.4856 10.962C16.1141 11.2188 15.7426 11.45 15.3711 11.694C13.7187 12.7729 12.0664 13.8646 10.4011 14.9435C10.3115 15.0077 10.1834 15.0334 10.0809 15.0462C8.88965 15.059 7.69838 15.059 6.50712 15.0462C6.22531 15.0462 6.02036 15.1746 5.8026 15.3031C5.77699 15.3288 5.75137 15.3545 5.70013 15.3801Z" fill="#27292B"/>
</svg>
