<svg width="42" height="45" viewBox="0 0 42 45" fill="none" xmlns="http://www.w3.org/2000/svg">
<path d="M24.6325 9.8382C24.4361 9.8382 24.2233 9.8382 24.0269 9.8382C23.9942 9.8382 23.9778 9.82179 23.9451 9.82179C22.9958 9.73973 22.1446 9.44433 21.3917 8.85353C19.935 7.70474 19.264 6.19491 19.4768 4.34044C19.6241 2.94549 20.2951 1.81311 21.4245 0.97614C23.0121 -0.205468 25.0744 -0.320351 26.7766 0.664323C28.086 1.43565 28.8717 2.58443 29.1499 4.07786C29.1826 4.25838 29.199 4.43891 29.2317 4.60302C29.2317 4.79995 29.2317 5.0133 29.2317 5.21024C29.2317 5.24306 29.2154 5.25947 29.2154 5.29229C29.1499 6.14568 28.888 6.91701 28.4134 7.62269C27.6277 8.78788 26.5475 9.49357 25.189 9.75615C25.0089 9.78897 24.8125 9.82179 24.6325 9.8382ZM24.2888 8.27914C24.3542 8.27914 24.4361 8.27914 24.5016 8.27914H24.5179C24.6489 8.27914 24.7143 8.21349 24.7143 8.0822C24.7143 7.9345 24.7143 7.8032 24.7143 7.6555C24.7143 7.47498 24.7471 7.42575 24.9271 7.37652C24.9598 7.36011 24.9762 7.36011 25.009 7.34369C25.6473 7.13035 26.0892 6.53954 26.0565 5.88309C26.0237 5.27588 25.7291 4.84918 25.2054 4.57019C24.9599 4.4389 24.698 4.35685 24.4525 4.22556C24.2888 4.14351 24.1087 4.06145 23.9614 3.94657C23.7159 3.74963 23.765 3.42141 24.0433 3.29012C24.1415 3.24089 24.256 3.22447 24.3706 3.20806C24.7307 3.17524 25.0744 3.25729 25.4018 3.42141C25.5327 3.48705 25.5982 3.47064 25.6473 3.32294C25.6964 3.15883 25.7455 2.9783 25.7946 2.81419C25.8601 2.61725 25.8273 2.55161 25.6309 2.48597C25.4018 2.40391 25.1726 2.35468 24.9271 2.28904C24.7798 2.25622 24.7471 2.22339 24.7307 2.05928C24.7307 1.9444 24.7307 1.82952 24.7143 1.71465C24.698 1.58336 24.6652 1.53412 24.5179 1.53412C24.3706 1.53412 24.2233 1.53412 24.0924 1.53412C23.9287 1.53412 23.8796 1.58335 23.8796 1.74746C23.8796 1.87875 23.8796 1.99364 23.8796 2.12493C23.8796 2.2398 23.8305 2.32185 23.7159 2.35468C23.6177 2.3875 23.5195 2.42032 23.4213 2.46956C22.7339 2.79778 22.4065 3.56911 22.6848 4.24197C22.8157 4.5866 23.0776 4.81636 23.3886 4.98047C23.6832 5.12817 23.9942 5.24305 24.2888 5.39075C24.4361 5.4564 24.5834 5.53846 24.698 5.63692C24.9598 5.86668 24.8944 6.24414 24.5834 6.40825C24.4034 6.50672 24.1906 6.53954 23.9942 6.52313C23.6505 6.49031 23.3067 6.39185 22.9958 6.22773C22.8485 6.14568 22.7994 6.1785 22.7502 6.3262C22.7011 6.45749 22.6684 6.60519 22.6193 6.73648C22.5211 7.08111 22.5375 7.13034 22.8812 7.24522C23.1431 7.32728 23.4049 7.39293 23.6668 7.45858C23.7978 7.4914 23.8141 7.5078 23.8305 7.63909C23.8305 7.7868 23.8305 7.91808 23.8469 8.06578C23.8469 8.19707 23.9123 8.24631 24.0433 8.24631C24.1415 8.29555 24.2069 8.27914 24.2888 8.27914Z" fill="#626972"/>
<path d="M14.3374 22.9838C12.897 20.4893 11.4567 17.9784 10 15.4675C10.9329 14.9259 11.8659 14.3843 12.8152 13.8428C14.2555 16.3537 15.6959 18.8482 17.1362 21.3591C17.0544 21.4083 17.0053 21.4412 16.9398 21.4904C16.1542 21.9499 15.3522 22.4094 14.5665 22.8689C14.501 22.9018 14.4356 22.9674 14.3701 23.0002C14.3701 22.9838 14.3537 22.9838 14.3374 22.9838Z" fill="#626972"/>
<path d="M17.2835 19.6523C16.2851 17.9291 15.3194 16.2224 14.321 14.5156C14.3701 14.4828 14.4028 14.4335 14.4519 14.4007C15.123 13.9248 15.8104 13.4653 16.4815 12.9893C16.5633 12.9237 16.6779 12.8909 16.7925 12.8909C19.2148 12.8909 21.6536 12.8909 24.076 12.8909C24.5506 12.8909 24.9107 13.137 25.0416 13.5473C25.1726 13.9412 25.0416 14.3843 24.6979 14.5976C24.5015 14.7125 24.2396 14.7782 23.9941 14.7946C22.8811 14.811 21.7682 14.7946 20.6715 14.811C20.5733 14.811 20.4588 14.811 20.3606 14.8438C20.1478 14.9095 20.0332 15.1392 20.0659 15.369C20.0987 15.5987 20.2787 15.7628 20.5406 15.7628C20.9662 15.7628 21.3753 15.7628 21.8009 15.7628C22.5702 15.7628 23.3231 15.7628 24.0923 15.7628C24.7307 15.7628 25.2544 15.5167 25.6636 15.0079C25.7127 14.9587 25.7618 14.893 25.8273 14.8602C27.2349 14.0397 28.6425 13.2355 30.0501 12.4149C30.4756 12.1688 30.9176 12.218 31.2285 12.5134C31.6705 12.9401 31.605 13.6294 31.0649 14.0068C30.5902 14.3351 30.1155 14.6305 29.6409 14.9423C27.5295 16.3208 25.4181 17.7158 23.2903 19.0943C23.1758 19.1764 23.0121 19.2092 22.8811 19.2256C21.359 19.242 19.8368 19.242 18.3146 19.2256C17.9545 19.2256 17.6927 19.3897 17.4144 19.5538C17.3817 19.5866 17.349 19.6195 17.2835 19.6523Z" fill="#626972"/>
<path d="M1.60805 42V33.4336H3.0143V40.8047H6.65297V42H1.60805ZM13.617 38.7422C13.617 39.2812 13.5466 39.7598 13.406 40.1777C13.2654 40.5957 13.0603 40.9492 12.7908 41.2383C12.5213 41.5234 12.197 41.7422 11.8181 41.8945C11.4392 42.043 11.0115 42.1172 10.5349 42.1172C10.0896 42.1172 9.68141 42.043 9.31031 41.8945C8.93922 41.7422 8.61695 41.5234 8.34352 41.2383C8.07399 40.9492 7.865 40.5957 7.71656 40.1777C7.56813 39.7598 7.49391 39.2812 7.49391 38.7422C7.49391 38.0273 7.61695 37.4219 7.86305 36.9258C8.11305 36.4258 8.46852 36.0449 8.92945 35.7832C9.39039 35.5215 9.93922 35.3906 10.5759 35.3906C11.1736 35.3906 11.7009 35.5215 12.158 35.7832C12.615 36.0449 12.9724 36.4258 13.2302 36.9258C13.488 37.4258 13.617 38.0312 13.617 38.7422ZM8.91188 38.7422C8.91188 39.2148 8.96852 39.6191 9.0818 39.9551C9.19899 40.291 9.37867 40.5488 9.62086 40.7285C9.86305 40.9043 10.1755 40.9922 10.5584 40.9922C10.9412 40.9922 11.2537 40.9043 11.4959 40.7285C11.738 40.5488 11.9158 40.291 12.0291 39.9551C12.1423 39.6191 12.199 39.2148 12.199 38.7422C12.199 38.2695 12.1423 37.8691 12.0291 37.541C11.9158 37.209 11.738 36.957 11.4959 36.7852C11.2537 36.6094 10.9392 36.5215 10.5525 36.5215C9.98219 36.5215 9.56617 36.7129 9.30445 37.0957C9.04274 37.4785 8.91188 38.0273 8.91188 38.7422ZM14.1005 35.5137H15.6005L16.9305 39.2168C16.9891 39.3848 17.0419 39.5508 17.0888 39.7148C17.1395 39.875 17.1825 40.0332 17.2177 40.1895C17.2567 40.3457 17.288 40.502 17.3114 40.6582H17.3466C17.3856 40.4551 17.4403 40.2285 17.5106 39.9785C17.5848 39.7246 17.6669 39.4707 17.7567 39.2168L19.0341 35.5137H20.5165L17.7333 42.8906C17.5731 43.3125 17.3759 43.6719 17.1415 43.9688C16.911 44.2695 16.6376 44.4961 16.3212 44.6484C16.0048 44.8047 15.6434 44.8828 15.2372 44.8828C15.0419 44.8828 14.872 44.8711 14.7274 44.8477C14.5829 44.8281 14.4598 44.8066 14.3583 44.7832V43.6816C14.4403 43.7012 14.5438 43.7188 14.6688 43.7344C14.7938 43.75 14.9227 43.7578 15.0555 43.7578C15.3016 43.7578 15.5145 43.709 15.6942 43.6113C15.8739 43.5137 16.0263 43.375 16.1513 43.1953C16.2763 43.0195 16.3798 42.8184 16.4618 42.5918L16.6903 41.9824L14.1005 35.5137ZM23.9238 35.3906C24.7441 35.3906 25.3633 35.5723 25.7812 35.9355C26.2031 36.2988 26.4141 36.8652 26.4141 37.6348V42H25.4355L25.1719 41.0801H25.125C24.9414 41.3145 24.752 41.5078 24.5566 41.6602C24.3613 41.8125 24.1348 41.9258 23.877 42C23.623 42.0781 23.3125 42.1172 22.9453 42.1172C22.5586 42.1172 22.2129 42.0469 21.9082 41.9062C21.6035 41.7617 21.3633 41.543 21.1875 41.25C21.0117 40.957 20.9238 40.5859 20.9238 40.1367C20.9238 39.4688 21.1719 38.9668 21.668 38.6309C22.168 38.2949 22.9219 38.1094 23.9297 38.0742L25.0547 38.0332V37.6934C25.0547 37.2441 24.9492 36.9238 24.7383 36.7324C24.5312 36.541 24.2383 36.4453 23.8594 36.4453C23.5352 36.4453 23.2207 36.4922 22.916 36.5859C22.6113 36.6797 22.3145 36.7949 22.0254 36.9316L21.5801 35.959C21.8965 35.791 22.2559 35.6543 22.6582 35.5488C23.0645 35.4434 23.4863 35.3906 23.9238 35.3906ZM25.0488 38.9004L24.2109 38.9297C23.5234 38.9531 23.041 39.0703 22.7637 39.2812C22.4863 39.4922 22.3477 39.7812 22.3477 40.1484C22.3477 40.4688 22.4434 40.7031 22.6348 40.8516C22.8262 40.9961 23.0781 41.0684 23.3906 41.0684C23.8672 41.0684 24.2617 40.9336 24.5742 40.6641C24.8906 40.3906 25.0488 39.9902 25.0488 39.4629V38.9004ZM29.6046 42H28.2218V32.8828H29.6046V42ZM33.8674 41.0039C34.0471 41.0039 34.2248 40.9883 34.4006 40.957C34.5764 40.9219 34.7366 40.8809 34.8811 40.834V41.877C34.7288 41.9434 34.5315 42 34.2893 42.0469C34.0471 42.0938 33.7952 42.1172 33.5334 42.1172C33.1663 42.1172 32.8362 42.0566 32.5432 41.9355C32.2502 41.8105 32.0178 41.5977 31.8459 41.2969C31.6741 40.9961 31.5881 40.5801 31.5881 40.0488V36.5625H30.7034V35.9473L31.6526 35.4609L32.1038 34.0723H32.9709V35.5137H34.8284V36.5625H32.9709V40.0312C32.9709 40.3594 33.053 40.6035 33.217 40.7637C33.3811 40.9238 33.5979 41.0039 33.8674 41.0039ZM35.1009 35.5137H36.6009L37.931 39.2168C37.9896 39.3848 38.0423 39.5508 38.0892 39.7148C38.14 39.875 38.183 40.0332 38.2181 40.1895C38.2572 40.3457 38.2884 40.502 38.3119 40.6582H38.347C38.3861 40.4551 38.4408 40.2285 38.5111 39.9785C38.5853 39.7246 38.6673 39.4707 38.7572 39.2168L40.0345 35.5137H41.517L38.7337 42.8906C38.5736 43.3125 38.3763 43.6719 38.142 43.9688C37.9115 44.2695 37.638 44.4961 37.3216 44.6484C37.0052 44.8047 36.6439 44.8828 36.2377 44.8828C36.0423 44.8828 35.8724 44.8711 35.7279 44.8477C35.5834 44.8281 35.4603 44.8066 35.3587 44.7832V43.6816C35.4408 43.7012 35.5443 43.7188 35.6693 43.7344C35.7943 43.75 35.9232 43.7578 36.056 43.7578C36.3021 43.7578 36.515 43.709 36.6947 43.6113C36.8744 43.5137 37.0267 43.375 37.1517 43.1953C37.2767 43.0195 37.3802 42.8184 37.4623 42.5918L37.6908 41.9824L35.1009 35.5137Z" fill="#626972"/>
</svg>
