<svg width="11" height="20" viewBox="0 0 11 20" fill="none" xmlns="http://www.w3.org/2000/svg">
<path d="M8.54543 2.60195C9.23395 2.56621 9.78262 2.00168 9.78262 1.30434C9.78262 0.583945 9.19863 0 8.47824 0H1.95652C1.23613 0 0.652149 0.583945 0.652149 1.30434C0.652149 2.00168 1.20082 2.56621 1.88934 2.60191C1.48215 6.28438 0 6.52695 0 10.231V18.0435C0 19.1223 0.877657 20 1.95652 20H8.47828C9.55715 20 10.4348 19.1223 10.4348 18.0435V10.231C10.4348 6.52074 8.95359 6.29355 8.54543 2.60195ZM4.79152 8.06277C3.88813 7.46047 2.81676 7.23328 1.79977 7.35906C1.91789 7.02414 2.05512 6.69609 2.21383 6.37863C2.74437 5.31687 3.07434 3.8718 3.20102 2.60867H7.23379C7.36043 3.8718 7.69039 5.31687 8.22098 6.37863C8.44203 6.8207 8.62399 7.2825 8.76586 7.75637C8.28781 7.99359 6.71758 9.34684 4.79152 8.06277Z" fill="#626972"/>
</svg>
