<svg width="23" height="20" viewBox="0 0 23 20" fill="none" xmlns="http://www.w3.org/2000/svg">
<path d="M0 8.20977C0.140238 8.06369 0.257103 7.89424 0.420714 7.77737C3.85655 5.25309 7.30407 2.7288 10.7516 0.210357C11.1372 -0.070119 11.3125 -0.070119 11.6982 0.210357C15.1691 2.74633 18.6341 5.28814 22.105 7.82996C22.5316 8.1455 22.5608 8.63633 22.1576 8.87006C21.8947 9.02783 21.6609 8.95186 21.4272 8.78241C20.2644 7.92929 19.1074 7.08202 17.9446 6.23475C15.7593 4.6337 13.5739 3.03849 11.3943 1.4316C11.2541 1.33226 11.1723 1.33811 11.0379 1.43744C7.71309 3.87408 4.38828 6.31071 1.06347 8.74735C0.596012 9.0921 0.26879 9.01614 0 8.51362C0 8.41429 0 8.30911 0 8.20977Z" fill="#626972"/>
<path d="M3.64033 18.8273C5.20048 18.8273 6.73725 18.8273 8.30325 18.8273C8.30325 18.7338 8.30325 18.6461 8.30325 18.5643C8.30325 16.9867 8.2974 15.409 8.30325 13.8313C8.30909 12.4231 9.18558 11.2836 10.5062 10.9447C12.2416 10.5006 13.9887 11.7511 14.1173 13.5333C14.1407 13.8371 14.1348 14.1468 14.1348 14.4507C14.1348 15.818 14.1348 17.1795 14.1348 18.5468C14.1348 18.6345 14.1348 18.7221 14.1348 18.8214C15.695 18.8214 17.2317 18.8214 18.7977 18.8214C18.7977 18.7338 18.7977 18.652 18.7977 18.5643C18.7977 15.5901 18.7977 12.6218 18.7977 9.64753C18.7977 9.21513 19.0431 8.95219 19.423 8.97556C19.6801 8.99309 19.8904 9.17423 19.943 9.43133C19.9605 9.51898 19.9605 9.60663 19.9605 9.69428C19.9605 12.8847 19.9605 16.0751 19.9605 19.2655C19.9605 19.3006 19.9605 19.3415 19.9605 19.3766C19.9372 19.7739 19.721 19.9901 19.3178 19.9959C17.4187 19.9959 15.5197 19.9959 13.6206 19.9959C13.1882 19.9959 12.9662 19.768 12.9662 19.3298C12.9662 17.4892 12.972 15.6486 12.9662 13.8079C12.9662 12.8146 12.2241 12.0433 11.2658 12.0199C10.2724 11.9907 9.4719 12.7795 9.46605 13.7962C9.46021 15.6018 9.46605 17.4015 9.46605 19.2071C9.46605 19.2714 9.46605 19.3415 9.46605 19.4058C9.45437 19.7622 9.22648 19.9959 8.87004 19.9959C6.94177 20.0018 5.01349 20.0018 3.08522 19.9959C2.72294 19.9959 2.5009 19.7797 2.47752 19.4175C2.47168 19.3473 2.47168 19.2714 2.47168 19.2013C2.47168 16.0634 2.47168 12.9198 2.47168 9.78193C2.47168 9.68259 2.47168 9.57741 2.48921 9.47808C2.53596 9.17423 2.78137 8.97556 3.08522 8.98724C3.37738 8.99893 3.60527 9.21513 3.63449 9.51314C3.64033 9.59494 3.64033 9.67091 3.64033 9.75271C3.64033 12.686 3.64033 15.6252 3.64033 18.5585C3.64033 18.6461 3.64033 18.728 3.64033 18.8273Z" fill="#626972"/>
</svg>
