<svg width="21" height="18" viewBox="0 0 21 18" fill="none" xmlns="http://www.w3.org/2000/svg">
<path d="M9.14742 2.65041C9.00746 2.61533 8.88497 2.58025 8.78 2.54516C8.15016 2.3522 7.78276 1.73821 7.88773 1.0716C7.97521 0.457615 8.50009 0.0190555 9.14742 0.0190555C10.0222 0.0190555 10.9145 0.0541446 11.7892 0.00151743C12.4541 -0.0335673 12.9964 0.545327 13.0839 1.15931C13.1714 1.77329 12.769 2.38728 12.1567 2.58025C12.0517 2.61533 11.9467 2.63288 11.8067 2.66796C11.8067 3.05389 11.8067 3.43982 11.8067 3.82575C11.8067 4.03626 11.9642 4.08889 12.1392 4.12398C13.0314 4.2994 13.9062 4.58007 14.6935 5.01863C17.5453 6.59745 19.1724 9.00076 19.5748 12.2286C19.6273 12.5969 19.6098 12.9653 19.5923 13.3337C19.5573 13.8951 19.0499 14.3863 18.49 14.4214C18.3851 14.4214 18.2801 14.4214 18.1751 14.4214C13.0139 14.4214 7.85275 14.4038 2.69156 14.4389C1.81678 14.4389 1.3094 13.7372 1.3094 13.0355C1.25692 9.26389 3.96872 5.05372 8.69252 4.10643C9.1649 4.01872 9.16491 4.00118 9.16491 3.52753C9.14742 3.24685 9.14742 2.94863 9.14742 2.65041ZM16.6005 12.018C16.6005 11.9479 16.583 11.8602 16.583 11.79C16.3206 10.141 15.5508 8.75516 14.2561 7.68508C13.8712 7.35177 13.4163 7.08863 12.9789 6.8255C12.769 6.7027 12.5416 6.77288 12.4016 6.96585C12.2616 7.14127 12.2616 7.35177 12.4016 7.52719C12.4716 7.6149 12.594 7.68508 12.6815 7.7377C14.0462 8.54465 15.0084 9.68491 15.4633 11.2111C15.5508 11.5093 15.5858 11.8251 15.6558 12.1408C15.7083 12.4215 15.9357 12.5969 16.1981 12.5619C16.4606 12.5092 16.618 12.2987 16.6005 12.018Z" fill="#27292B"/>
<path d="M10.5121 17.9825C7.45033 17.9825 4.38862 17.9825 1.34439 17.9825C0.364637 17.9825 -0.230214 17.1229 0.084706 16.2107C0.259662 15.702 0.679553 15.4038 1.2744 15.4038C2.88399 15.4038 4.51108 15.3862 6.12068 15.3862C10.582 15.3862 15.0434 15.3862 19.5048 15.3862C20.2571 15.3862 20.8519 15.8599 20.9219 16.5265C21.0094 17.4387 20.2746 18 19.6622 18C16.6005 17.965 13.5563 17.9825 10.5121 17.9825Z" fill="#27292B"/>
</svg>
