<svg width="15" height="18" viewBox="0 0 15 18" fill="none" xmlns="http://www.w3.org/2000/svg">
<g clip-path="url(#clip0_12_148)">
<path d="M7.67812 4.88288e-05C7.72031 0.0187988 7.75781 0.0422363 7.79999 0.0609863C8.07656 0.192236 8.23593 0.407861 8.24999 0.717236C8.25937 0.951611 8.25468 1.18599 8.24999 1.42036C8.24999 1.5188 8.27812 1.56099 8.38124 1.57974C10.5656 1.97817 12.1922 3.54849 12.6422 5.71411C12.7172 6.08442 12.7359 6.4688 12.7453 6.84849C12.7641 7.64068 12.7312 8.43286 12.7781 9.22036C12.8625 10.5657 13.4391 11.6907 14.4422 12.5954C14.7328 12.8532 14.9531 13.1438 14.9859 13.5422C15.0562 14.3344 14.5078 14.9532 13.7109 14.9954C13.6641 15 13.6172 14.9954 13.5703 14.9954C9.52499 14.9954 5.47499 14.9954 1.42968 14.9954C0.960932 14.9954 0.567182 14.85 0.276557 14.475C-0.159381 13.9172 -0.0703182 13.1485 0.496869 12.6516C0.993744 12.2157 1.39218 11.7141 1.69687 11.1282C2.08124 10.3875 2.25468 9.59067 2.25468 8.76099C2.25468 8.03911 2.24531 7.32192 2.25937 6.60005C2.30624 4.13442 4.15781 1.98755 6.59062 1.58442C6.72656 1.56099 6.76406 1.50942 6.75937 1.38286C6.74999 1.24224 6.76874 1.10161 6.75468 0.960986C6.71249 0.496924 6.88593 0.168799 7.32656 -0.00463867C7.44374 4.88288e-05 7.56093 4.88288e-05 7.67812 4.88288e-05Z" fill="#626972"/>
<path d="M7.18594 18.0001C6.84375 17.8876 6.48281 17.8126 6.16875 17.6485C5.43281 17.2688 4.98281 16.6454 4.76719 15.8485C4.7625 15.8251 4.7625 15.8017 4.75781 15.7642C6.58594 15.7642 8.40938 15.7642 10.2469 15.7642C10.1859 16.1017 10.0547 16.411 9.86719 16.697C9.39844 17.4095 8.74219 17.8407 7.89375 17.972C7.86562 17.9767 7.84219 17.9907 7.81406 18.0001C7.60781 18.0001 7.39688 18.0001 7.18594 18.0001Z" fill="#626972"/>
</g>
<defs>
<clipPath id="clip0_12_148">
<rect width="14.9953" height="18" fill="white"/>
</clipPath>
</defs>
</svg>
