<svg width="19" height="18" viewBox="0 0 19 18" fill="none" xmlns="http://www.w3.org/2000/svg">
<path d="M10.9458 18C9.88333 18 8.82086 18 7.75839 18C7.75367 17.9292 7.74895 17.8583 7.74895 17.7875C7.74895 16.5739 7.74895 15.3556 7.74895 14.142C7.74895 13.259 7.20591 12.716 6.3276 12.7113C5.76095 12.7113 5.1943 12.7113 4.62765 12.7113C3.75406 12.7113 3.21574 13.2543 3.21574 14.1232C3.21574 15.3603 3.21574 16.6023 3.21574 17.8394C3.21574 17.8914 3.22046 17.9433 3.22519 18C2.3516 18 1.47801 18 0.604427 18C0.302213 17.9008 0.103886 17.6978 0 17.3956C0 11.9652 0 6.53476 0 1.10436C0.0141663 1.0713 0.028332 1.04297 0.0377761 1.00992C0.22666 0.325214 0.821643 -0.0808849 1.52523 0.0135569C2.24771 0.112721 2.9702 0.230773 3.69268 0.339381C5.13291 0.556597 6.57315 0.778536 8.00866 0.995752C8.62726 1.09019 9.24585 1.17991 9.85972 1.27908C10.4264 1.3688 10.9552 1.88823 10.9552 2.68154C10.9458 7.72473 10.9505 12.7726 10.9505 17.8158C10.9552 17.8867 10.9505 17.9433 10.9458 18ZM3.59823 3.08764C3.39991 3.08764 3.19686 3.08292 2.99853 3.08764C2.70104 3.1018 2.4791 3.32374 2.46021 3.61651C2.44132 3.89039 2.63965 4.17372 2.92297 4.19261C3.36685 4.22094 3.82017 4.22094 4.26405 4.19261C4.55682 4.17372 4.74098 3.89511 4.71737 3.59762C4.69848 3.31902 4.47182 3.09708 4.17905 3.08764C3.98544 3.07819 3.79184 3.08292 3.59823 3.08764ZM3.58879 6.48282C3.76351 6.48282 3.94295 6.48754 4.11766 6.48282C4.47654 6.47338 4.72209 6.23727 4.71737 5.902C4.71264 5.57618 4.47182 5.35424 4.11294 5.34952C3.7635 5.3448 3.41879 5.3448 3.06936 5.34952C2.70576 5.35424 2.45549 5.59034 2.45549 5.91617C2.45549 6.23727 2.7152 6.4781 3.07408 6.48282C3.2488 6.48754 3.41879 6.48282 3.58879 6.48282ZM3.58879 7.61612C3.3999 7.61612 3.21102 7.6114 3.02214 7.61612C2.70576 7.62557 2.46965 7.85223 2.45549 8.15916C2.44132 8.44249 2.65381 8.71637 2.94658 8.73526C3.37629 8.75887 3.80601 8.75887 4.23572 8.73526C4.54265 8.71637 4.73625 8.44721 4.71737 8.14027C4.7032 7.85223 4.47182 7.63029 4.1696 7.62084C3.976 7.6114 3.78239 7.61612 3.58879 7.61612ZM3.58879 11.016C3.76351 11.016 3.94295 11.0207 4.11766 11.016C4.47654 11.0066 4.72209 10.7705 4.71737 10.4352C4.71264 10.1094 4.4671 9.88745 4.11294 9.88272C3.7635 9.878 3.41879 9.878 3.06936 9.88272C2.70576 9.88745 2.45549 10.1236 2.45549 10.4494C2.45549 10.7705 2.7152 11.0113 3.07408 11.016C3.2488 11.0207 3.41879 11.016 3.58879 11.016ZM7.36174 4.21622C7.55062 4.21622 7.7395 4.22094 7.92839 4.21622C8.26366 4.20205 8.50448 3.9565 8.49976 3.64012C8.49504 3.32374 8.24949 3.08764 7.91422 3.08292C7.55534 3.07819 7.19647 3.07819 6.83286 3.08292C6.48343 3.08764 6.23316 3.31902 6.23316 3.64484C6.23316 3.96595 6.48343 4.20677 6.82814 4.21622C7.00758 4.22094 7.18702 4.21622 7.36174 4.21622ZM7.38063 5.34952C7.1823 5.34952 6.97925 5.3448 6.78092 5.34952C6.48343 5.35896 6.25677 5.58562 6.23788 5.87367C6.21899 6.16172 6.41732 6.44032 6.71009 6.45921C7.14452 6.48754 7.58368 6.48754 8.01811 6.45921C8.32032 6.44032 8.52337 6.157 8.49976 5.86423C8.47615 5.5809 8.24477 5.35424 7.94728 5.3448C7.75839 5.3448 7.56951 5.34952 7.38063 5.34952ZM7.37591 7.61612C7.18702 7.61612 6.99814 7.61612 6.80925 7.61612C6.79981 7.61612 6.78564 7.61612 6.7762 7.61612C6.48815 7.63501 6.26149 7.85223 6.23788 8.13083C6.21427 8.41888 6.40787 8.70692 6.70064 8.72581C7.14452 8.75414 7.59784 8.75414 8.04172 8.72581C8.33449 8.70692 8.52809 8.41888 8.49976 8.13083C8.47615 7.85223 8.24477 7.63029 7.96144 7.62084C7.76311 7.6114 7.56951 7.61612 7.37591 7.61612ZM7.38063 9.88272C7.1823 9.88272 6.97925 9.878 6.78092 9.88272C6.48343 9.89217 6.25677 10.1188 6.23788 10.4069C6.21899 10.6949 6.41732 10.9735 6.71009 10.9924C7.14452 11.0207 7.58368 11.0207 8.01811 10.9924C8.32032 10.9735 8.52337 10.6902 8.49976 10.3974C8.47615 10.1141 8.24477 9.88745 7.94728 9.878C7.75839 9.878 7.56951 9.88272 7.38063 9.88272Z" fill="#626972"/>
<path d="M11.7249 18C11.7202 17.9291 11.7155 17.8583 11.7155 17.7875C11.7155 14.2506 11.7155 10.7185 11.7155 7.18167C11.7155 7.10611 11.7155 7.03056 11.7155 6.9314C12.0413 6.99751 12.3482 7.06362 12.6504 7.125C14.1096 7.43194 15.5687 7.73415 17.0278 8.04109C17.7314 8.18747 18.1328 8.69274 18.1328 9.41049C18.1328 11.7999 18.1328 14.1892 18.1328 16.5786C18.1328 17.3153 17.7644 17.7828 17.0467 17.9669C17.0278 17.9716 17.0136 17.9811 16.9995 17.9905C15.2429 18 13.4862 18 11.7249 18ZM14.7329 11.2002C14.9265 11.2002 15.1201 11.2049 15.3184 11.2002C15.6253 11.1907 15.8662 10.9452 15.8709 10.643C15.8756 10.336 15.6301 10.0763 15.3184 10.0716C14.9359 10.0621 14.5534 10.0669 14.1662 10.0716C13.8451 10.0763 13.6043 10.3266 13.6043 10.6382C13.6043 10.9452 13.8498 11.1954 14.1662 11.2049C14.3551 11.2049 14.544 11.2002 14.7329 11.2002ZM14.7329 13.4668C14.9265 13.4668 15.1201 13.4715 15.3184 13.4668C15.6348 13.4573 15.8756 13.2023 15.8709 12.8907C15.8662 12.5885 15.6253 12.3429 15.3184 12.3335C14.9359 12.324 14.5534 12.3287 14.1662 12.3335C13.8451 12.3382 13.6043 12.5885 13.6043 12.9001C13.6043 13.2071 13.8498 13.4573 14.1662 13.4668C14.3551 13.4715 14.544 13.4668 14.7329 13.4668ZM14.7423 15.7334C14.9312 15.7334 15.1201 15.7381 15.309 15.7334C15.6253 15.7239 15.8709 15.4737 15.8662 15.1667C15.8662 14.8598 15.6206 14.6095 15.2995 14.6048C14.9218 14.6001 14.544 14.6001 14.1662 14.6048C13.8451 14.6095 13.5996 14.8551 13.5996 15.162C13.5948 15.4784 13.8451 15.7287 14.1709 15.7334C14.3645 15.7381 14.5534 15.7334 14.7423 15.7334Z" fill="#626972"/>
</svg>
