<svg width="34" height="43" viewBox="0 0 34 43" fill="none" xmlns="http://www.w3.org/2000/svg">
<path d="M15.1638 2.9449C15.0083 2.90592 14.8722 2.86694 14.7555 2.82796C14.0557 2.61355 13.6475 1.93134 13.7641 1.19066C13.8613 0.508461 14.4445 0.0211728 15.1638 0.0211728C16.1358 0.0211728 17.1272 0.0601606 18.0991 0.00168603C18.8378 -0.037297 19.4405 0.605919 19.5377 1.28812C19.6349 1.97033 19.1878 2.65254 18.5074 2.86694C18.3907 2.90593 18.2741 2.92542 18.1186 2.9644C18.1186 3.39322 18.1186 3.82202 18.1186 4.25084C18.1186 4.48474 18.2935 4.54321 18.4879 4.5822C19.4794 4.77711 20.4513 5.08897 21.3261 5.57626C24.4947 7.3305 26.3026 10.0008 26.7497 13.5873C26.808 13.9966 26.7886 14.4059 26.7692 14.8153C26.7303 15.439 26.1665 15.9847 25.5445 16.0237C25.4278 16.0237 25.3112 16.0237 25.1946 16.0237C19.4599 16.0237 13.7253 16.0042 7.9906 16.0432C7.01862 16.0432 6.45487 15.2636 6.45487 14.4839C6.39655 10.2932 9.40967 5.61524 14.6583 4.5627C15.1832 4.46524 15.1832 4.44575 15.1832 3.91948C15.1638 3.60761 15.1638 3.27626 15.1638 2.9449ZM23.445 13.3534C23.445 13.2754 23.4256 13.178 23.4256 13.1C23.134 11.2678 22.2786 9.72796 20.8401 8.53898C20.4124 8.16864 19.907 7.87626 19.421 7.58389C19.1877 7.44745 18.935 7.52542 18.7795 7.73983C18.624 7.93474 18.624 8.16863 18.7795 8.36355C18.8573 8.46101 18.9934 8.53897 19.0906 8.59745C20.6068 9.49406 21.676 10.761 22.1814 12.4568C22.2786 12.7881 22.3175 13.139 22.3953 13.4898C22.4536 13.8017 22.7063 13.9966 22.9979 13.9576C23.2895 13.8991 23.4645 13.6653 23.445 13.3534Z" fill="#626972"/>
<path d="M16.6801 19.9807C13.2781 19.9807 9.87624 19.9807 6.49376 19.9807C5.40515 19.9807 4.74421 19.0256 5.09412 18.012C5.28851 17.4468 5.75506 17.1154 6.416 17.1154C8.20444 17.1154 10.0123 17.0959 11.8007 17.0959C16.7578 17.0959 21.7149 17.0959 26.672 17.0959C27.5079 17.0959 28.1688 17.6222 28.2466 18.3629C28.3438 19.3765 27.5273 20.0002 26.8469 20.0002C23.445 19.9612 20.0625 19.9807 16.6801 19.9807Z" fill="#626972"/>
<path d="M8.87281 35.7051C8.87281 36.3652 8.78883 36.9668 8.62086 37.5098C8.4568 38.0488 8.20875 38.5137 7.87672 38.9043C7.54469 39.291 7.12867 39.5898 6.62867 39.8008C6.12867 40.0117 5.54273 40.1172 4.87086 40.1172C4.18727 40.1172 3.59352 40.0117 3.08961 39.8008C2.58961 39.5898 2.17359 39.2891 1.84156 38.8984C1.51344 38.5078 1.26734 38.041 1.10328 37.498C0.939219 36.9551 0.857187 36.3535 0.857187 35.6934C0.857187 34.8105 1.00172 34.041 1.29078 33.3848C1.58375 32.7246 2.02711 32.2129 2.62086 31.8496C3.21852 31.4824 3.97242 31.2988 4.88258 31.2988C5.7732 31.2988 6.51344 31.4805 7.10328 31.8438C7.69312 32.207 8.13453 32.7188 8.4275 33.3789C8.72437 34.0352 8.87281 34.8105 8.87281 35.7051ZM2.33375 35.7051C2.33375 36.3652 2.42359 36.9375 2.60328 37.4219C2.78297 37.9023 3.05836 38.2734 3.42945 38.5352C3.80445 38.793 4.28492 38.9219 4.87086 38.9219C5.4607 38.9219 5.94117 38.793 6.31227 38.5352C6.68336 38.2734 6.9568 37.9023 7.13258 37.4219C7.30836 36.9375 7.39625 36.3652 7.39625 35.7051C7.39625 34.7012 7.19508 33.916 6.79273 33.3496C6.3943 32.7793 5.75758 32.4941 4.88258 32.4941C4.29664 32.4941 3.81422 32.623 3.43531 32.8809C3.06031 33.1387 2.78297 33.5078 2.60328 33.9883C2.42359 34.4648 2.33375 35.0371 2.33375 35.7051ZM13.7391 33.3906C13.8485 33.3906 13.9677 33.3965 14.0966 33.4082C14.2255 33.4199 14.3368 33.4355 14.4305 33.4551L14.3016 34.7441C14.2196 34.7207 14.118 34.7031 13.997 34.6914C13.8798 34.6797 13.7743 34.6738 13.6805 34.6738C13.4345 34.6738 13.2001 34.7148 12.9774 34.7969C12.7548 34.875 12.5575 34.9961 12.3856 35.1602C12.2137 35.3203 12.079 35.5215 11.9813 35.7637C11.8837 36.0059 11.8348 36.2871 11.8348 36.6074V40H10.452V33.5137H11.5302L11.7177 34.6562H11.7821C11.911 34.4258 12.0712 34.2148 12.2626 34.0234C12.454 33.832 12.6727 33.6797 12.9188 33.5664C13.1688 33.4492 13.4423 33.3906 13.7391 33.3906ZM17.6914 40.1172C16.918 40.1172 16.2969 39.8359 15.8281 39.2734C15.3633 38.707 15.1309 37.873 15.1309 36.7715C15.1309 35.6582 15.3672 34.8164 15.8398 34.2461C16.3164 33.6758 16.9434 33.3906 17.7207 33.3906C18.0488 33.3906 18.3359 33.4355 18.582 33.5254C18.8281 33.6113 19.0391 33.7285 19.2148 33.877C19.3945 34.0254 19.5469 34.1914 19.6719 34.375H19.7363C19.7168 34.2539 19.6934 34.0801 19.666 33.8535C19.6426 33.623 19.6309 33.4102 19.6309 33.2148V30.8828H21.0137V40H19.9355L19.6895 39.1152H19.6309C19.5137 39.3027 19.3652 39.4727 19.1855 39.625C19.0098 39.7734 18.7988 39.8926 18.5527 39.9824C18.3105 40.0723 18.0234 40.1172 17.6914 40.1172ZM18.0781 38.998C18.668 38.998 19.084 38.8281 19.3262 38.4883C19.5684 38.1484 19.6934 37.6387 19.7012 36.959V36.7773C19.7012 36.0508 19.584 35.4941 19.3496 35.1074C19.1152 34.7168 18.6875 34.5215 18.0664 34.5215C17.5703 34.5215 17.1914 34.7227 16.9297 35.125C16.6719 35.5234 16.543 36.0801 16.543 36.7949C16.543 37.5098 16.6719 38.0566 16.9297 38.4355C17.1914 38.8105 17.5742 38.998 18.0781 38.998ZM25.4523 33.3906C26.0304 33.3906 26.5265 33.5098 26.9405 33.748C27.3546 33.9863 27.673 34.3242 27.8956 34.7617C28.1183 35.1992 28.2296 35.7227 28.2296 36.332V37.0703H23.8995C23.9152 37.6992 24.0831 38.1836 24.4034 38.5234C24.7277 38.8633 25.1808 39.0332 25.7628 39.0332C26.1769 39.0332 26.548 38.9941 26.8761 38.916C27.2081 38.834 27.5499 38.7148 27.9015 38.5586V39.6777C27.5773 39.8301 27.2472 39.9414 26.9112 40.0117C26.5753 40.082 26.173 40.1172 25.7042 40.1172C25.0675 40.1172 24.507 39.9941 24.0226 39.748C23.5421 39.498 23.1652 39.127 22.8917 38.6348C22.6222 38.1426 22.4874 37.5312 22.4874 36.8008C22.4874 36.0742 22.6105 35.457 22.8566 34.9492C23.1027 34.4414 23.4484 34.0547 23.8937 33.7891C24.339 33.5234 24.8585 33.3906 25.4523 33.3906ZM25.4523 34.4277C25.0187 34.4277 24.6671 34.5684 24.3976 34.8496C24.132 35.1309 23.9757 35.543 23.9288 36.0859H26.882C26.878 35.7617 26.8234 35.4746 26.7179 35.2246C26.6163 34.9746 26.4601 34.7793 26.2491 34.6387C26.0421 34.498 25.7765 34.4277 25.4523 34.4277ZM32.9495 33.3906C33.0588 33.3906 33.178 33.3965 33.3069 33.4082C33.4358 33.4199 33.5471 33.4355 33.6409 33.4551L33.512 34.7441C33.4299 34.7207 33.3284 34.7031 33.2073 34.6914C33.0901 34.6797 32.9846 34.6738 32.8909 34.6738C32.6448 34.6738 32.4104 34.7148 32.1877 34.7969C31.9651 34.875 31.7678 34.9961 31.5959 35.1602C31.4241 35.3203 31.2893 35.5215 31.1916 35.7637C31.094 36.0059 31.0452 36.2871 31.0452 36.6074V40H29.6623V33.5137H30.7405L30.928 34.6562H30.9924C31.1213 34.4258 31.2815 34.2148 31.4729 34.0234C31.6643 33.832 31.883 33.6797 32.1291 33.5664C32.3791 33.4492 32.6526 33.3906 32.9495 33.3906Z" fill="#626972"/>
</svg>
