<svg width="19" height="20" viewBox="0 0 19 20" fill="none" xmlns="http://www.w3.org/2000/svg">
<path d="M12.7197 4.01674C8.91213 4.01674 5.14644 4.01674 1.33891 4.01674C1.33891 7.99163 1.33891 12.0084 1.33891 15.9833C5.1046 15.9833 8.91213 15.9833 12.7197 15.9833C12.7197 15.7741 12.7197 15.6067 12.7197 15.4393C12.7197 15.0209 12.7197 14.5607 12.7197 14.1423C12.7197 13.7657 13.0125 13.4728 13.3891 13.431C13.7657 13.431 14.0586 13.7238 14.0586 14.1423C14.0586 15.4393 14.0586 16.7364 14.0586 18.0753C14.0167 19.205 13.1799 20.0418 12.0084 20.0418C8.70292 20.0418 5.39748 20.0418 2.09204 20.0418C0.962336 20.0418 0.125516 19.2469 0.0418344 18.1172C0.0418344 18.0335 0.0418344 17.9916 0.0418344 17.9079C0.0418344 12.6778 0.0418344 7.4477 0.0418344 2.21757C-6.63847e-06 1.25523 0.376562 0.585774 1.17154 0.209205C1.42259 0.083682 1.71547 0 2.00836 0C5.35564 0 8.74476 0 12.092 0C13.1799 0 14.0586 0.83682 14.0586 1.96653C14.1004 3.2636 14.0586 4.56067 14.0586 5.89958C14.0586 6.31799 13.7657 6.61088 13.3891 6.56904C13.0125 6.56904 12.7615 6.27615 12.7615 5.85774C12.7197 5.27197 12.7197 4.64435 12.7197 4.01674Z" fill="white"/>
<path d="M9.41416 10.6696C9.41416 10.8788 9.41416 11.0461 9.41416 11.2135C9.41416 11.6319 9.12128 11.9248 8.74471 11.9248C8.36814 11.9248 8.07525 11.6319 8.07525 11.2135C8.07525 11.0461 8.07525 10.8788 8.07525 10.6696C7.94973 10.6696 7.86605 10.6696 7.74052 10.6696C7.74052 10.9624 7.74052 11.2135 7.74052 11.5064C7.74052 11.9248 7.48948 12.1758 7.11291 12.2177C6.73634 12.2595 6.40161 11.9666 6.40161 11.5901C6.40161 10.544 6.40161 9.45616 6.40161 8.41014C6.40161 8.07541 6.65266 7.82436 6.98739 7.78252C7.32211 7.74068 7.615 7.99173 7.69868 8.32646C7.69868 8.41014 7.74052 8.49382 7.74052 8.5775C7.74052 8.82855 7.74052 9.07959 7.74052 9.33064C7.82421 9.33064 7.86605 9.33064 7.94973 9.33064C9.41416 9.33064 10.8786 9.33064 12.3849 9.33064C12.5522 9.33064 12.5941 9.2888 12.6359 9.12143C13.0125 7.78252 14.3514 6.86202 15.6485 6.9457C17.1129 7.07123 18.2845 8.11725 18.4937 9.53984C18.7447 11.088 17.6987 12.5942 16.1924 12.929C14.6443 13.2637 13.0962 12.385 12.6359 10.8788C12.5941 10.7114 12.5104 10.6277 12.343 10.6277C11.4644 10.6277 10.5857 10.6277 9.66521 10.6277C9.58153 10.6696 9.49785 10.6696 9.41416 10.6696Z" fill="white"/>
</svg>
