<svg width="22" height="37" viewBox="0 0 22 37" fill="none" xmlns="http://www.w3.org/2000/svg">
<path d="M2.78533 36C2.11583 35.814 1.52072 35.5165 1.26036 34.847C1.11158 34.475 1 34.0659 1 33.6567C1 29.7513 1 25.8459 1 21.9405C1 15.7662 1 9.59192 1 3.38045C1 1.81828 1.85547 1 3.38045 1C8.4017 1 13.423 1 18.4442 1C19.9692 1 20.8247 1.85547 20.8247 3.38045C20.8247 13.3858 20.8247 23.3911 20.8247 33.4336C20.8247 34.9586 20.4527 35.4793 19.0393 36C13.6461 36 8.21573 36 2.78533 36ZM19.6716 5.6865C13.8321 5.6865 7.99256 5.6865 2.19022 5.6865C2.19022 13.4601 2.19022 21.2338 2.19022 28.9702C8.02976 28.9702 13.8321 28.9702 19.6716 28.9702C19.6716 21.1966 19.6716 13.4601 19.6716 5.6865ZM2.15303 30.1977C2.15303 31.4251 2.15303 32.6153 2.15303 33.8055C2.15303 34.475 2.52497 34.847 3.19447 34.847C8.32731 34.847 13.4601 34.847 18.593 34.847C19.2625 34.847 19.6344 34.475 19.6344 33.8055C19.6344 32.6897 19.6344 31.5739 19.6344 30.458C19.6344 30.3836 19.6344 30.3092 19.5972 30.2349C13.8321 30.1977 8.02976 30.1977 2.15303 30.1977ZM19.6716 4.45909C19.6716 4.08714 19.6716 3.7152 19.6716 3.34325C19.6716 2.45058 19.3369 2.15303 18.4442 2.15303C13.423 2.15303 8.4017 2.15303 3.38045 2.15303C3.26886 2.15303 3.15728 2.15303 3.0457 2.15303C2.59936 2.19022 2.22742 2.52497 2.19022 2.93411C2.15303 3.41764 2.19022 3.93836 2.19022 4.45909C7.99256 4.45909 13.7949 4.45909 19.6716 4.45909Z" fill="#626972" stroke="#626972" stroke-width="0.5"/>
</svg>
