<svg width="20" height="20" viewBox="0 0 20 20" fill="none" xmlns="http://www.w3.org/2000/svg">
<path d="M1.64557 4.83325C4.05063 4.83325 6.4557 4.83325 8.86076 4.83325C8.80898 5.00586 8.74568 5.16697 8.71116 5.33958C8.59609 5.96099 8.87227 6.56513 9.40161 6.89309C9.91945 7.2153 10.5869 7.20379 11.0875 6.83555C11.6053 6.45005 12.1116 6.04729 12.6237 5.65028C12.664 5.62151 12.7043 5.59275 12.7848 5.53521C12.7388 5.70207 12.71 5.8229 12.6755 5.93797C12.2785 7.27284 11.8815 8.60771 11.496 9.94257C11.4327 10.1612 11.3982 10.3914 11.3982 10.6215C11.3924 13.6537 11.3924 16.686 11.3924 19.7239C11.3924 19.8102 11.3924 19.8965 11.3924 20.0001C7.60069 20.0001 3.81473 20.0001 0 20.0001C0 19.9311 0 19.8563 0 19.7757C0 16.732 0 13.694 0.00575374 10.6503C0.00575374 10.4662 0.0345224 10.2763 0.0863061 10.0979C0.581128 8.41208 1.07595 6.72623 1.57652 5.03463C1.59379 4.97134 1.62255 4.9023 1.64557 4.83325ZM2.7618 11.3753C2.7618 11.0415 2.7618 10.7366 2.7618 10.4259C2.7618 10.1612 2.62371 10.0001 2.41082 10.0059C2.20368 10.0116 2.0771 10.167 2.0771 10.4201C2.05409 11.7665 2.05409 11.7665 2.65247 12.9633C2.67549 13.0093 2.70426 13.0496 2.72152 13.0956C2.73878 13.1532 2.7618 13.2222 2.75604 13.2797C2.74453 13.5214 2.72152 13.7688 2.70426 14.0105C2.62946 15.0692 2.54315 16.1336 2.47986 17.1923C2.44534 17.7907 2.90564 18.274 3.50978 18.2855C3.6939 18.2912 3.88377 18.2912 4.06789 18.2855C4.71807 18.2797 5.17837 17.7849 5.13234 17.1405C5.05754 16.0588 4.98849 14.9771 4.89068 13.8954C4.84465 13.4178 4.87342 12.9748 5.1496 12.5663C5.27043 12.3822 5.35673 12.1693 5.44879 11.9736C5.48331 11.9046 5.52359 11.824 5.52359 11.755C5.52934 11.2832 5.5351 10.8056 5.52359 10.3338C5.51784 10.144 5.36249 10.0116 5.17837 10.0174C5 10.0174 4.85616 10.1497 4.8389 10.3396C4.83314 10.4259 4.83314 10.5122 4.83314 10.5985C4.83314 10.8632 4.83314 11.1221 4.83314 11.381C4.58573 11.381 4.37284 11.381 4.14269 11.381C4.14269 11.0703 4.14269 10.7711 4.14269 10.4719C4.14269 10.3914 4.14269 10.3108 4.11392 10.2418C4.05063 10.0749 3.91254 9.99436 3.73993 10.0231C3.55581 10.0576 3.458 10.1842 3.45224 10.3741C3.45224 10.7078 3.45224 11.0415 3.45224 11.3868C3.21059 11.3753 2.9977 11.3753 2.7618 11.3753ZM8.63061 12.7562C8.63061 11.7838 8.63061 11.0933 8.63061 10.4029C8.63061 10.1267 8.49252 9.99436 8.21059 10.0059C7.86536 10.0174 7.53165 10.1094 7.27848 10.3511C7.02532 10.5927 6.78366 10.8574 6.60529 11.1566C6.13924 11.9506 5.96663 12.8425 5.86881 13.7458C5.85155 13.9242 5.92635 14.0507 6.08746 14.1255C6.15075 14.1543 6.21404 14.2003 6.28308 14.2176C6.53049 14.2866 6.57077 14.442 6.542 14.6894C6.44419 15.5007 6.36364 16.3177 6.30035 17.1347C6.28308 17.3304 6.32336 17.5605 6.41542 17.7331C6.62255 18.1532 6.99655 18.2855 7.45109 18.2912C7.98044 18.297 8.48101 18.2797 8.78021 17.7389C8.92405 17.48 8.91254 17.198 8.87802 16.9219C8.71116 15.4431 8.55006 13.9644 8.63061 12.7562Z" fill="#27292B"/>
<path d="M6.61682 2.01958C7.3533 1.61681 8.08978 1.2083 8.83201 0.817045C8.98736 0.736492 9.17148 0.684709 9.34985 0.684709C11.7204 0.678955 14.0967 0.678955 16.4672 0.678955C16.496 0.678955 16.5248 0.684709 16.5593 0.690463C16.5593 1.3694 16.5593 2.04259 16.5593 2.7503C16.3291 2.7503 16.099 2.7503 15.8631 2.7503C15.4085 2.7503 15.2187 2.92291 15.1899 3.37171C15.1439 3.98736 14.6548 4.45916 14.0449 4.47067C13.786 4.47642 13.5271 4.45341 13.2681 4.48218C13.107 4.49944 12.9287 4.55122 12.7963 4.64328C12.1059 5.16112 11.4327 5.69622 10.748 6.22556C10.4085 6.48448 9.99427 6.49023 9.69507 6.24858C9.29806 5.92637 9.2693 5.37401 9.64329 4.99426C10.3452 4.28655 11.053 3.57884 11.7607 2.87113C11.8124 2.81935 11.8585 2.76756 11.916 2.72153C12.0426 2.6007 12.1347 2.46837 12.0656 2.28425C11.9908 2.09438 11.8297 2.0541 11.6456 2.0541C10.0518 2.0541 8.45226 2.0541 6.85848 2.0541C6.78368 2.0541 6.70313 2.0541 6.62833 2.0541C6.61682 2.04835 6.61682 2.03108 6.61682 2.01958Z" fill="#27292B"/>
<path d="M13.4868 5.79395C13.7342 6.63975 13.9874 7.48555 14.2348 8.33135C14.2923 8.52697 14.3384 8.7226 14.4074 8.90672C14.7757 9.89636 14.8677 10.9205 14.8505 11.9735C14.8159 14.39 14.8389 16.8066 14.8389 19.2232C14.8389 19.3037 14.8389 19.3785 14.8389 19.5224C14.7009 19.3843 14.5915 19.2807 14.488 19.1714C14.2636 18.9412 13.9529 18.7456 13.8378 18.4694C13.7227 18.199 13.809 17.848 13.809 17.5316C13.809 15.4257 13.809 13.3198 13.809 11.2082C13.809 11.1392 13.8148 11.0644 13.8033 10.9953C13.7687 10.8112 13.6537 10.6961 13.458 10.7019C13.2682 10.7019 13.1531 10.817 13.1243 11.0068C13.1128 11.0759 13.1186 11.1507 13.1186 11.2197C13.1186 13.5788 13.1186 15.9378 13.1186 18.2968C13.1186 18.4349 13.0841 18.5385 12.9805 18.6363C12.6928 18.9182 12.4166 19.2059 12.1002 19.5281C12.0887 19.4361 12.0771 19.3843 12.0771 19.3325C12.0771 16.4153 12.0771 13.4924 12.0771 10.5753C12.0771 10.4602 12.0887 10.3452 12.1232 10.2358C12.549 8.79164 12.9747 7.3417 13.4063 5.89751C13.4178 5.86299 13.4293 5.83422 13.4408 5.7997C13.458 5.79395 13.4753 5.79395 13.4868 5.79395Z" fill="#27292B"/>
<path d="M10.886 2.76751C10.4372 3.2163 10.0172 3.64207 9.59144 4.05634C9.54541 4.10237 9.45335 4.13114 9.3843 4.13114C6.63402 4.1369 3.87798 4.13114 1.12769 4.1369C0.966583 4.1369 0.868769 4.0621 0.805478 3.92976C0.650127 3.60755 0.650127 3.27959 0.805478 2.95738C0.868769 2.82504 0.966583 2.75024 1.12769 2.75024C4.33827 2.756 7.55462 2.75024 10.7652 2.75024C10.7882 2.75024 10.817 2.756 10.886 2.76751Z" fill="#27292B"/>
<path d="M17.2784 0C17.9631 0 18.6363 0 19.321 0C19.321 1.25432 19.321 2.50288 19.321 3.7687C18.6478 3.7687 17.9689 3.7687 17.2784 3.7687C17.2784 2.52589 17.2784 1.27158 17.2784 0Z" fill="#27292B"/>
<path d="M12.6295 19.9999C12.9172 19.7122 13.1934 19.4361 13.4523 19.1714C13.7227 19.4418 14.0047 19.7237 14.2866 19.9999C13.7457 19.9999 13.1876 19.9999 12.6295 19.9999Z" fill="#27292B"/>
<path d="M3.4292 13.4639C3.68236 13.4639 3.91251 13.4639 4.16568 13.4639C4.2002 13.9184 4.23472 14.373 4.26925 14.8218C4.32678 15.587 4.37857 16.358 4.4361 17.1232C4.45912 17.4455 4.33254 17.5951 4.01033 17.5951C3.86073 17.5951 3.71113 17.6008 3.55578 17.5951C3.28536 17.5893 3.14727 17.4397 3.16453 17.1693C3.22782 16.3005 3.29111 15.4316 3.3544 14.5686C3.37742 14.2061 3.40043 13.8379 3.4292 13.4639Z" fill="#27292B"/>
<path d="M2.98047 12.0828C3.53858 12.0828 4.06217 12.0828 4.61453 12.0828C4.51096 12.2957 4.41315 12.497 4.30958 12.6869C4.28657 12.7272 4.22328 12.756 4.17149 12.756C4.05642 12.7675 3.94134 12.7617 3.82627 12.756C3.65366 12.7502 3.41775 12.8077 3.33145 12.7157C3.17034 12.5603 3.09554 12.3129 2.98047 12.0828Z" fill="#27292B"/>
<path d="M7.9287 14.1368C7.7043 14.1368 7.49717 14.1368 7.26702 14.1368C7.22099 13.8491 6.95632 13.7858 6.73767 13.6765C6.63411 13.6247 6.58232 13.5787 6.59958 13.4521C6.71466 12.7617 6.86426 12.0827 7.20948 11.4671C7.37634 11.1737 7.57772 10.909 7.9287 10.7651C7.9287 11.8986 7.9287 13.0091 7.9287 14.1368Z" fill="#27292B"/>
<path d="M7.22093 14.8447C7.47984 14.8447 7.71575 14.8447 7.96891 14.8447C8.01494 15.2647 8.06097 15.6848 8.10125 16.1048C8.13577 16.4615 8.17605 16.8183 8.19906 17.175C8.22208 17.4684 8.08974 17.595 7.7963 17.6008C7.65246 17.6008 7.50861 17.6065 7.36477 17.6008C7.1001 17.595 6.96201 17.4569 6.98502 17.1923C7.04256 16.5133 7.11736 15.8344 7.18065 15.1612C7.19216 15.0576 7.20942 14.9598 7.22093 14.8447Z" fill="#27292B"/>
</svg>
