<svg width="35" height="20" viewBox="0 0 35 20" fill="none" xmlns="http://www.w3.org/2000/svg">
<rect x="-0.25" y="0.25" width="33.5741" height="19.5" rx="9.75" transform="matrix(-1 0 0 1 33.5742 0)" fill="white" stroke="#C3C8CF" stroke-width="0.5"/>
<rect width="31.1111" height="17.037" rx="8.51852" transform="matrix(1 -8.74228e-08 -8.74228e-08 -1 1.48163 18.5186)" fill="#EEAC45"/>
<path d="M16.7471 9.61088C16.3862 9.97194 16.0623 10.3006 15.7338 10.6292C14.7713 11.5874 13.8089 12.5456 12.8511 13.5085C12.4948 13.8603 12.5133 14.3787 12.8788 14.6611C13.1472 14.8694 13.5266 14.8648 13.795 14.6518C13.8459 14.6102 13.8875 14.5685 13.9338 14.5222C15.359 13.0965 16.7887 11.6661 18.2139 10.2404C18.6211 9.83307 18.6211 9.43035 18.2093 9.01837C16.7795 7.58802 15.3451 6.15767 13.9199 4.72269C13.6886 4.49125 13.4248 4.38015 13.1056 4.48199C12.6151 4.63474 12.4346 5.23188 12.7493 5.63923C12.8002 5.70403 12.8557 5.75958 12.9159 5.81513C14.1374 7.03717 15.3636 8.25922 16.5851 9.48127C16.6314 9.52293 16.6823 9.55996 16.7471 9.61088Z" fill="white"/>
<path d="M21.1699 10.0155C20.832 10.331 20.5034 10.6379 20.1794 10.9447C19.2258 11.835 18.2723 12.721 17.3188 13.6113C17.1059 13.8058 17.0318 14.0391 17.1059 14.3071C17.1799 14.5664 17.3697 14.735 17.6521 14.7955C17.9205 14.8516 18.152 14.7825 18.351 14.5967C18.8926 14.0867 19.4388 13.581 19.985 13.0754C20.8783 12.2413 21.7671 11.4115 22.6604 10.5773C23.0631 10.2013 23.0631 9.82102 22.6651 9.44934C21.2301 8.10957 19.7859 6.77412 18.3603 5.42571C17.9159 5.00649 17.2308 5.16639 17.0735 5.65908C16.9809 5.94433 17.0688 6.18635 17.2956 6.39812C17.8742 6.93403 18.4528 7.47426 19.0268 8.01017C19.7072 8.64548 20.3877 9.27647 21.0635 9.91178C21.1005 9.94203 21.1283 9.97229 21.1699 10.0155Z" fill="white"/>
</svg>
