<svg width="20" height="20" viewBox="0 0 20 20" fill="none" xmlns="http://www.w3.org/2000/svg">
<path d="M1.10878 13.1031H7.84195C7.97221 13.1037 8.09154 13.0303 8.14985 12.9138C8.4212 12.3704 9.18425 10.845 9.18425 10.845C9.23827 10.7381 9.23296 10.6108 9.17015 10.5088C9.10738 10.4068 8.99614 10.3447 8.87635 10.3447H2.14314C2.01256 10.3448 1.89324 10.4186 1.83489 10.5354L0.800527 12.6042C0.747133 12.7111 0.752836 12.8379 0.815643 12.9396C0.87841 13.0412 0.989299 13.1031 1.10878 13.1031Z" fill="#27292B"/>
<path d="M2.40658 19.9995H9.64728V11.4609L8.67187 13.4138C8.55528 13.6474 8.31608 13.7945 8.05501 13.7931H2.06177V19.6546C2.06177 19.8451 2.21613 19.9995 2.40658 19.9995Z" fill="#27292B"/>
<path d="M17.9224 19.6546V13.7931H11.9292C11.6677 13.7942 11.4283 13.6462 11.3123 13.4118L10.3369 11.4609V19.9995H17.5776C17.7681 19.9994 17.9224 19.8451 17.9224 19.6546Z" fill="#27292B"/>
<path d="M17.8411 10.3447H11.1079C10.9885 10.3448 10.8775 10.4067 10.8148 10.5083C10.752 10.6099 10.7463 10.7368 10.7997 10.8437L11.8341 12.9125C11.8924 13.0292 12.0117 13.1031 12.1423 13.1031H18.8755C18.9949 13.1031 19.1059 13.0412 19.1686 12.9396C19.2314 12.8379 19.2371 12.7111 19.1837 12.6042L18.1493 10.5354C18.0909 10.4186 17.9716 10.3448 17.8411 10.3447Z" fill="#27292B"/>
<path d="M7.20651 7.8708C7.15687 8.10167 7.2442 8.34056 7.43102 8.485C7.61784 8.62944 7.87102 8.65381 8.08194 8.54765L9.71351 7.65531C9.88697 7.55981 10.0973 7.55981 10.2707 7.65531L11.9023 8.54694C12.1132 8.65311 12.3664 8.62873 12.5532 8.48429C12.74 8.33985 12.8273 8.10097 12.7777 7.87009L12.4705 6.00819C12.4353 5.80071 12.5011 5.5889 12.6477 5.43789L13.9427 4.12524C14.111 3.95572 14.1725 3.70739 14.1027 3.47893C14.033 3.25048 13.8432 3.07885 13.609 3.03225L11.8036 2.75919C11.6038 2.7272 11.433 2.59796 11.3478 2.41438L10.5337 0.698327C10.4389 0.483972 10.2265 0.345703 9.99208 0.345703C9.75764 0.345703 9.54528 0.483933 9.45041 0.698327L8.63634 2.41438C8.55119 2.59796 8.38035 2.72716 8.18052 2.75919L6.37518 3.03194C6.1409 3.07854 5.9512 3.25016 5.88144 3.47862C5.81168 3.70708 5.87316 3.95541 6.04142 4.12493L7.33716 5.43789C7.48375 5.5889 7.54957 5.80071 7.51437 6.00819L7.20651 7.8708Z" fill="#27292B"/>
<path d="M2.11314 7.02981C2.18641 7.10519 2.2193 7.21096 2.20176 7.31462L2.04799 8.24555C2.02334 8.36097 2.06709 8.4803 2.16052 8.55244C2.25391 8.62458 2.38042 8.63677 2.48588 8.58381L3.30303 8.13834C3.38978 8.09073 3.49485 8.09073 3.58164 8.13834L4.39742 8.58416C4.50288 8.63716 4.62939 8.62497 4.72278 8.55283C4.81617 8.48069 4.85992 8.36136 4.83531 8.24594L4.68154 7.31501C4.66396 7.21139 4.69689 7.10558 4.77016 7.0302L5.41768 6.3751C5.50193 6.29038 5.53275 6.16617 5.49787 6.05189C5.46299 5.9376 5.36804 5.85179 5.25082 5.82859L4.34813 5.69067C4.24822 5.6747 4.1628 5.61009 4.12022 5.51827L3.71334 4.66108C3.666 4.55367 3.55969 4.48438 3.44235 4.48438C3.32498 4.48438 3.2187 4.55367 3.17136 4.66108L2.76312 5.51791C2.72054 5.6097 2.63512 5.67434 2.53521 5.69032L1.63252 5.82824C1.5153 5.85144 1.42035 5.93725 1.38547 6.05154C1.35059 6.16582 1.38137 6.29003 1.46566 6.37475L2.11314 7.02981Z" fill="#27292B"/>
<path d="M16.2723 4.6601L15.8654 5.51795C15.8228 5.60974 15.7374 5.67438 15.6375 5.69036L14.7348 5.82828C14.6176 5.85148 14.5226 5.93729 14.4878 6.05158C14.4529 6.16586 14.4837 6.29007 14.568 6.37479L15.2155 7.02988C15.2887 7.10527 15.3216 7.21104 15.3041 7.3147L15.1503 8.24563C15.1257 8.36105 15.1694 8.48038 15.2629 8.55252C15.3562 8.62466 15.4828 8.63685 15.5882 8.58388L16.4054 8.13842C16.4921 8.0908 16.5972 8.0908 16.684 8.13842L17.4998 8.58423C17.6052 8.63724 17.7317 8.62505 17.8251 8.55291C17.9185 8.48077 17.9623 8.36144 17.9376 8.24602L17.7839 7.31509C17.7663 7.21147 17.7992 7.10566 17.8725 7.03028L18.52 6.37518C18.6043 6.29046 18.6351 6.16625 18.6002 6.05197C18.5653 5.93768 18.4704 5.85187 18.3532 5.82867L17.4505 5.69075C17.3506 5.67477 17.2651 5.61017 17.2226 5.51834L16.8157 4.6612C16.7689 4.55288 16.6623 4.48262 16.5443 4.48242C16.4263 4.48215 16.3195 4.55199 16.2723 4.6601Z" fill="#27292B"/>
<path d="M7.57849 1.38035C7.69833 1.38102 7.80988 1.31942 7.87315 1.21767C7.93643 1.11592 7.94237 0.988631 7.88882 0.881453L7.544 0.191868C7.45889 0.0214538 7.25173 -0.0477195 7.08127 0.0373899C6.91086 0.122499 6.84168 0.329668 6.92679 0.500121L7.27161 1.18971C7.32976 1.30606 7.44843 1.37977 7.57849 1.38035Z" fill="#27292B"/>
<path d="M6.44307 1.96819C6.57767 1.83356 6.57767 1.6153 6.44307 1.48066L6.09826 1.13585C5.96296 1.0052 5.7479 1.00703 5.61491 1.14007C5.48191 1.27306 5.48004 1.48812 5.61069 1.62342L5.9555 1.96823C6.09018 2.10279 6.30844 2.10279 6.44307 1.96819Z" fill="#27292B"/>
<path d="M12.4056 1.37998C12.537 1.38069 12.6573 1.30679 12.716 1.1893L13.0608 0.499712C13.1459 0.328322 13.076 0.120411 12.9046 0.0352624C12.7332 -0.0498471 12.5253 0.0200684 12.4401 0.191459L12.0953 0.881044C12.0418 0.988222 12.0477 1.11552 12.111 1.21726C12.1743 1.31905 12.2858 1.38065 12.4056 1.37998Z" fill="#27292B"/>
<path d="M14.0286 1.9689L14.3734 1.62409C14.4631 1.53753 14.499 1.4093 14.4675 1.28877C14.4359 1.16823 14.3418 1.07406 14.2212 1.0425C14.1007 1.01094 13.9725 1.04688 13.8859 1.13652L13.5411 1.48133C13.4514 1.56788 13.4155 1.69611 13.447 1.81665C13.4786 1.93718 13.5727 2.03136 13.6933 2.06292C13.8139 2.09447 13.9421 2.05854 14.0286 1.9689Z" fill="#27292B"/>
</svg>
