<svg width="20" height="20" viewBox="0 0 20 20" fill="none" xmlns="http://www.w3.org/2000/svg">
<g clip-path="url(#clip0_131_15451)">
<path d="M14.9528 5.06677e-05C15.283 0.0472205 15.566 0.0943903 15.8962 0.18873C17.9245 0.754768 19.2924 2.07552 19.8113 4.10382C20.283 6.08496 19.7641 7.78307 18.3962 9.24533C17.4057 10.2359 16.4151 11.2265 15.4245 12.217C15.0943 12.5472 14.7641 12.6887 14.2924 12.5472C13.9151 12.4057 13.6321 12.1699 13.5377 11.7453C13.4434 11.4151 13.5377 11.1321 13.7264 10.8963C13.7736 10.8019 13.8679 10.7548 13.9151 10.6604C14.9057 9.66986 15.8491 8.72647 16.8396 7.7359C17.9245 6.65099 18.1604 5.04722 17.4057 3.77364C16.2736 1.88684 13.8208 1.60382 12.2641 3.11326C11.2736 4.10382 10.283 5.09439 9.29245 6.08496C8.86792 6.50948 8.39622 6.55665 7.92453 6.32081C7.35849 5.99062 7.21698 5.2359 7.59434 4.71703C7.64151 4.66986 7.64151 4.62269 7.68868 4.62269C8.77358 3.53779 9.81132 2.45288 10.8962 1.41514C11.7453 0.566088 12.8302 0.14156 14.0094 5.06677e-05C14.0566 5.06677e-05 14.1038 5.06677e-05 14.1509 -0.0471191C14.434 5.06677e-05 14.6698 5.06677e-05 14.9528 5.06677e-05Z" fill="#626972"/>
<path d="M-1.03675e-05 14.1509C0.0471594 13.8679 0.0943293 13.5848 0.141499 13.349C0.377348 12.3584 0.849046 11.5094 1.55659 10.7547C2.54716 9.76409 3.5849 8.72636 4.57546 7.73579C5.23584 7.12258 6.17923 7.35843 6.41508 8.20749C6.50942 8.53768 6.41508 8.8207 6.2264 9.10372C6.17923 9.19806 6.0849 9.24523 6.03773 9.33957C5.04716 10.3301 4.10376 11.2735 3.1132 12.2641C2.12263 13.2547 1.83961 14.7169 2.40565 15.8962C3.34905 18.0188 6.03772 18.4905 7.68867 16.8396C8.67923 15.849 9.6698 14.8584 10.6604 13.8679C11.0377 13.4905 11.5566 13.3962 11.9811 13.632C12.5943 13.9622 12.783 14.7641 12.3113 15.2358C11.1321 16.415 9.99999 17.6886 8.7264 18.7735C6.32074 20.8018 2.6415 20.2358 0.849046 17.5943C0.377348 16.8867 0.0943293 16.0848 -0.0471802 15.1886C0.0471594 15.0943 -1.03675e-05 15.0471 -1.03675e-05 14.9999C-1.03675e-05 14.7169 -1.03675e-05 14.4339 -1.03675e-05 14.1509Z" fill="#626972"/>
<path d="M14.1037 6.93401C14.1037 7.2642 13.9622 7.50005 13.7736 7.7359C11.7453 9.7642 9.76412 11.7925 7.73582 13.7736C7.35846 14.151 6.88677 14.1982 6.46224 14.0095C6.03771 13.8208 5.80186 13.3963 5.84903 12.9717C5.84903 12.6887 5.99054 12.4529 6.22639 12.217C8.25469 10.1887 10.2358 8.2076 12.2641 6.1793C12.5943 5.84911 13.0188 5.7076 13.4905 5.89628C13.8679 6.08496 14.1037 6.50948 14.1037 6.93401Z" fill="#626972"/>
</g>
<defs>
<clipPath id="clip0_131_15451">
<rect width="20" height="20" fill="white"/>
</clipPath>
</defs>
</svg>
