<svg width="20" height="20" viewBox="0 0 20 20" fill="none" xmlns="http://www.w3.org/2000/svg">
<path d="M10 4.45312C6.94145 4.45312 4.45312 6.94145 4.45312 10C4.45312 13.0586 6.94145 15.5469 10 15.5469C13.0586 15.5469 15.5469 13.0586 15.5469 10C15.5469 6.94145 13.0586 4.45312 10 4.45312ZM10 14.7656C7.37223 14.7656 5.23438 12.6278 5.23438 10C5.23438 7.37223 7.37223 5.23438 10 5.23438C12.6278 5.23438 14.7656 7.37223 14.7656 10C14.7656 12.6278 12.6278 14.7656 10 14.7656Z" fill="#626972"/>
<path d="M19.7926 0.045625C19.665 -0.0221093 19.5104 -0.0139453 19.3907 0.0669141C17.473 1.36266 16.3281 3.51797 16.3281 5.83238V10.9008C16.3281 11.4445 16.5398 11.9555 16.9242 12.34L17.6562 13.072V18.8281C17.6562 19.4743 18.182 20 18.8281 20C19.4743 20 20 19.4743 20 18.8281V0.390625C20 0.246133 19.9202 0.113438 19.7926 0.045625ZM19.2188 18.8281C19.2188 19.0435 19.0435 19.2188 18.8281 19.2188C18.6127 19.2188 18.4375 19.0435 18.4375 18.8281V12.9102C18.4375 12.8066 18.3963 12.7072 18.3231 12.6339L17.4766 11.7875C17.2398 11.5507 17.1094 11.2358 17.1094 10.9008V5.83238C17.1094 4.03629 17.886 2.34824 19.2188 1.18348V18.8281Z" fill="#626972"/>
<path d="M9.10383 6.9014C9.01914 6.703 8.78953 6.61086 8.59117 6.6955C7.26566 7.26136 6.40918 8.5582 6.40918 9.99933C6.40918 10.215 6.58406 10.39 6.7998 10.39C7.01555 10.39 7.19043 10.215 7.19043 9.99933C7.19043 8.87164 7.86066 7.85683 8.89793 7.41406C9.09633 7.32937 9.18852 7.09984 9.10383 6.9014Z" fill="#626972"/>
<path d="M10 6.40918L9.9803 6.40922C9.76456 6.41066 9.59085 6.58672 9.59229 6.80246C9.59374 7.01731 9.76835 7.19047 9.98288 7.19047C9.98374 7.19047 9.98468 7.19047 9.98554 7.19047L10 7.19043C10.2158 7.19043 10.3907 7.01555 10.3907 6.7998C10.3907 6.58406 10.2158 6.40918 10 6.40918Z" fill="#626972"/>
<path d="M15.415 4.86191C14.7248 4.13473 13.9113 3.56254 12.997 3.16129C12.0503 2.74582 11.042 2.53516 10 2.53516C8.80938 2.53516 7.67126 2.80727 6.61727 3.34398C6.42505 3.44188 6.34852 3.67707 6.44641 3.86934C6.54434 4.06152 6.77954 4.13801 6.9718 4.04016C7.91493 3.55992 8.93376 3.31641 10 3.31641C11.8514 3.31641 13.5732 4.05625 14.8483 5.39973C14.9251 5.48066 15.0283 5.52145 15.1317 5.52145C15.2282 5.52145 15.325 5.48586 15.4005 5.41414C15.557 5.26562 15.5634 5.0184 15.415 4.86191Z" fill="#626972"/>
<path d="M15.7942 14.0773C15.6249 13.9436 15.3793 13.9723 15.2455 14.1415C13.9684 15.7568 12.0565 16.6831 9.99999 16.6831C8.71289 16.6831 7.46339 16.3165 6.3866 15.623C6.20527 15.5062 5.96347 15.5586 5.84667 15.7399C5.72988 15.9213 5.78222 16.163 5.96359 16.2798C7.16679 17.0547 8.56257 17.4643 9.99999 17.4643C12.2969 17.4643 14.4321 16.4298 15.8583 14.626C15.9921 14.4568 15.9634 14.2112 15.7942 14.0773Z" fill="#626972"/>
<path d="M5.31086 14.7627L5.30512 14.7561C5.30305 14.7535 5.30098 14.7509 5.29883 14.7484C5.15988 14.5834 4.91348 14.5623 4.74844 14.7012C4.5834 14.8402 4.56223 15.0865 4.70121 15.2516L4.705 15.2561L4.70519 15.2559C4.70934 15.2612 4.71363 15.2664 4.71809 15.2716C4.79535 15.3616 4.90465 15.4077 5.01465 15.4077C5.10473 15.4077 5.19523 15.3768 5.26891 15.3135C5.43258 15.173 5.45137 14.9264 5.31086 14.7627Z" fill="#626972"/>
<path d="M4.84375 0C4.62801 0 4.45312 0.174883 4.45312 0.390625V4.60938H3.74969C3.74973 4.60719 3.75 4.60508 3.75 4.60285V0.390625C3.75 0.174883 3.57512 0 3.35938 0C3.14363 0 2.96875 0.174883 2.96875 0.390625V4.60285C2.96875 4.60504 2.96906 4.60719 2.96906 4.60938H2.26531C2.26535 4.60719 2.26562 4.60508 2.26562 4.60285V0.390625C2.26562 0.174883 2.09074 0 1.875 0C1.65926 0 1.48438 0.174883 1.48438 0.390625V4.60285C1.48438 4.60504 1.48469 4.60719 1.48469 4.60938H0.78125V0.390625C0.78125 0.174883 0.606367 0 0.390625 0C0.174883 0 0 0.174883 0 0.390625V5.15625C0 6.11445 0.581406 6.97926 1.44531 7.35309V18.8281C1.44531 19.4743 1.97102 20 2.61719 20C3.26336 20 3.78906 19.4743 3.78906 18.8281V7.35309C4.65297 6.97926 5.23438 6.11445 5.23438 5.15625V0.390625C5.23438 0.174883 5.05949 0 4.84375 0ZM3.29 6.70391C3.12289 6.75219 3.00781 6.9052 3.00781 7.07918V18.8281C3.00781 19.0435 2.83258 19.2188 2.61719 19.2188C2.4018 19.2188 2.22656 19.0435 2.22656 18.8281V7.07918C2.22656 6.9052 2.11152 6.75219 1.94438 6.70391C1.33566 6.52801 0.89043 6.00551 0.798906 5.39062H4.43543C4.34395 6.00551 3.89871 6.52801 3.29 6.70391Z" fill="#626972"/>
</svg>
