<svg width="18" height="18" viewBox="0 0 18 18" fill="none" xmlns="http://www.w3.org/2000/svg">
<path d="M17.4688 9.56621H16.9149C16.6736 5.93252 13.9742 2.95221 10.4641 2.30727C10.5584 2.10481 10.6148 1.81941 10.6148 1.58168C10.6148 0.709524 9.90532 0 9.03316 0C8.16101 0 7.45148 0.709524 7.45148 1.58168C7.45148 1.81941 7.50794 2.10481 7.60227 2.30727C4.09216 2.95221 1.32244 5.93249 1.0812 9.56621H0.527239C0.235828 9.56621 0 9.78797 0 10.0794C0 10.3708 0.235793 10.6066 0.527239 10.6066H17.4688C17.7602 10.6066 17.996 10.3708 17.996 10.0794C17.996 9.78797 17.7602 9.56621 17.4688 9.56621ZM9.03316 2.17097C8.74228 2.17097 8.50593 1.8726 8.50593 1.58168C8.50593 1.29076 8.74228 1.05444 9.03316 1.05444C9.32405 1.05444 9.5604 1.29076 9.5604 1.58168C9.5604 1.8726 9.32408 2.17097 9.03316 2.17097Z" fill="#27292B"/>
<path d="M1.58168 12.7153C1.2864 12.7153 1.05444 12.9473 1.05444 13.2426V17.4686C1.05444 17.7638 1.2864 17.9958 1.58168 17.9958H3.16336V12.7153H1.58168Z" fill="#27292B"/>
<path d="M16.3524 12.2641C15.9405 11.8522 15.2733 11.8522 14.8614 12.264L11.8422 15.2692C11.464 15.6474 10.9663 15.8577 10.435 15.8788H8.99094C8.70178 15.8788 8.4637 15.6636 8.4637 15.3515C8.4637 15.0394 8.70175 14.8243 8.99094 14.8243C9.65701 14.8243 9.53362 14.8243 10.6148 14.8243C11.1947 14.8243 11.6692 14.3498 11.6692 13.7699C11.6692 13.1899 11.1947 12.7295 10.6148 12.7295H9.56034C9.37531 12.7295 9.23577 12.7361 9.08583 12.603C8.89887 12.4393 8.69574 12.2352 8.50589 12.1144C7.45201 11.3705 5.92802 11.1899 4.65709 11.854C4.38705 11.995 4.21777 12.2748 4.21777 12.5795V17.996C10.9241 18.005 10.3105 17.9959 10.3506 17.996C11.4772 17.996 12.5368 17.5573 13.3333 16.7603L16.3525 13.7411C16.7644 13.3292 16.7644 12.676 16.3524 12.2641Z" fill="#27292B"/>
</svg>
