<svg width="5" height="9" viewBox="0 0 5 9" fill="none" xmlns="http://www.w3.org/2000/svg">
<path d="M0.363918 9C0.326111 8.98131 0.288304 8.96729 0.255222 8.9486C-0.00942803 8.82243 -0.0803165 8.48598 0.103993 8.26168C0.132349 8.22897 0.160704 8.19626 0.193786 8.16355C1.40362 6.96729 2.60872 5.77103 3.81855 4.57009C3.84218 4.54673 3.87053 4.52804 3.91307 4.47196C3.87999 4.45327 3.8469 4.44393 3.81855 4.42056C2.60399 3.21963 1.38944 2.01402 0.174882 0.813085C-0.0094284 0.630842 -0.0472356 0.415889 0.06146 0.224299C0.203237 -0.0186911 0.524598 -0.0747662 0.741989 0.0981311C0.775071 0.126169 0.803426 0.154206 0.831781 0.182243C2.15976 1.49533 3.48774 2.81308 4.81099 4.12617C5.05201 4.36449 5.05201 4.62617 4.81099 4.86449C3.50664 6.16355 2.20229 7.45794 0.893218 8.75701C0.789249 8.85981 0.685279 8.95794 0.543502 9C0.482065 9 0.425355 9 0.363918 9Z" fill="#626972"/>
</svg>
