<svg width="22" height="18" viewBox="0 0 22 18" fill="none" xmlns="http://www.w3.org/2000/svg">
<path d="M0 5.76962C0.118673 5.59474 0.212362 5.38862 0.36851 5.24496C0.755758 4.88895 1.81132 4.88895 2.18608 5.25746C2.34223 5.4136 2.46714 5.63846 2.5296 5.85082C2.94808 7.3436 3.34782 8.84262 3.73507 10.3416C3.78504 10.5353 3.86623 10.579 4.05361 10.579C4.94053 10.5727 5.8337 10.5727 6.72062 10.5727C7.62004 10.5727 8.12596 10.9662 8.35706 11.8282C8.38204 11.9156 8.40703 12.0093 8.43201 12.0968C8.62563 12.8713 8.2946 13.3834 7.47638 13.5083C7.58881 13.9518 7.69499 14.3953 7.80117 14.8325C8.00729 15.6569 8.2134 16.4814 8.41952 17.3059C8.47573 17.537 8.43826 17.7431 8.23839 17.8867C8.06975 18.0054 7.87612 18.0366 7.71373 17.9117C7.59506 17.818 7.48887 17.6681 7.4514 17.5245C7.12661 16.2753 6.81431 15.0199 6.51451 13.7582C6.46454 13.5396 6.38334 13.4771 6.15849 13.4834C5.12791 13.4958 4.09733 13.4958 3.06675 13.4834C2.9106 13.4834 2.8419 13.5208 2.80442 13.6895C2.53585 14.9449 2.25478 16.2003 1.96122 17.4558C1.92375 17.6244 1.81132 17.7993 1.6864 17.9117C1.5365 18.0429 1.33038 18.0117 1.16174 17.8867C0.986858 17.7618 0.918152 17.5869 0.961874 17.3746C1.14925 16.5314 1.33663 15.6882 1.52401 14.8387C1.63019 14.3703 1.73012 13.8956 1.8363 13.4209C1.16174 13.1523 0.861939 12.6464 0.774496 11.9469C0.549642 10.0981 0.287313 8.24926 0.0437215 6.40671C0.0374756 6.34425 0.0124919 6.28804 0 6.22558C0 6.08192 0 5.92577 0 5.76962Z" fill="#27292B"/>
<path d="M21.9844 6.23814C21.9094 6.7628 21.822 7.28746 21.7533 7.81212C21.5597 9.26742 21.3723 10.7227 21.1787 12.1718C21.0975 12.7589 20.7914 13.1337 20.1481 13.4335C20.2293 13.8145 20.3105 14.1955 20.3979 14.5827C20.5915 15.4571 20.7914 16.3316 20.985 17.206C20.9975 17.2685 21.01 17.3309 21.0225 17.3871C21.0725 17.6682 20.9163 17.9118 20.654 17.9805C20.3979 18.0492 20.1294 17.8993 20.0606 17.6182C19.9107 17.0061 19.7796 16.3878 19.6422 15.7694C19.486 15.0699 19.3299 14.3703 19.18 13.6708C19.155 13.5396 19.105 13.4959 18.9676 13.4959C17.8933 13.5022 16.8128 13.5022 15.7385 13.4959C15.5886 13.4959 15.5448 13.5521 15.5136 13.6895C15.2138 14.9325 14.9015 16.1692 14.5892 17.4121C14.5767 17.4746 14.558 17.5308 14.5455 17.5933C14.458 17.8868 14.2082 18.0492 13.9459 17.9867C13.6648 17.918 13.5024 17.6557 13.5711 17.3559C13.6773 16.9 13.796 16.4502 13.9084 15.9943C14.102 15.2323 14.2894 14.4703 14.483 13.702C14.4955 13.6458 14.5018 13.5834 14.508 13.5459C14.3206 13.4772 14.1333 13.4397 13.9709 13.346C13.5961 13.1337 13.4275 12.6902 13.5212 12.253C13.5586 12.0843 13.6023 11.9219 13.6461 11.7533C13.8397 11.01 14.3893 10.5791 15.1576 10.5728C16.0882 10.5666 17.0126 10.5666 17.9433 10.5791C18.1369 10.5791 18.2056 10.5166 18.2556 10.3355C18.6491 8.8427 19.0488 7.35617 19.4485 5.86339C19.6109 5.26378 19.942 5.01394 20.5603 5.0077C20.6228 5.0077 20.6852 5.01394 20.7477 5.0077C21.366 4.95773 21.7845 5.22006 21.9781 5.81342C21.9844 5.95708 21.9844 6.09449 21.9844 6.23814Z" fill="#27292B"/>
<path d="M11.5169 1.00403C11.4544 1.5162 11.4544 1.5162 11.9104 1.5974C13.8091 1.93468 15.4081 3.45244 15.8453 5.32622C15.8578 5.36994 15.8578 5.41991 15.864 5.48237C12.6099 5.48237 9.36826 5.48237 6.12662 5.48237C6.1516 3.76474 8.1503 1.94092 10.4613 1.52245C10.4613 1.36005 10.4613 1.19141 10.4613 0.997788C10.3051 0.997788 10.149 1.00403 9.99285 0.997788C9.69305 0.985296 9.48068 0.77918 9.48693 0.498113C9.49318 0.223292 9.70554 0.0109304 10.0053 0.00468445C10.6549 -0.00156148 11.2983 -0.00156148 11.9478 0.00468445C12.2601 0.00468445 12.485 0.223292 12.4787 0.504359C12.4787 0.77918 12.2664 0.985296 11.9603 0.991542C11.8229 1.00403 11.6793 1.00403 11.5169 1.00403ZM10.7299 3.08393C10.7299 2.76539 10.4426 2.52804 10.124 2.60299C9.19337 2.81535 8.43137 3.29629 7.84425 4.03956C7.65063 4.28315 7.68185 4.57046 7.89422 4.75159C8.11282 4.93273 8.40638 4.92023 8.60001 4.68289C9.06845 4.11451 9.64932 3.746 10.3614 3.56487C10.605 3.50241 10.7299 3.31503 10.7299 3.08393Z" fill="#27292B"/>
<path d="M10.7361 8.49915C8.55003 8.49915 6.36396 8.49915 4.17788 8.49915C3.64073 8.49915 3.49083 8.34924 3.49083 7.82459C3.49083 7.56226 3.48458 7.29368 3.49083 7.03135C3.49707 6.71281 3.68445 6.53168 4.00299 6.51294C4.06545 6.51294 4.12791 6.51294 4.19037 6.51294C8.55628 6.51294 12.9159 6.51294 17.2818 6.51294C17.3506 6.51294 17.4255 6.51294 17.4942 6.51294C17.7815 6.53168 17.9627 6.70656 17.9689 6.98763C17.9814 7.33116 17.9814 7.67468 17.9689 8.01821C17.9627 8.30552 17.7815 8.48041 17.4942 8.49915C17.3256 8.51164 17.1507 8.50539 16.982 8.50539C14.9084 8.49915 12.8223 8.49915 10.7361 8.49915Z" fill="#27292B"/>
<path d="M9.99909 9.51733C10.6736 9.51733 11.317 9.51733 11.9915 9.51733C11.9915 9.61727 11.9915 9.71096 11.9915 9.7984C11.9915 11.7097 11.9978 13.6209 11.9853 15.5322C11.9853 15.8694 12.0977 16.0943 12.385 16.2629C12.6723 16.4316 12.9409 16.6377 13.2282 16.8126C13.5218 16.9937 13.5343 17.2998 13.4656 17.6495C13.4219 17.8869 13.2033 17.9931 12.8722 17.9931C11.623 17.9931 10.3738 17.9931 9.12466 17.9931C8.79362 17.9931 8.57502 17.8806 8.53129 17.6495C8.46259 17.2685 8.47508 16.9875 8.78738 16.8001C9.08718 16.619 9.36825 16.4066 9.66805 16.2192C9.91789 16.0693 10.0116 15.8632 10.0053 15.5759C9.99909 13.6584 10.0053 11.7346 10.0053 9.81714C9.99909 9.7297 9.99909 9.63601 9.99909 9.51733Z" fill="#27292B"/>
</svg>
