<svg width="14" height="19" viewBox="0 0 14 19" fill="none" xmlns="http://www.w3.org/2000/svg">
<path d="M12.3407 18.0073C8.68351 18.0073 5.02631 18.0073 1.36911 18.0073C1.35973 18.0026 1.35035 17.9933 1.34097 17.9886C0.417296 17.7494 0 17.2102 0 16.2631C0 12.62 0 8.97685 0 5.33371C0 4.0912 0 2.84869 0 1.61087C0 1.06697 0.215681 0.612169 0.670487 0.307402C0.876791 0.166741 1.13467 0.105787 1.3738 0.00732422C3.73222 0.00732422 6.08596 0.00732422 8.44439 0.00732422C8.44439 1.20295 8.44439 2.39857 8.44439 3.5942C8.44439 4.62103 9.11018 5.28214 10.1417 5.28214C11.267 5.28214 12.3923 5.28214 13.5176 5.28214C13.5785 5.28214 13.6442 5.28214 13.7192 5.28214C13.7192 5.36184 13.7192 5.42749 13.7192 5.48844C13.7192 6.8763 13.7192 8.26416 13.7192 9.65671C13.7192 11.8932 13.7192 14.1344 13.7192 16.371C13.7192 17.0977 13.316 17.6885 12.6642 17.9182C12.5564 17.9511 12.4439 17.9745 12.3407 18.0073ZM6.85491 7.42019C5.8187 7.42019 4.7825 7.42019 3.74629 7.42019C3.49779 7.42019 3.31024 7.51397 3.20709 7.73903C3.04298 8.10006 3.31493 8.47515 3.73691 8.47515C4.96536 8.47515 6.1938 8.47515 7.42693 8.47515C8.27559 8.47515 9.12425 8.47515 9.97291 8.47515C10.212 8.47515 10.3949 8.38138 10.498 8.16101C10.6668 7.79998 10.3996 7.42019 9.98229 7.42019C8.9367 7.42019 7.89581 7.42019 6.85491 7.42019ZM6.83615 10.5851C7.87705 10.5851 8.92264 10.5851 9.96353 10.5851C10.137 10.5851 10.2917 10.5429 10.4043 10.4116C10.5543 10.2428 10.5918 10.0506 10.498 9.83957C10.3996 9.62858 10.2261 9.52543 9.99166 9.52543C9.12425 9.52543 8.25684 9.52543 7.39411 9.52543C6.17505 9.52543 4.96067 9.52543 3.7416 9.52543C3.50247 9.52543 3.31961 9.6192 3.21646 9.83488C3.04767 10.1912 3.31024 10.5804 3.72753 10.5804C4.76374 10.5851 5.79995 10.5851 6.83615 10.5851ZM6.83615 12.695C7.87705 12.695 8.92264 12.695 9.96353 12.695C10.2027 12.695 10.3855 12.6106 10.4934 12.3902C10.6668 12.0339 10.409 11.64 9.99166 11.64C8.97421 11.6354 7.95207 11.64 6.93462 11.64C5.87028 11.64 4.80125 11.64 3.73691 11.64C3.50716 11.64 3.3243 11.7291 3.22115 11.9354C3.03829 12.2965 3.30086 12.695 3.72753 12.695C4.76374 12.695 5.79995 12.695 6.83615 12.695ZM5.79057 14.8049C6.48919 14.8049 7.18312 14.8049 7.88174 14.8049C8.20526 14.8049 8.4397 14.5752 8.4397 14.2751C8.4397 13.975 8.20526 13.75 7.87705 13.75C6.49388 13.75 5.11539 13.7453 3.73222 13.7547C3.61969 13.7547 3.49779 13.7922 3.40401 13.8484C3.20709 13.961 3.12738 14.2001 3.18364 14.4111C3.25397 14.6502 3.44621 14.8049 3.6994 14.8049C4.39333 14.8049 5.09195 14.8049 5.79057 14.8049Z" fill="#626972"/>
<path d="M9.49937 0.36377C10.7841 1.64848 12.0641 2.9285 13.3441 4.20852C13.3301 4.20852 13.2925 4.2179 13.255 4.2179C12.1907 4.2179 11.1264 4.2179 10.0573 4.2179C9.71505 4.2179 9.48999 3.99753 9.48999 3.65994C9.48999 2.59091 9.48999 1.51719 9.48999 0.448167C9.48999 0.415346 9.49468 0.382524 9.49937 0.36377Z" fill="#626972"/>
</svg>
