<svg width="23" height="21" viewBox="0 0 23 21" fill="none" xmlns="http://www.w3.org/2000/svg">
<path d="M8.6035 6.3011C8.43084 6.13746 8.25222 5.97988 8.07955 5.81019C7.80567 5.5314 7.78186 5.20413 8.01406 4.97382C8.24626 4.74352 8.56182 4.76776 8.84166 5.05261C9.00837 5.22231 9.17508 5.39807 9.35965 5.59201C10.5445 4.61625 11.8841 4.01625 13.3964 3.79807C13.3964 3.47079 13.3964 3.15564 13.3964 2.82837C14.1109 2.82837 14.8075 2.82837 15.5339 2.82837C15.5339 3.14352 15.5339 3.46473 15.5339 3.79201C17.0462 4.01019 18.3799 4.60413 19.5766 5.58594C19.6898 5.46473 19.7969 5.34958 19.9041 5.23443C20.3626 4.76776 20.6484 4.68898 20.9163 4.9617C21.1961 5.24049 21.1187 5.53746 20.6484 6.01019C20.5471 6.11322 20.434 6.19201 20.3268 6.28291C23.4943 9.75564 23.0835 14.992 19.8684 17.9556C16.7842 20.7981 12.1044 20.7799 9.03814 17.9253C5.85277 14.9678 5.45386 9.76776 8.6035 6.3011ZM7.85926 11.9011C7.85926 15.5981 10.8065 18.6223 14.4324 18.6344C18.106 18.6466 21.0711 15.6466 21.077 11.9132C21.083 8.21625 18.1179 5.18594 14.486 5.17988C10.8243 5.17988 7.85926 8.18594 7.85926 11.9011Z" fill="#27292B"/>
<path d="M14.4681 0.0888672C15.0397 0.0888672 15.6113 0.0888672 16.1829 0.0888672C16.5758 0.0888672 16.7842 0.300988 16.7902 0.707049C16.7902 1.03432 16.7961 1.35553 16.7902 1.68281C16.7842 2.04644 16.5758 2.26462 16.2186 2.27069C15.0516 2.27675 13.8846 2.27675 12.7177 2.27069C12.3664 2.27069 12.152 2.04644 12.1461 1.68887C12.1401 1.36159 12.1461 1.04038 12.1461 0.71311C12.1461 0.307049 12.3545 0.0949278 12.7474 0.0949278C13.319 0.0888672 13.8906 0.0888672 14.4681 0.0888672Z" fill="#27292B"/>
<path d="M2.88171 10.2708C3.62001 10.2708 4.35234 10.2708 5.09063 10.2708C5.47169 10.2708 5.72175 10.4889 5.7158 10.8223C5.70984 11.1435 5.47169 11.3617 5.09659 11.3617C3.60214 11.3617 2.1077 11.3617 0.613257 11.3617C0.244112 11.3617 0 11.1435 0 10.8223C0 10.495 0.238158 10.2768 0.607304 10.2708C1.36346 10.2708 2.11961 10.2708 2.88171 10.2708Z" fill="#EEAC45"/>
<path d="M4.11416 9.17978C3.54258 9.17978 2.971 9.17978 2.39942 9.17978C2.03027 9.17978 1.79211 8.96159 1.79211 8.63432C1.79211 8.31311 2.03623 8.08887 2.39942 8.08887C3.54258 8.08887 4.68574 8.08887 5.83485 8.08887C6.19804 8.08887 6.44215 8.31917 6.4362 8.64644C6.43025 8.96159 6.19209 9.17978 5.8408 9.17978C5.25732 9.17978 4.68574 9.17978 4.11416 9.17978Z" fill="#EEAC45"/>
<path d="M3.39371 12.4524C3.95933 12.4524 4.52496 12.4524 5.09059 12.4524C5.47164 12.4524 5.7217 12.6706 5.71575 13.0039C5.7098 13.3251 5.47164 13.5433 5.10249 13.5433C3.96529 13.5433 2.82808 13.5433 1.69088 13.5433C1.32173 13.5433 1.07762 13.3251 1.07762 13.0039C1.07166 12.6706 1.32173 12.4524 1.70278 12.4524C2.26246 12.4524 2.82808 12.4524 3.39371 12.4524Z" fill="#EEAC45"/>
<path d="M4.29881 15.7252C3.8999 15.7252 3.49503 15.7252 3.09611 15.7252C2.74483 15.7252 2.50667 15.507 2.50072 15.1919C2.49476 14.8646 2.73888 14.6404 3.10207 14.6404C3.88799 14.6404 4.67391 14.6404 5.46579 14.6404C5.82898 14.6404 6.07309 14.8646 6.07309 15.1858C6.07309 15.507 5.82898 15.7252 5.45983 15.7313C5.07283 15.7252 4.68582 15.7252 4.29881 15.7252Z" fill="#EEAC45"/>
<path d="M14.4681 5.74337C14.4681 7.80398 14.4681 9.84034 14.4681 11.9009C16.4924 11.9009 18.4989 11.9009 20.4994 11.9009C20.6245 13.3616 19.8326 15.7676 17.6951 17.1434C15.4803 18.5616 12.5807 18.3676 10.5802 16.6585C8.53199 14.907 7.83538 12.0646 8.8535 9.55549C9.90735 6.96762 12.3604 5.68883 14.4681 5.74337Z" fill="#EEAC45"/>
</svg>
