<svg width="14" height="11" viewBox="0 0 14 11" fill="none" xmlns="http://www.w3.org/2000/svg">
<path d="M0.718445 9.76695C0.873785 9.61161 1.02912 9.4951 1.14563 9.33976C1.61165 8.87374 2.03883 8.44656 2.50485 7.98054C2.58252 7.90287 2.66019 7.86404 2.7767 7.90287C5.2233 8.67957 7.78641 7.00967 8.05825 4.4854C8.13592 3.90287 8.05825 3.32035 7.90291 2.77666C7.90291 2.69899 7.90291 2.62132 7.94175 2.54365C8.75728 1.72811 9.57281 0.91258 10.3883 0.0970459C10.5437 0.213551 10.7379 0.368891 10.8932 0.485396C11.9806 1.41743 12.9903 2.42714 13.8447 3.55336C14.0777 3.8252 14.0777 4.09705 13.8447 4.36889C12.3301 6.31064 10.5825 7.98054 8.4466 9.18442C6.97087 9.99996 5.41747 10.5048 3.70874 10.4271C2.69903 10.3883 1.72815 10.1553 0.718445 9.76695Z" fill="#626972"/>
</svg>
