<svg width="20" height="20" viewBox="0 0 20 20" fill="none" xmlns="http://www.w3.org/2000/svg">
<path d="M11.0554 5.46654C10.5585 5.96343 10.2992 6.60855 10.1623 7.16169L10.1519 5.36937C10.4778 5.01524 11.3323 3.97027 11.3397 2.74156C11.3489 1.2233 10.0606 0.000344227 10.0606 0.000344227C10.0606 0.000344227 8.75737 1.239 8.74818 2.75727C8.74073 3.98598 9.58263 5.02066 9.90419 5.37087L9.87207 7.16345C9.74192 6.61193 9.49042 5.9699 8.99951 5.479C7.93244 4.41193 6.14563 4.4687 6.14563 4.4687C6.14563 4.4687 6.08884 6.25553 7.15591 7.3226C8.03241 8.19909 9.39256 8.31712 9.85114 8.3314L9.8034 10.9955C9.66287 10.486 9.41569 9.92382 8.97524 9.48338C7.90818 8.41631 6.12136 8.47308 6.12136 8.47308C6.12136 8.47308 6.06457 10.2599 7.13164 11.327C7.98023 12.1756 9.28109 12.3129 9.77942 12.3338L9.73442 14.8447C9.58763 14.3786 9.34692 13.8837 8.95098 13.4878C7.88391 12.4207 6.09709 12.4775 6.09709 12.4775C6.09709 12.4775 6.0403 14.2643 7.10737 15.3314C7.93042 16.1544 9.17846 16.3083 9.7077 16.3359L9.66627 18.6478C9.6535 19.3601 9.77556 19.9689 9.93959 19.9679C10.1036 19.9669 10.2331 19.3566 10.2289 18.6444L10.2155 16.3328C10.7451 16.2988 11.9951 16.1298 12.8282 15.2967C13.9083 14.2166 13.8732 12.4303 13.8732 12.4303C13.8732 12.4303 12.0869 12.3952 11.0068 13.4753C10.606 13.8761 10.3593 14.3739 10.2069 14.8418L10.1923 12.3313C10.6909 12.3044 11.9935 12.1512 12.8525 11.2923C13.9326 10.2122 13.8974 8.42595 13.8974 8.42595C13.8974 8.42595 12.1112 8.39083 11.0311 9.47092C10.5853 9.91673 10.3313 10.482 10.1845 10.9932L10.1691 8.32948C10.6279 8.30964 11.9896 8.17511 12.8768 7.28793C13.9568 6.20784 13.9217 4.42157 13.9217 4.42157C13.9217 4.42157 12.1354 4.38645 11.0554 5.46654Z" fill="#626972"/>
</svg>
